<svg xmlns="http://www.w3.org/2000/svg" viewBox="0 0 85.6 86"><path fill="#FFF" d="M42.8 86C19.4 86 0 66.6 0 42.8S19.4 0 42.8 0s42.8 19.4 42.8 42.8S66.6 86 42.8 86zm0-78.7C23.4 7.3 7.3 23.4 7.3 42.8s16.1 35.5 35.5 35.5c19.8 0 35.5-16.1 35.5-35.5S62.6 7.3 42.8 7.3z"/><path fill="#FFF" d="M65.9 46.1H18.3c-2.2 0-3.7-1.5-3.7-3.7s1.5-3.7 3.7-3.7h38.8l-11.4-12c-1.5-1.5-1.5-3.7 0-5.1 1.5-1.5 3.7-1.5 5.1 0L68 39.9c1.1 1.1 1.5 2.6.7 4 .1 1.5-1.4 2.2-2.8 2.2z"/><path fill="#FFF" d="M49.4 62.6c-1.1 0-1.8-.4-2.6-1.1-1.5-1.5-1.5-3.7 0-5.1l16.5-16.5c1.5-1.5 3.7-1.5 5.1 0 1.5 1.5 1.5 3.7 0 5.1L52 61.5c-.8.7-1.5 1.1-2.6 1.1z"/></svg>