<svg xmlns="http://www.w3.org/2000/svg" viewBox="0 0 65 65"><path fill="none" d="M15 3v59"/><path fill="#FFF" d="M15 65c-1.7 0-3-1.2-3-3V3c0-1.7 1.5-3 3-3s3 1.2 3 3v59c0 1.8-1.3 3-3 3z"/><path fill="none" d="M50 3v59"/><path fill="#FFF" d="M50 65c-1.7 0-3-1.2-3-3V3c0-1.7 1.2-3 3-3s3 1.2 3 3v59c-.1 1.8-1.5 3-3 3z"/><path fill="none" d="M3 50h59"/><path fill="#FFF" d="M62 52.9H3c-1.7 0-3-1.2-3-3 0-1.7 1.2-3 3-3h59c1.7 0 3 1.2 3 3s-1.2 3-3 3z"/><path fill="none" d="M3 15h59"/><path fill="#FFF" d="M62 18H3c-1.7 0-3-1.2-3-3s1.2-3 3-3h59c1.7 0 3 1.2 3 3s-1.2 3-3 3z"/><path fill="none" d="M8.6 21.7L20.9 9.1"/><path fill="#FFF" d="M8.6 24.6c-.7 0-1.5-.2-2-1-1.2-1.2-1.2-3 0-4.2L19.2 6.9c1.2-1.2 3-1.2 4.2 0 1.2 1.2 1.2 3 0 4.2L10.6 23.6c-.5.5-1.2 1-2 1z"/><path fill="none" d="M43.6 21.7L56.1 9.1"/><path fill="#FFF" d="M43.6 24.6c-.7 0-1.5-.2-2-1-1.2-1.2-1.2-3 0-4.2L54.2 6.9c1.2-1.2 3-1.2 4.2 0s1.2 3 0 4.2L45.8 23.6c-.7.5-1.5 1-2.2 1z"/><path fill="none" d="M8.6 56.1l12.3-12.5"/><path fill="#FFF" d="M8.6 59.1c-.7 0-1.5-.2-2-1-1.2-1.2-1.2-3 0-4.2l12.6-12.6c1.2-1.2 3-1.2 4.2 0 1.2 1.2 1.2 3 0 4.2L10.8 58.1c-.7.5-1.4 1-2.2 1z"/><path fill="none" d="M43.6 56.1l12.5-12.5"/><path fill="#FFF" d="M43.6 59.1c-.7 0-1.5-.2-2-1-1.2-1.2-1.2-3 0-4.2l12.6-12.6c1.2-1.2 3-1.2 4.2 0 1.2 1.2 1.2 3 0 4.2L45.8 58.1c-.7.5-1.5 1-2.2 1z"/></svg>