<svg xmlns="http://www.w3.org/2000/svg" viewBox="0 7.3 68.1 64.8"><path fill="#FFF" d="M26.1 25.2c2-5.1.2-10.2.2-10.4l-.4-1.5-1.3.9c-.2.2-5.1 2.9-6.9 8-2 5.1-.2 10.2-.2 10.4l.4 1.3 1.3-.9c.3 0 4.9-2.7 6.9-7.8zM20.4 29l-.9.9-.2-1.1c-.2-2.2 0-4 .7-5.8s1.8-3.3 3.3-4.6l1.1-.9v1.1c.2 2.2 0 4-.7 5.8-.7 1.7-1.8 3.3-3.3 4.6z"/><path fill="#FFF" d="M19.7 42c1.8-5.1.2-10.2.2-10.4l-.4-1.5-1.4.9c-.4 0-5.1 2.9-7.1 7.7-2 5.1-.2 10.2-.2 10.4l.4 1.5 1.3-.9c.6.1 5.2-2.6 7.2-7.7zm-5.8 3.8l-.9.9-.2-1.3c-.2-2.2 0-4 .7-5.8.7-1.8 1.8-3.3 3.3-4.6l.9-.9.2 1.3c.2 2.2 0 4-.7 5.8-.6 1.5-1.7 3.1-3.3 4.6z"/><path fill="#FFF" d="M19.7 31.4c-.2-.2-2.9-4.9-7.7-6.9-1.5-.7-3.3-.9-5.3-.9-2.9 0-5.1.7-5.1.7l-1.6.5.9 1.3c.2.2 2.9 4.9 7.7 6.9 1.5.7 3.3.9 5.3.9 2.9 0 5.1-.7 5.1-.7l1.5-.4-.8-1.4zm-4.4 0H14c-1.5 0-3.1-.2-4.4-.7-1.5-.7-3.3-2-4.6-3.5l-1-.9 1.3-.2h1.3c1.5 0 3.1.2 4.4.7 1.8.7 3.3 1.8 4.6 3.3l.9.9-1.2.4z"/><path fill="#FFF" d="M36.5 37.8c-.2-.2-2.9-4.9-7.7-6.9-1.5-.7-3.3-.9-5.3-.9-2.9 0-5.1.7-5.1.7l-1.5.4.9 1.3c.2.2 2.9 4.9 7.7 6.9 1.5.7 3.3.9 5.3.9 2.9 0 5.1-.7 5.1-.7l1.5-.4-.9-1.3zm-4.4 0h-1.3c-1.5 0-3.1-.2-4.4-.7-1.8-.7-3.3-1.8-4.6-3.3l-1-.8 1.3-.2h1.3c1.5 0 3.1.2 4.4.7 1.8.7 3.3 1.8 4.6 3.3l.9.9-1.2.1z"/><path fill="#FFF" d="M17.9 29.6h-.7l-.4.7c-.4.7 0 1.3.9 3.1 3.5 6 2 20.6 1.1 26.8l5.1 1.1-2.4-1.5-.5-.3v-.4c.4-2.9 1.1-8.6 1.1-14.4v-3.5l1.3 3.3c1.8 4.4 3.8 9.7 3.1 18.4l.7.4 1.5-.2.2-2c2.2-12.6-8.6-29.4-10-31 .1 0-.3-.5-1-.5z"/><path fill="#FFF" d="M54.2 62.8L52.7 61c-1.1-1.3-2.4-2-4-2.2h-.2c-1.3 0-2.7.7-3.8 1.8l-1.5 1.5c-.4.7-1.1.9-1.8.9s-1.3-.4-2-1.1l-.7-.9c-1.1-1.3-2.4-2-4-2.2h-.2c-1.3 0-2.9.7-3.8 1.8l-1.5 1.5c-.4.7-1.1.9-1.8.9s-1.3-.2-1.8-.9l-1.3-1.5c-1.1-1.1-2.4-1.8-4-1.8-1.3 0-2.9.7-4 1.8l-2 2.2c-.2.2-.4.7-.4.9 0 .4.2.7.4.9.7.2.9.2 1.1.2.4 0 .7-.2.9-.4l2-2.2c.7-.7 1.3-1.1 2-1.1s1.3.4 2 1.1l1.5 1.5c1.1 1.1 2.4 1.8 3.8 1.8 1.3 0 2.7-.7 3.8-1.8l1.5-1.5c.7-.7 1.3-.9 2-.9s1.5.4 2 1.1l.7.9c1.1 1.3 2.4 2 3.8 2h.2c1.3 0 2.7-.7 3.8-1.8l1.5-1.5c.4-.4 1.1-.9 2-.9.7 0 1.5.4 2 1.1l1.5 1.8c.2.2.7.4 1.1.4.2 0 .7 0 .9-.2.2 0 .2-.9-.2-1.4z"/><path fill="#FFF" d="M54.2 69.3l-1.5-1.8c-1.1-1.3-2.4-2-4-2.2h-.2c-1.3 0-2.7.7-3.8 1.8l-1.5 1.5c-.4.7-1.1.9-1.8.9s-1.3-.4-2-1.1l-.7-.9c-1.1-1.3-2.4-2-4-2.2h-.2c-1.3 0-2.9.7-3.8 1.8l-1.5 1.5c-.4.7-1.1.9-1.8.9s-1.3-.2-1.8-.9L24.3 67c-1.1-1.1-2.4-1.8-4-1.8-1.3 0-2.9.7-4 1.8l-2 2.2c-.4.4-.4 1.3 0 1.8.2.2.4.4.9.4.4 0 .7-.2.9-.4l2-2.2c.7-.7 1.3-1.1 2-1.1s1.3.4 2 1.1l1.5 1.5c1.1 1.1 2.4 1.8 3.8 1.8 1.3 0 2.7-.7 3.8-1.8l1.5-1.5c.7-.7 1.3-.9 2-.9s1.5.4 2 1.1l.7.9c1.1 1.3 2.4 2 3.8 2h.2c1.3 0 2.7-.7 3.8-1.8l1.5-1.5c.4-.4 1.1-.9 2-.9.7 0 1.5.4 2 1.1l1.5 1.8c.2.2.7.4 1.1.4.2 0 .7 0 .9-.2.4-.2.4-1.1 0-1.5zm-3.3-51.8c-3.8 0-6.9 3.1-6.9 6.9s3.1 6.9 6.9 6.9 6.9-3.1 6.9-6.9-3.2-6.9-6.9-6.9zm0 11.3c-2.4 0-4.2-2-4.2-4.2 0-2.4 2-4.2 4.2-4.2 2.4 0 4.2 2 4.2 4.2.2 2.2-1.8 4.2-4.2 4.2zm0-21.5c-.7 0-1.3.7-1.3 1.3v6c0 .7.7 1.3 1.3 1.3s1.3-.7 1.3-1.3v-6c0-.6-.7-1.3-1.3-1.3zm0 25.7c-.7 0-1.3.7-1.3 1.3v6.2c0 .7.7 1.3 1.3 1.3s1.3-.7 1.3-1.3v-6c0-.9-.7-1.5-1.3-1.5zm-9.8-9.8h-6c-.7 0-1.3.7-1.3 1.3 0 .7.7 1.3 1.3 1.3h6c.7 0 1.3-.7 1.3-1.3-.1-.6-.6-1.3-1.3-1.3zm25.7 0h-6c-.7 0-1.3.7-1.3 1.3 0 .7.7 1.3 1.3 1.3h6c.7 0 1.3-.7 1.3-1.3 0-.6-.6-1.3-1.3-1.3zm-28.5-8.6l4.4 4.2c.2.2.4.4.9.4.4 0 .7-.2.9-.4.4-.4.4-1.3 0-1.8L40 12.8c-.2-.2-.4-.4-.9-.4-.4 0-.7.2-.9.4-.4.5-.4 1.4.1 1.8zm24.3 21.9c.4 0 .7-.2.9-.4s.4-.7.4-.9c0-.4-.2-.7-.4-.9l-4.4-4.2c-.2-.2-.4-.4-.9-.4-.4 0-.7.2-.9.4-.2.2-.4.7-.4.9 0 .4.2.7.4.9l4.4 4.2c.2.4.7.4.9.4zm-22.6.9c.4 0 .7-.2.9-.4l4.2-4.4c.4-.4.4-1.3 0-1.8-.2-.2-.4-.4-.9-.4s-.7.2-.9.4l-4.2 4.4c-.2.2-.4.7-.4.9 0 .4.2.7.4.9.5.4.7.4.9.4zm17.5-18.8c.4 0 .7-.2.9-.4l4.2-4.4c.4-.4.4-1.3 0-1.8-.2-.2-.7-.4-.9-.4-.4 0-.7.2-.9.4l-4.2 4.4c-.4.4-.4 1.3 0 1.8.5.2.7.4.9.4z"/></svg>