<svg xmlns="http://www.w3.org/2000/svg" viewBox="0 0 68.2 67.9"><linearGradient id="a" gradientUnits="userSpaceOnUse" x1=".664" y1="295.389" x2="5.016" y2="298.986" gradientTransform="matrix(12.0482 0 0 -12.0482 0 3614.458)"><stop offset="0" stop-color="#d4006a"/><stop offset="1" stop-color="#fe6442"/></linearGradient><path fill="url(#a)" d="M34.1 67.9C15.3 67.9 0 52.9 0 34.1S15.3 0 34.1 0s34.1 15.3 34.1 34.1c-.3 18.8-15.3 33.8-34.1 33.8zm0-63C18 4.9 4.9 18 4.9 34.1S18 63.3 34.1 63.3s29.2-13.1 29.2-29.2S50.2 4.9 34.1 4.9z"/><linearGradient id="b" gradientUnits="userSpaceOnUse" x1="-.534" y1="296.839" x2="3.818" y2="300.435" gradientTransform="matrix(12.0482 0 0 -12.0482 0 3614.458)"><stop offset="0" stop-color="#d4006a"/><stop offset="1" stop-color="#fe6442"/></linearGradient><path fill="url(#b)" d="M20.7 18.5c1.1-1.1 2.5-1.9 3.8-2.7l-1.6-4.4c-1.9.8-3.8 2.2-5.5 3.5l3.3 3.6z"/><linearGradient id="c" gradientUnits="userSpaceOnUse" x1=".077" y1="296.1" x2="4.429" y2="299.696" gradientTransform="matrix(12.0482 0 0 -12.0482 0 3614.458)"><stop offset="0" stop-color="#d4006a"/><stop offset="1" stop-color="#fe6442"/></linearGradient><path fill="url(#c)" d="M14.7 40.4c-.5-1.4-.8-3-.8-4.6H8.7c.3 2.2.5 4.4 1.4 6.5l4.6-1.9z"/><linearGradient id="d" gradientUnits="userSpaceOnUse" x1="-.489" y1="296.784" x2="3.863" y2="300.38" gradientTransform="matrix(12.0482 0 0 -12.0482 0 3614.458)"><stop offset="0" stop-color="#d4006a"/><stop offset="1" stop-color="#fe6442"/></linearGradient><path fill="url(#d)" d="M15.8 24.8c.8-1.4 1.6-2.7 2.7-3.8L15 17.5c-1.4 1.6-2.7 3.5-3.5 5.5l4.3 1.8z"/><linearGradient id="e" gradientUnits="userSpaceOnUse" x1="-.28" y1="296.532" x2="4.072" y2="300.128" gradientTransform="matrix(12.0482 0 0 -12.0482 0 3614.458)"><stop offset="0" stop-color="#d4006a"/><stop offset="1" stop-color="#fe6442"/></linearGradient><path fill="url(#e)" d="M13.6 32.5c0-1.6.5-3.3.8-4.6L10 26c-.8 2.2-1.1 4.4-1.4 6.5h5z"/><linearGradient id="f" gradientUnits="userSpaceOnUse" x1="-.397" y1="296.674" x2="3.955" y2="300.27" gradientTransform="matrix(12.0482 0 0 -12.0482 0 3614.458)"><stop offset="0" stop-color="#d4006a"/><stop offset="1" stop-color="#fe6442"/></linearGradient><path fill="url(#f)" d="M27.8 14.7c1.4-.5 3-.8 4.6-.8V8.7c-2.4.3-4.6.8-6.5 1.4l1.9 4.6z"/><linearGradient id="g" gradientUnits="userSpaceOnUse" x1=".8" y1="295.225" x2="5.152" y2="298.821" gradientTransform="matrix(12.0482 0 0 -12.0482 0 3614.458)"><stop offset="0" stop-color="#d4006a"/><stop offset="1" stop-color="#fe6442"/></linearGradient><path fill="url(#g)" d="M52.9 17.5L49.4 21c1.1 1.1 1.9 2.5 2.7 3.8l4.6-1.9c-1.1-1.9-2.4-3.8-3.8-5.4z"/><linearGradient id="h" gradientUnits="userSpaceOnUse" x1=".294" y1="295.837" x2="4.646" y2="299.434" gradientTransform="matrix(12.0482 0 0 -12.0482 0 3614.458)"><stop offset="0" stop-color="#d4006a"/><stop offset="1" stop-color="#fe6442"/></linearGradient><path fill="url(#h)" d="M43.4 15.8c1.4.8 2.7 1.6 3.8 2.7l3.5-3.5c-1.6-1.4-3.5-2.7-5.5-3.8l-1.8 4.6z"/><linearGradient id="i" gradientUnits="userSpaceOnUse" x1="-.121" y1="296.339" x2="4.231" y2="299.935" gradientTransform="matrix(12.0482 0 0 -12.0482 0 3614.458)"><stop offset="0" stop-color="#d4006a"/><stop offset="1" stop-color="#fe6442"/></linearGradient><path fill="url(#i)" d="M35.7 13.6c1.6 0 3.3.5 4.6.8l1.9-4.6C40 9 37.8 8.7 35.7 8.4v5.2z"/><linearGradient id="j" gradientUnits="userSpaceOnUse" x1="1.817" y1="293.994" x2="6.169" y2="297.59" gradientTransform="matrix(12.0482 0 0 -12.0482 0 3614.458)"><stop offset="0" stop-color="#d4006a"/><stop offset="1" stop-color="#fe6442"/></linearGradient><path fill="url(#j)" d="M52.1 43.4c-.8 1.4-1.6 2.7-2.7 3.8l3.5 3.5c1.4-1.6 2.7-3.5 3.8-5.5l-4.6-1.8z"/><linearGradient id="k" gradientUnits="userSpaceOnUse" x1=".528" y1="295.553" x2="4.88" y2="299.15" gradientTransform="matrix(12.0482 0 0 -12.0482 0 3614.458)"><stop offset="0" stop-color="#d4006a"/><stop offset="1" stop-color="#fe6442"/></linearGradient><path fill="url(#k)" d="M18.5 47.2c-1.1-1.1-1.9-2.5-2.7-3.8l-4.6 1.9c1.1 1.9 2.2 3.8 3.8 5.5l3.5-3.6z"/><linearGradient id="l" gradientUnits="userSpaceOnUse" x1="1.857" y1="293.945" x2="6.209" y2="297.541" gradientTransform="matrix(12.0482 0 0 -12.0482 0 3614.458)"><stop offset="0" stop-color="#d4006a"/><stop offset="1" stop-color="#fe6442"/></linearGradient><path fill="url(#l)" d="M47.2 49.4c-1.1 1.1-2.5 1.9-3.8 2.7l1.9 4.6c1.9-1.1 3.8-2.2 5.5-3.8l-3.6-3.5z"/><linearGradient id="m" gradientUnits="userSpaceOnUse" x1="1.256" y1="294.673" x2="5.608" y2="298.269" gradientTransform="matrix(12.0482 0 0 -12.0482 0 3614.458)"><stop offset="0" stop-color="#d4006a"/><stop offset="1" stop-color="#fe6442"/></linearGradient><path fill="url(#m)" d="M53.5 27.8c.5 1.4.8 3 .8 4.6h4.9c-.3-2.2-.5-4.4-1.4-6.5l-4.3 1.9z"/><linearGradient id="n" gradientUnits="userSpaceOnUse" x1="1.613" y1="294.241" x2="5.965" y2="297.837" gradientTransform="matrix(12.0482 0 0 -12.0482 0 3614.458)"><stop offset="0" stop-color="#d4006a"/><stop offset="1" stop-color="#fe6442"/></linearGradient><path fill="url(#n)" d="M54.3 35.7c0 1.6-.5 3.3-.8 4.6l4.6 1.9c.8-2.2 1.1-4.4 1.4-6.5h-5.2z"/><linearGradient id="o" gradientUnits="userSpaceOnUse" x1="1.032" y1="294.943" x2="5.385" y2="298.539" gradientTransform="matrix(12.0482 0 0 -12.0482 0 3614.458)"><stop offset="0" stop-color="#d4006a"/><stop offset="1" stop-color="#fe6442"/></linearGradient><path fill="url(#o)" d="M24.8 52.1c-1.4-.8-2.7-1.6-3.8-2.7l-3.5 3.5c1.6 1.4 3.5 2.7 5.5 3.8l1.8-4.6z"/><linearGradient id="p" gradientUnits="userSpaceOnUse" x1="1.447" y1="294.442" x2="5.799" y2="298.038" gradientTransform="matrix(12.0482 0 0 -12.0482 0 3614.458)"><stop offset="0" stop-color="#d4006a"/><stop offset="1" stop-color="#fe6442"/></linearGradient><path fill="url(#p)" d="M32.5 54.3c-1.6 0-3.3-.5-4.6-.8L26 58.1c2.2.8 4.4 1.1 6.5 1.4v-5.2z"/><linearGradient id="q" gradientUnits="userSpaceOnUse" x1="1.729" y1="294.1" x2="6.081" y2="297.697" gradientTransform="matrix(12.0482 0 0 -12.0482 0 3614.458)"><stop offset="0" stop-color="#d4006a"/><stop offset="1" stop-color="#fe6442"/></linearGradient><path fill="url(#q)" d="M40.4 53.5c-1.4.5-3 .8-4.6.8v4.9c2.2-.3 4.4-.5 6.5-1.4l-1.9-4.3z"/><linearGradient id="r" gradientUnits="userSpaceOnUse" x1=".658" y1="295.396" x2="5.011" y2="298.992" gradientTransform="matrix(12.0482 0 0 -12.0482 0 3614.458)"><stop offset="0" stop-color="#d4006a"/><stop offset="1" stop-color="#fe6442"/></linearGradient><path fill="url(#r)" d="M46.4 29.7c-1.6 0-3 .5-3.8 1.9h-4.1c-1.4 0-2.2-1.1-2.2-2.2V25c1.4-.5 2.2-1.9 1.9-3.5 0-2.2-1.9-3.8-4.1-4.1-2.5 0-4.4 1.9-4.4 4.4 0 1.4.8 2.7 1.9 3.5v3.8c0 1.4-1.1 2.5-2.5 2.5h-3.8c-.8-1.1-2.2-1.9-3.8-1.9-2.2 0-3.8 1.9-4.1 4.1 0 2.5 1.9 4.4 4.4 4.4 1.4 0 2.7-.8 3.5-1.9h4.1c1.1 0 2.2 1.1 2.2 2.2v4.1c-1.1.8-1.9 2.2-1.9 3.8 0 2.2 1.9 3.8 4.1 4.1 2.5 0 4.4-1.9 4.4-4.4 0-1.4-.8-2.7-1.9-3.5v-4.1c0-1.1 1.1-2.2 2.2-2.2h4.1c.8 1.1 1.9 1.9 3.5 1.9 2.5 0 4.4-1.9 4.4-4.4 0-2.2-1.9-4.1-4.1-4.1zm-12.3 7.1c-1.6 0-2.7-1.1-2.7-2.7s1.1-2.7 2.7-2.7 2.7 1.1 2.7 2.7c0 1.4-1.3 2.7-2.7 2.7z"/><linearGradient id="s" gradientUnits="userSpaceOnUse" x1="1.137" y1="296.225" x2="4.577" y2="298.164" gradientTransform="matrix(12.0482 0 0 -12.0482 0 3614.458)"><stop offset="0" stop-color="#d4006a"/><stop offset="1" stop-color="#fe6442"/></linearGradient><path fill="url(#s)" d="M34.1 67.9C15.3 67.9 0 52.9 0 34.1S15.3 0 34.1 0s34.1 15.3 34.1 34.1c-.3 18.8-15.3 33.8-34.1 33.8zm0-63C18 4.9 4.9 18 4.9 34.1S18 63.3 34.1 63.3s29.2-13.1 29.2-29.2S50.2 4.9 34.1 4.9z"/><linearGradient id="t" gradientUnits="userSpaceOnUse" x1="1.603" y1="298.641" x2="1.937" y2="298.829" gradientTransform="matrix(12.0482 0 0 -12.0482 0 3614.458)"><stop offset="0" stop-color="#d4006a"/><stop offset="1" stop-color="#fe6442"/></linearGradient><path fill="url(#t)" d="M20.7 18.5c1.1-1.1 2.5-1.9 3.8-2.7l-1.6-4.4c-1.9.8-3.8 2.2-5.5 3.5l3.3 3.6z"/><linearGradient id="u" gradientUnits="userSpaceOnUse" x1=".8" y1="296.744" x2="1.121" y2="296.924" gradientTransform="matrix(12.0482 0 0 -12.0482 0 3614.458)"><stop offset="0" stop-color="#d4006a"/><stop offset="1" stop-color="#fe6442"/></linearGradient><path fill="url(#u)" d="M14.7 40.4c-.5-1.4-.8-3-.8-4.6H8.7c.3 2.2.5 4.4 1.4 6.5l4.6-1.9z"/><linearGradient id="v" gradientUnits="userSpaceOnUse" x1="1.047" y1="298.114" x2="1.412" y2="298.32" gradientTransform="matrix(12.0482 0 0 -12.0482 0 3614.458)"><stop offset="0" stop-color="#d4006a"/><stop offset="1" stop-color="#fe6442"/></linearGradient><path fill="url(#v)" d="M15.8 24.8c.8-1.4 1.6-2.7 2.7-3.8L15 17.5c-1.4 1.6-2.7 3.5-3.5 5.5l4.3 1.8z"/><linearGradient id="w" gradientUnits="userSpaceOnUse" x1=".765" y1="297.453" x2="1.136" y2="297.663" gradientTransform="matrix(12.0482 0 0 -12.0482 0 3614.458)"><stop offset="0" stop-color="#d4006a"/><stop offset="1" stop-color="#fe6442"/></linearGradient><path fill="url(#w)" d="M13.6 32.5c0-1.6.5-3.3.8-4.6L10 26c-.8 2.2-1.1 4.4-1.4 6.5h5z"/><linearGradient id="x" gradientUnits="userSpaceOnUse" x1="2.317" y1="298.944" x2="2.665" y2="299.14" gradientTransform="matrix(12.0482 0 0 -12.0482 0 3614.458)"><stop offset="0" stop-color="#d4006a"/><stop offset="1" stop-color="#fe6442"/></linearGradient><path fill="url(#x)" d="M27.8 14.7c1.4-.5 3-.8 4.6-.8V8.7c-2.4.3-4.6.8-6.5 1.4l1.9 4.6z"/><linearGradient id="y" gradientUnits="userSpaceOnUse" x1="4.252" y1="298.156" x2="4.518" y2="298.306" gradientTransform="matrix(12.0482 0 0 -12.0482 0 3614.458)"><stop offset="0" stop-color="#d4006a"/><stop offset="1" stop-color="#fe6442"/></linearGradient><path fill="url(#y)" d="M52.9 17.5L49.4 21c1.1 1.1 1.9 2.5 2.7 3.8l4.6-1.9c-1.1-1.9-2.4-3.8-3.8-5.4z"/><linearGradient id="z" gradientUnits="userSpaceOnUse" x1="3.692" y1="298.684" x2="4.038" y2="298.879" gradientTransform="matrix(12.0482 0 0 -12.0482 0 3614.458)"><stop offset="0" stop-color="#d4006a"/><stop offset="1" stop-color="#fe6442"/></linearGradient><path fill="url(#z)" d="M43.4 15.8c1.4.8 2.7 1.6 3.8 2.7l3.5-3.5c-1.6-1.4-3.5-2.7-5.5-3.8l-1.8 4.6z"/><linearGradient id="A" gradientUnits="userSpaceOnUse" x1="3.01" y1="298.966" x2="3.386" y2="299.177" gradientTransform="matrix(12.0482 0 0 -12.0482 0 3614.458)"><stop offset="0" stop-color="#d4006a"/><stop offset="1" stop-color="#fe6442"/></linearGradient><path fill="url(#A)" d="M35.7 13.6c1.6 0 3.3.5 4.6.8l1.9-4.6C40 9 37.8 8.7 35.7 8.4v5.2z"/><linearGradient id="B" gradientUnits="userSpaceOnUse" x1="4.247" y1="296.031" x2="4.612" y2="296.237" gradientTransform="matrix(12.0482 0 0 -12.0482 0 3614.458)"><stop offset="0" stop-color="#d4006a"/><stop offset="1" stop-color="#fe6442"/></linearGradient><path fill="url(#B)" d="M52.1 43.4c-.8 1.4-1.6 2.7-2.7 3.8l3.5 3.5c1.4-1.6 2.7-3.5 3.8-5.5l-4.6-1.8z"/><linearGradient id="C" gradientUnits="userSpaceOnUse" x1="1.138" y1="296.044" x2="1.404" y2="296.194" gradientTransform="matrix(12.0482 0 0 -12.0482 0 3614.458)"><stop offset="0" stop-color="#d4006a"/><stop offset="1" stop-color="#fe6442"/></linearGradient><path fill="url(#C)" d="M18.5 47.2c-1.1-1.1-1.9-2.5-2.7-3.8l-4.6 1.9c1.1 1.9 2.2 3.8 3.8 5.5l3.5-3.6z"/><linearGradient id="D" gradientUnits="userSpaceOnUse" x1="3.718" y1="295.528" x2="4.052" y2="295.717" gradientTransform="matrix(12.0482 0 0 -12.0482 0 3614.458)"><stop offset="0" stop-color="#d4006a"/><stop offset="1" stop-color="#fe6442"/></linearGradient><path fill="url(#D)" d="M47.2 49.4c-1.1 1.1-2.5 1.9-3.8 2.7l1.9 4.6c1.9-1.1 3.8-2.2 5.5-3.8l-3.6-3.5z"/><linearGradient id="E" gradientUnits="userSpaceOnUse" x1="4.54" y1="297.421" x2="4.86" y2="297.602" gradientTransform="matrix(12.0482 0 0 -12.0482 0 3614.458)"><stop offset="0" stop-color="#d4006a"/><stop offset="1" stop-color="#fe6442"/></linearGradient><path fill="url(#E)" d="M53.5 27.8c.5 1.4.8 3 .8 4.6h4.9c-.3-2.2-.5-4.4-1.4-6.5l-4.3 1.9z"/><linearGradient id="F" gradientUnits="userSpaceOnUse" x1="4.526" y1="296.684" x2="4.897" y2="296.893" gradientTransform="matrix(12.0482 0 0 -12.0482 0 3614.458)"><stop offset="0" stop-color="#d4006a"/><stop offset="1" stop-color="#fe6442"/></linearGradient><path fill="url(#F)" d="M54.3 35.7c0 1.6-.5 3.3-.8 4.6l4.6 1.9c.8-2.2 1.1-4.4 1.4-6.5h-5.2z"/><linearGradient id="G" gradientUnits="userSpaceOnUse" x1="1.615" y1="295.479" x2="1.961" y2="295.674" gradientTransform="matrix(12.0482 0 0 -12.0482 0 3614.458)"><stop offset="0" stop-color="#d4006a"/><stop offset="1" stop-color="#fe6442"/></linearGradient><path fill="url(#G)" d="M24.8 52.1c-1.4-.8-2.7-1.6-3.8-2.7l-3.5 3.5c1.6 1.4 3.5 2.7 5.5 3.8l1.8-4.6z"/><linearGradient id="H" gradientUnits="userSpaceOnUse" x1="2.268" y1="295.181" x2="2.644" y2="295.393" gradientTransform="matrix(12.0482 0 0 -12.0482 0 3614.458)"><stop offset="0" stop-color="#d4006a"/><stop offset="1" stop-color="#fe6442"/></linearGradient><path fill="url(#H)" d="M32.5 54.3c-1.6 0-3.3-.5-4.6-.8L26 58.1c2.2.8 4.4 1.1 6.5 1.4v-5.2z"/><linearGradient id="I" gradientUnits="userSpaceOnUse" x1="2.993" y1="295.209" x2="3.342" y2="295.406" gradientTransform="matrix(12.0482 0 0 -12.0482 0 3614.458)"><stop offset="0" stop-color="#d4006a"/><stop offset="1" stop-color="#fe6442"/></linearGradient><path fill="url(#I)" d="M40.4 53.5c-1.4.5-3 .8-4.6.8v4.9c2.2-.3 4.4-.5 6.5-1.4l-1.9-4.3z"/><linearGradient id="J" gradientUnits="userSpaceOnUse" x1="2.087" y1="296.768" x2="3.588" y2="297.615" gradientTransform="matrix(12.0482 0 0 -12.0482 0 3614.458)"><stop offset="0" stop-color="#d4006a"/><stop offset="1" stop-color="#fe6442"/></linearGradient><path fill="url(#J)" d="M46.4 29.7c-1.6 0-3 .5-3.8 1.9h-4.1c-1.4 0-2.2-1.1-2.2-2.2V25c1.4-.5 2.2-1.9 1.9-3.5 0-2.2-1.9-3.8-4.1-4.1-2.5 0-4.4 1.9-4.4 4.4 0 1.4.8 2.7 1.9 3.5v3.8c0 1.4-1.1 2.5-2.5 2.5h-3.8c-.8-1.1-2.2-1.9-3.8-1.9-2.2 0-3.8 1.9-4.1 4.1 0 2.5 1.9 4.4 4.4 4.4 1.4 0 2.7-.8 3.5-1.9h4.1c1.1 0 2.2 1.1 2.2 2.2v4.1c-1.1.8-1.9 2.2-1.9 3.8 0 2.2 1.9 3.8 4.1 4.1 2.5 0 4.4-1.9 4.4-4.4 0-1.4-.8-2.7-1.9-3.5v-4.1c0-1.1 1.1-2.2 2.2-2.2h4.1c.8 1.1 1.9 1.9 3.5 1.9 2.5 0 4.4-1.9 4.4-4.4 0-2.2-1.9-4.1-4.1-4.1zm-12.3 7.1c-1.6 0-2.7-1.1-2.7-2.7s1.1-2.7 2.7-2.7 2.7 1.1 2.7 2.7c0 1.4-1.3 2.7-2.7 2.7z"/></svg>