<svg xmlns="http://www.w3.org/2000/svg" viewBox="0.1 56.7 102.9 64.2"><path fill="#FFF" d="M63.9 120.1c-1.1 0-2.2-.5-2.7-1.6L28 61.5c-.8-1.6-.3-3.6 1.1-4.4 1.6-.8 3.6-.3 4.4 1.1l33.1 57.2c.8 1.6.3 3.6-1.1 4.4-.5.3-1.1.3-1.6.3zM14.967 86.298l-10.41 6.169-4.486-7.571 10.41-6.169z"/><path fill="#FFF" d="M35.759 73.925l-10.41 6.169-4.486-7.571 10.41-6.169zm-6.013 13.81l-10.41 6.168-4.486-7.57 10.41-6.169z"/><path fill="none" d="M25.335 80.006l-10.41 6.169-4.486-7.571 10.41-6.169z"/><path fill="#FFF" d="M23.98 101.353l-10.41 6.169-4.487-7.57 10.41-6.17zM44.771 88.98l-10.41 6.169-4.485-7.57 10.41-6.17z"/><path fill="none" d="M34.297 94.975l-10.41 6.169-4.486-7.571 10.41-6.169zM19.272 93.73l-10.41 6.169-4.486-7.571 10.41-6.169z"/><path fill="none" d="M40.115 81.443l-10.41 6.169-4.486-7.571 10.41-6.169z"/><path fill="#FFF" d="M39 120.9c-.5 0-1.1-.3-1.6-.5-1.6-.8-2.2-2.7-1.1-4.4l32.9-57c.8-1.6 2.7-2.2 4.4-1.1 1.6.8 2.2 2.7 1.1 4.4l-32.9 57c-.6 1.1-1.7 1.6-2.8 1.6zm53.56-42.387l10.41 6.169-4.486 7.57-10.41-6.168z"/><path fill="#FFF" d="M71.853 66.246l10.41 6.169-4.486 7.57-10.41-6.168zm6.017 13.782l10.409 6.168-4.486 7.571-10.41-6.168z"/><path fill="none" d="M82.189 72.45l10.41 6.168-4.487 7.57-10.41-6.168z"/><path fill="#FFF" d="M83.66 93.722l10.41 6.169-4.487 7.57-10.41-6.168zM62.953 81.455l10.41 6.169-4.487 7.57-10.41-6.168z"/><path fill="none" d="M73.288 87.658l10.41 6.169-4.487 7.57-10.41-6.168zm14.916-1.428l10.41 6.17-4.486 7.57-10.41-6.169z"/><path fill="none" d="M67.446 74.05l10.41 6.169-4.486 7.57-10.41-6.168z"/></svg>