<?xml version="1.0" encoding="utf-8"?>
<!-- Generator: Adobe Illustrator 18.1.0, SVG Export Plug-In . SVG Version: 6.00 Build 0)  -->
<svg version="1.1" id="Слой_1" xmlns="http://www.w3.org/2000/svg" xmlns:xlink="http://www.w3.org/1999/xlink" x="0px" y="0px"
	 viewBox="0 0 82.9 85.4" enable-background="new 0 0 82.9 85.4" xml:space="preserve">
<g>
	<path fill="#767C8F" d="M0,24.7c0,0,2.3-12.8,26.7-17.9s37.7,5.4,39.4,5.2c1.7-0.2-7.8,7-9.1,5.8C55.6,16.6,17.6,9.5,0,24.7z"/>
	<path fill="#9198AA" d="M8.2,38c0,0,1.5-9.8,17.9-13.6s25.6,4.5,26.7,4.4c1.1-0.1-5.2,5.3-6.1,4.4C45.8,32.4,20,26.5,8.2,38z"/>
	<path fill="#767C8F" d="M15.2,48.5c0,0,1.2-7.9,14.3-10.8c13.1-3,20.5,3.6,21.4,3.5c0.9-0.1-4.2,3.6-4.9,3.5
		C45.1,44.6,24.7,39.3,15.2,48.5z"/>
	<path fill="#A6ACBA" d="M24,62.5c0,0-0.2-7.7,9.4-11.7s16.1,1.6,16.8,1.5c0.7-0.2-2.7,3.9-3.2,3.8C46.2,56,29.9,52.8,24,62.5z"/>
	<path fill="#9198AA" d="M35,70.7c-0.5,0.6-2.3-2.9,3.7-8.2c4.6-4.2,10.3-3.6,12.9-2.6c0.5,0.2,2.5,1.7,1.4,3.5
		C52.7,64,39.4,63.9,35,70.7z"/>
	<path fill="#A6ACBA" d="M44,74.2c-0.3,0.3-1.3-1.7,2.2-4.8c2.7-2.5,6.1-2.1,7.6-1.5c0.3,0.1,1.4,1,0.8,2.1
		C54.5,70.2,46.6,70.2,44,74.2z"/>
	<path fill="#9DACB2" d="M44,84.2c-0.2,0.3-1.4-1.3,1.1-4.6c2-2.6,4.9-2.9,6.4-2.7c0.3,0.1,1.4,0.6,1.1,1.7
		C52.5,78.9,45.6,80.2,44,84.2z"/>
	<path fill="#A6ACBA" d="M55.3,25c0,0-3.6-9-23.1-9s-28.4,9.9-29.7,10c-1.3,0.1,7,3.9,7.8,2.8C11.3,27.8,39.6,16.6,55.3,25z"/>
	<path fill="#A6ACBA" d="M46.6,37.8c0,0-2.4-6-15.5-6C18,31.8,10.6,36.9,9.7,38C9.4,38.4,11,43,13.9,43S29.2,31.4,46.6,37.8z"/>
	<path fill="#9198AA" d="M48.1,48.9c0,0-2-5.1-13.1-5.1s-17.4,4.4-18.2,5.3c-0.2,0.3-2.2,6.8,5,6.8C24.2,55.9,33.4,44.8,48.1,48.9z"
		/>
	<path fill="#767C8F" d="M50.2,58.4c0,0-3.8-3.2-11.9-1.8c-8.1,1.4-11.4,4-11.9,4.7c-0.2,0.2-0.1,5.8,5.2,4.9
		C33.3,65.9,39,57.5,50.2,58.4z"/>
	<path fill="#767C8F" d="M53.2,65.2c0,0-3.1-1.8-8.5,0.3c-5.3,2.1-7.2,4.5-7.4,5.1c-0.1,0.2,0.9,4.3,4.3,2.9
		C42.8,73.1,45.4,66.1,53.2,65.2z"/>
	<path fill="#9198AA" d="M52.4,73.1c0,0-2.4-1.2-6.3,0.5s-5.2,3.6-5.4,4.1c0,0.2,0.8,3.1,3.3,2C45,79.3,46.7,74,52.4,73.1z"/>
	<path fill="#9198AA" d="M20.5,3.1c0,0,34.3-9.5,48.7,4.9c3.2,3.8-2.9,2.2-2.9,2.2S53.4,0.4,20.5,3.1z"/>
	<polygon fill="#D7E0E9" points="53.2,74.5 62.8,63.6 70.3,74 68.8,85.2 51.9,85.4 	"/>
	<polygon fill="#767C8F" points="51.9,85.4 30.2,85.4 31.3,74.5 53,74.5 	"/>
	<polygon fill="#D7E0E9" points="41.6,63.6 48.3,74.5 31.3,74.5 	"/>
	<polygon fill="#9198AA" points="61.7,69.4 63.7,69.4 63.2,73.1 60.7,73.1 61.3,69.4 	"/>
	<polygon fill="#9198AA" points="57.6,75.5 60.7,75.5 59.8,83.6 56.7,83.6 	"/>
	<polygon fill="#FFFFFF" points="47.1,75.8 50.3,75.8 49.3,83.9 46.3,83.9 	"/>
	<polygon fill="#FFFFFF" points="40.6,75.8 43.8,75.8 42.8,83.9 39.8,83.9 	"/>
	<polygon fill="#FFFFFF" points="33.9,75.8 37.1,75.8 36.1,83.9 33.1,83.9 	"/>
	<polygon fill="#9198AA" points="63.6,75.5 66.8,75.5 65.8,83.6 62.8,83.6 	"/>
	<polygon fill="#767C8F" points="76.8,52.5 79.2,54.2 81.8,66.3 66.8,59.4 	"/>
	<polygon fill="#D7E0E9" points="46.3,51 58.7,43.6 79.5,52.5 66.3,60.1 	"/>
	<polygon fill="#9198AA" points="81.8,66.3 82.9,66.3 79.5,52.5 66.3,60.1 46.3,51 46.3,52.5 66.4,61.7 78.8,54.4 	"/>
</g>
</svg>
