<?xml version="1.0" encoding="utf-8"?>
<!-- Generator: Adobe Illustrator 18.1.0, SVG Export Plug-In . SVG Version: 6.00 Build 0)  -->
<svg version="1.1" id="Слой_1" xmlns="http://www.w3.org/2000/svg" xmlns:xlink="http://www.w3.org/1999/xlink" x="0px" y="0px"
	 viewBox="51.7 24.5 67.7 83.8" enable-background="new 51.7 24.5 67.7 83.8" xml:space="preserve">
<g>
	<path fill="#B0BAC1" d="M83.8,29.7c0,0-1.2,1.6-1.2,2.5c0,1.4,0.8,1.8,1.8,1.8c1,0-1.2,1.8-1.2,1.8l0.2,2l4.5-0.6l0.4-1.6l-0.8-1
		L87,32.8v-2.9L83.8,29.7z"/>
	<path fill="#767C8F" d="M87.8,33c0,0,1.8-0.8,2.4-2.4c0.6-1.6,1.2-3.1,0-3.7c-1.2-0.8-4.1-3.1-6.1-2.2c-2,1-2.4,2.4-2.2,3.7
		c0.2,0.6,0.2,1.2,1.6,1.2c1.4,0,3.5,0.2,3.5,0.2v2.9C87,32.8,87.4,33.4,87.8,33z"/>
	<path fill="#767C8F" d="M93.7,62c0,0,3.5,17.1,3.5,19c0,2,1,19,1,22.6h-3.3L84,68.5l-2.9,35.3h-3.3c0,0-3.3-23.9-3.3-25.9
		c0-2,0-17.5,0-17.5S77.6,66.7,93.7,62z"/>
	<path fill="#9198AA" d="M93.7,62c0,0,3.5,18.8,3.5,20.8c0,0-1.6,1-2.2,1.6l-4.7,4.7L84,68.7l-1.6,18.2l-2-1.4
		c-1.6-1.2-2.9-2.7-3.3-4.7c-0.2-0.8-0.4-1.4-0.4-2c0-2,2.2-15.1,2.2-15.1S82.7,65,93.7,62z"/>
	<path fill="#D7E0E9" d="M88.2,35.2c3.1,0,11.4,7.5,12.7,18.4c2,14.5,1.2,18,1.2,18l-3.3,1.2l-4.9-16.1V62c0,0-6.5,7.1-19.2,0.8
		c-0.2-1.4-0.4-9.4-0.4-9.4l-1.8,5.7l-2.9,12.7L66,71.3V63c0-4.5,0.6-9,1.8-13.3c1.6-5.7,7.6-13.1,10.4-13.5c4.5-0.8,5.1-1,5.1-1
		S85.2,38.3,88.2,35.2z"/>
	<path fill="#A7ABB5" d="M80.1,62.6c3.1,1.8,9.2,1.4,11.8-1.2c0.8-0.8-0.4-4.7,1.6-9.8l5.3,21.2l-4.9-16.1V62c0,0-6.5,7.1-19.2,0.8
		c-0.2-1.4-0.4-9.4-0.4-9.4l-1.8,5.7l-1.2,5.3c0-4.5-2.2-10.4,5.1-19.4C74.2,52.4,75.2,59.7,80.1,62.6z"/>
	<path fill="#767C8F" d="M96,41.2c0.2,0.2,0.4,0.6,0.6,0.8c0.2,0.2,0.4,0.6,0.4,0.8c12.6,1.2,20.8,3.9,20.8,6.7
		c0,3.3-13.3,7.1-32.2,7.1s-32.4-3.7-32.4-7.1c0-2.4,6.9-5.1,18-6.3c0-0.2,0.2-0.4,0.4-0.4c0.2-0.2,0.2-0.4,0.4-0.6
		c0-0.2,0.2-0.4,0.2-0.4c-11.4,1.2-20.6,3.9-20.6,7.8c0,5.5,17.5,8.6,33.7,8.6s33.7-2.9,33.7-8.6C119.1,45.2,108.6,42.2,96,41.2z"/>
	<path fill="#9198AA" d="M101.9,72.2l0.8,2.7c0,0.2,0,0.4,0,0.6l-0.6,1.8c-0.2,0.4-0.6,0.4-0.8,0.2l0,0l-0.4-2.7
		c0,0-0.6-0.2-0.8,1.6c-0.4,0.8-0.6-1.6-0.6-1.6l0.2-1.4c0-0.4,0.4-0.8,0.8-1l0.8-0.2C101.7,71.8,101.9,72,101.9,72.2z"/>
	<path fill="#B0BAC1" d="M66.4,71.6l-0.6,2.7c0,0.2,0,0.4,0,0.6l0.8,1.8c0.2,0.4,0.6,0.4,1,0.2l0,0l0.2-2.9c0,0,0.6-0.2,1,1.4
		c0.6,0.8,0.4-1.6,0.4-1.6l-0.4-1.4c-0.2-0.4-0.6-0.8-1-1L67,71.3C66.8,71.3,66.4,71.4,66.4,71.6z"/>
	<path fill="#FDFFFF" d="M83.7,32.4c0,0,0.2,0.4,0.6,0.4s1-0.2,1-0.2S85,33,84.6,33.2c-0.4,0.2-0.8,0-1-0.2
		C83.7,32.6,83.7,32.4,83.7,32.4z"/>
	<path fill="#9198AA" d="M95.4,105.6l1.2,0.4c0.4,0.2,0.6,0,1,0c0.4-0.2,1-0.6,1.2-0.6c0.2,0,5.7,1,5.9,1c0.4,0.8-0.2,1.4-0.2,1.4
		h-10c-0.4,0-0.6-0.4-0.4-0.6l0.8-1.6C95,105.6,95.2,105.6,95.4,105.6z"/>
	<path fill="#9198AA" d="M80.9,105.6c0.2-0.2,0.6-0.2,0.8,0c0.6,0.4,1,1.6,1,2c0,0.4-1.6,0.8-2.4,0.8s-5.5-0.2-5.9-0.6
		c-0.4-0.4,2.9-2,3.1-1.8c0.2,0.2,0.2,0.4,0.4,0.4c0.6,0.2,1.8,0.4,2.2,0C80.5,106,80.7,105.8,80.9,105.6z"/>
	<g>
		<g>
			<path fill="#767C8F" d="M100.9,53.6c0,0.2,0,0.2,0,0.4c0.2,0.2,0.2,0.6,0.2,0.8c0,0.2,0,0.2,0,0.4c10.2,1.4,16.7,3.9,16.7,6.3
				c0,3.3-13.3,7.1-32.2,7.1s-32.4-3.9-32.4-7.3c0-2.2,5.1-4.3,13.5-5.7c0-0.2,0-0.4,0-0.8c0-0.2,0-0.2,0-0.4c0-0.2,0-0.4,0-0.4
				c-8.6,1.4-15.1,3.9-15.1,7.3c0,5.5,17.5,8.6,33.7,8.6s33.7-2.9,33.7-8.6C119.1,57.5,111.1,54.8,100.9,53.6z"/>
		</g>
		<g>
			<path fill="#767C8F" d="M100.9,53.6c0,0.2,0,0.2,0,0.4c0.2,0.2,0.2,0.6,0.2,0.8c0,0.2,0,0.2,0,0.4c10.2,1.4,16.7,3.9,16.7,6.3
				c0,3.3-13.3,7.1-32.2,7.1s-32.4-3.9-32.4-7.3c0-2.2,5.1-4.3,13.5-5.7c0-0.2,0-0.4,0-0.8c0-0.2,0-0.2,0-0.4c0-0.2,0-0.4,0-0.4
				c-8.6,1.4-15.1,3.9-15.1,7.3c0,5.5,17.5,8.6,33.7,8.6s33.7-2.9,33.7-8.6C119.1,57.5,111.1,54.8,100.9,53.6z"/>
		</g>
	</g>
	<g>
		<path fill="#767C8F" d="M74.6,65.8c0-0.2-0.2-0.6,0-1c-1.4,0.2-2.5,0.2-3.7,0.4c0,0.2-0.2,0.4-0.2,0.6c0,0.2,0,0.2,0,0.4
			c0,0.2,0,0.4-0.2,0.6c1.4-0.2,2.7-0.4,4.1-0.4C74.6,66.2,74.6,66,74.6,65.8z"/>
		<path fill="#767C8F" d="M96.6,66.2c0-0.2,0-0.2-0.2-0.4c-0.2-0.2-0.4-0.6-0.4-1c-0.8,0-1.4-0.2-2.2-0.2c0,0.2,0,0.2,0,0.4
			c0.2,0.2,0.2,0.6,0,1v0.2c0.8,0,1.6,0.2,2.4,0.2C96.8,66.3,96.6,66.2,96.6,66.2z"/>
		<path fill="#767C8F" d="M102.1,65.6v0.2c0,0.2,0,0.2,0,0.4c0,0.2,0,0.4,0,0.6c0,0.2,0,0.2,0,0.4c9.6,1.4,15.5,3.7,15.5,6.1
			c0,3.3-13.3,7.1-32.2,7.1S53.3,76.3,53.3,73c0-2,4.9-4.1,12.7-5.7v-0.2c-0.2-0.4-0.2-0.8-0.2-1.2c-8.2,1.4-14.1,3.7-14.1,7.1
			c0,5.5,17.5,8.6,33.7,8.6s33.7-2.9,33.7-8.6C119.1,69.5,111.9,66.9,102.1,65.6z"/>
	</g>
	<g>
		<path fill="#767C8F" d="M96.4,76.7c0,0.2,0,0.2,0,0.4s0,0.2,0,0.4c0.2,0.2,0.2,0.6,0.2,0.8c12.7,1.2,21,3.9,21,6.7
			c0,3.3-13.3,7.1-32.2,7.1s-32.2-3.9-32.2-7.3c0-2.7,8.4-5.7,21.4-6.7c0,0,0,0,0-0.2c0-0.4,0-0.8,0-1.2v-0.2
			c-12.4,1-22.7,3.7-22.7,8.2c0,5.5,17.5,8.6,33.7,8.6s33.7-2.9,33.7-8.6C119.1,80.5,108.8,77.7,96.4,76.7z"/>
	</g>
</g>
</svg>
