<?xml version="1.0" encoding="utf-8"?>
<!-- Generator: Adobe Illustrator 18.1.0, SVG Export Plug-In . SVG Version: 6.00 Build 0)  -->
<svg version="1.1" id="Слой_1" xmlns="http://www.w3.org/2000/svg" xmlns:xlink="http://www.w3.org/1999/xlink" x="0px" y="0px"
	 viewBox="0 56.7 103.4 60.9" enable-background="new 0 56.7 103.4 60.9" xml:space="preserve">
<g>
	<polygon fill="#D7E0E9" points="102.1,92.7 102.1,81 97.9,83.1 95.8,77 90.7,80.8 88.5,75.3 84,80.2 80.1,74.9 75.4,80.4 
		70.7,74.7 65.4,84.7 87,84.9 	"/>
	<path fill="#767C8F" d="M62.5,87.4c0,0,12.7,0,21.4,0s15.3,2.9,19.4,11.8v-7.1c0,0,0.4-9.6-18.6-10.2c-19-0.6-21.4,0.2-21.4,0.2
		L62.5,87.4z"/>
	<polygon fill="#D7E0E9" points="42.3,105.8 47,101.1 53.7,108.2 60.3,101.5 67.2,107.2 72.9,101.1 79.9,106.6 84.6,99.2 
		91.3,104.5 93.2,97.6 98.3,99.2 100.3,92.1 102.1,93.9 102.1,103.5 95,109.4 77.4,113.3 44.5,112.7 38.8,112.3 	"/>
	<path fill="#9198AA" d="M36.6,111.9c0,0,44.1,0,47.2,0c3.1,0,15.3-4.5,19.4-13.5v7.1c0,0-6.9,10.4-19.2,10.4c-5.7,0-47,0-47,0
		L36.6,111.9z"/>
	<polygon fill="#D7E0E9" points="0.6,75.1 2.9,63.3 9.2,64.1 11.2,58.4 16.1,61.8 19.4,56.7 23.7,62 28.4,56.7 30.8,62.7 36.6,59 
		38.8,65.1 44.9,62.7 45.6,70 53.3,68.8 56.4,78 46,76.8 30.8,70.8 18.6,69.4 9.6,73.1 	"/>
	<path fill="#767C8F" d="M57,77.6c0,0-21.2-11.8-23.3-12.5c-2.7-1.4-16.1-4.5-27.6,2.5C0.2,71.2,0,78,0,78s6.5,8,5.5,3.7
		s2.5-9.8,7.8-11c3.1-1.4,11.8-2,16.5,0.4c6.5,3.1,23.5,12.7,23.5,12.7L57,77.6z"/>
	<path fill="#D7E0E9" d="M35.1,103.3c-0.4-0.4-1.8-5.7-1.8-5.7l-8,2.9v-7.8l-7.6,0.6l-0.2-5.9l-6.9,0.2l1.4-6.3H5.7l-1.4-9.8
		l-4.1,4.1v11l21.4,19.8l7.6,3.3L35.1,103.3z"/>
	<path fill="#9198AA" d="M1,78c0,0,0,5.1,0,10.6c0,7.8,28.8,25.7,28.8,25.7l2.5-6.1C32.1,108.2,1,88.2,1,78z"/>
	<circle fill="#9198AA" cx="59.9" cy="82.9" r="6.5"/>
	<circle fill="#A7ABB5" cx="58.2" cy="84.3" r="6.5"/>
	<path fill="#767C8F" d="M55.2,84.3c0-1.6,1.4-3.1,3.1-3.1s3.1,1.4,3.1,3.1c0,0.4,0,0.8-0.2,1.2c-0.4,1-1.4,1.8-2.9,1.8
		C56.6,87.4,55.2,85.9,55.2,84.3z"/>
	<polygon fill="#767C8F" points="41.5,105.6 37,103.1 56.4,81.9 61.1,85.5 42.3,105.8 	"/>
	<circle fill="#9198AA" cx="37" cy="109.4" r="6.5"/>
	<circle fill="#A7ABB5" cx="35.3" cy="111.1" r="6.5"/>
</g>
</svg>
