<?xml version="1.0" encoding="utf-8"?>
<!-- Generator: Adobe Illustrator 18.1.0, SVG Export Plug-In . SVG Version: 6.00 Build 0)  -->
<svg version="1.1" id="Слой_1" xmlns="http://www.w3.org/2000/svg" xmlns:xlink="http://www.w3.org/1999/xlink" x="0px" y="0px"
	 viewBox="55.8 22.3 64.9 89.5" enable-background="new 55.8 22.3 64.9 89.5" xml:space="preserve">
<g>
	<g>
		<rect x="59.8" y="32.3" fill="#767C8F" width="55.3" height="75.1"/>
		<path fill="#767C8F" d="M112.4,35.2v69.7H64V35.2H112.4 M112.8,28.3H63.6c-4.2,0-7.7,3.5-7.7,7.7v68c0,4.2,3.5,7.7,7.7,7.7H113
			c4.2,0,7.7-3.5,7.7-7.7V36.2C120.7,31.9,117.2,28.3,112.8,28.3L112.8,28.3z"/>
		<path fill="#767C8F" d="M102.8,42.3H74.4c-0.6,0-1.3-0.6-1.3-1.3V29.8c0-0.6,0.6-1.3,1.3-1.3h28.4c0.6,0,1.3,0.6,1.3,1.3V41
			C104,41.7,103.4,42.3,102.8,42.3z"/>
		<circle fill="#767C8F" cx="88.6" cy="29.8" r="7.5"/>
		<g>
			<circle fill="#767C8F" cx="88.6" cy="29.8" r="2.5"/>
		</g>
		<g>
			<path fill="#767C8F" d="M80.9,45.4v3.3c2.1,0.2,4,1,5.4,2.7L84,54.4c-0.4-0.6-1.7-1.9-3.8-1.9s-3.1,1.3-3.1,2.5
				c0,1.7,2.1,2.3,3.8,3.1c1,0.4,2.9,1.3,4.2,2.3c1,0.8,1.9,2.3,1.9,4.4c0,3.5-2.3,6.7-6.3,7.3v3.5h-2.1v-3.5
				c-2.5-0.2-4.4-1-5.4-2.1c-1-0.8-1.7-1.5-2.1-2.1l2.7-2.7c0.8,1.5,2.7,3.1,5.2,3.1c2.1,0,3.5-1,3.5-3.1c0-1.3-0.4-2.1-3.3-3.3
				c-1.9-0.8-3.5-1.5-5-2.9c-0.4-0.6-1.5-1.9-1.5-4.2c0-0.8,0.2-4,3.5-5.4c0.6-0.4,1.5-0.6,2.3-0.6v-3.3
				C78.6,45.4,80.9,45.4,80.9,45.4z"/>
		</g>
		<g>
			<rect x="91.7" y="51.9" fill="#767C8F" width="13.8" height="3.1"/>
		</g>
		<g>
			<rect x="92.3" y="57.9" fill="#767C8F" width="7.7" height="3.1"/>
		</g>
		<g>
			<rect x="91.7" y="64" fill="#767C8F" width="13.8" height="3.1"/>
		</g>
		<g>
			<rect x="91.7" y="69.8" fill="#767C8F" width="7.7" height="3.1"/>
		</g>
		<g>
			<rect x="76.5" y="85.5" fill="#767C8F" width="3.1" height="9.4"/>
		</g>
		<g>
			<rect x="82.3" y="87.1" fill="#767C8F" width="3.1" height="7.7"/>
		</g>
		<g>
			<rect x="88.8" y="82.3" fill="#767C8F" width="3.1" height="12.5"/>
		</g>
		<g>
			<rect x="94.6" y="80.7" fill="#767C8F" width="3.1" height="14.2"/>
		</g>
		<g>
			<rect x="100.5" y="79.2" fill="#767C8F" width="3.1" height="15.6"/>
		</g>
	</g>
	<g>
		<rect x="59.8" y="32.3" fill="#FFFFFF" width="55.3" height="75.1"/>
		<path fill="#767C8F" d="M112.4,35.2v69.7H64V35.2H112.4 M112.8,28.3H63.6c-4.2,0-7.7,3.5-7.7,7.7v68c0,4.2,3.5,7.7,7.7,7.7H113
			c4.2,0,7.7-3.5,7.7-7.7V36.2C120.7,31.9,117.2,28.3,112.8,28.3L112.8,28.3z"/>
		<path fill="#9198AA" d="M102.8,42.3H74.4c-0.6,0-1.3-0.6-1.3-1.3V29.8c0-0.6,0.6-1.3,1.3-1.3h28.4c0.6,0,1.3,0.6,1.3,1.3V41
			C104,41.7,103.4,42.3,102.8,42.3z"/>
		<circle fill="#9198AA" cx="88.6" cy="29.8" r="7.5"/>
		<g>
			<circle fill="#FFFFFF" cx="88.6" cy="29.8" r="2.5"/>
		</g>
		<g>
			<path fill="#767C8F" d="M80.9,45.4v3.3c2.1,0.2,4,1,5.4,2.7L84,54.4c-0.4-0.6-1.7-1.9-3.8-1.9s-3.1,1.3-3.1,2.5
				c0,1.7,2.1,2.3,3.8,3.1c1,0.4,2.9,1.3,4.2,2.3c1,0.8,1.9,2.3,1.9,4.4c0,3.5-2.3,6.7-6.3,7.3v3.5h-2.1v-3.5
				c-2.5-0.2-4.4-1-5.4-2.1c-1-0.8-1.7-1.5-2.1-2.1l2.7-2.7c0.8,1.5,2.7,3.1,5.2,3.1c2.1,0,3.5-1,3.5-3.1c0-1.3-0.4-2.1-3.3-3.3
				c-1.9-0.8-3.5-1.5-5-2.9c-0.4-0.6-1.5-1.9-1.5-4.2c0-0.8,0.2-4,3.5-5.4c0.6-0.4,1.5-0.6,2.3-0.6v-3.3
				C78.6,45.4,80.9,45.4,80.9,45.4z"/>
		</g>
		<g>
			<rect x="91.7" y="51.9" fill="#9198AA" width="13.8" height="3.1"/>
		</g>
		<g>
			<rect x="92.3" y="57.9" fill="#9198AA" width="7.7" height="3.1"/>
		</g>
		<g>
			<rect x="91.7" y="64" fill="#9198AA" width="13.8" height="3.1"/>
		</g>
		<g>
			<rect x="91.7" y="69.8" fill="#9198AA" width="7.7" height="3.1"/>
		</g>
		<g>
			<rect x="76.5" y="85.5" fill="#9198AA" width="3.1" height="9.4"/>
		</g>
		<g>
			<rect x="82.3" y="87.1" fill="#9198AA" width="3.1" height="7.7"/>
		</g>
		<g>
			<rect x="88.8" y="82.3" fill="#9198AA" width="3.1" height="12.5"/>
		</g>
		<g>
			<rect x="94.6" y="80.7" fill="#9198AA" width="3.1" height="14.2"/>
		</g>
		<g>
			<rect x="100.5" y="79.2" fill="#9198AA" width="3.1" height="15.6"/>
		</g>
	</g>
</g>
</svg>
