<?xml version="1.0" encoding="utf-8"?>
<!-- Generator: Adobe Illustrator 18.1.0, SVG Export Plug-In . SVG Version: 6.00 Build 0)  -->
<svg version="1.1" id="Слой_1" xmlns="http://www.w3.org/2000/svg" xmlns:xlink="http://www.w3.org/1999/xlink" x="0px" y="0px"
	 viewBox="52.3 24.7 69 87.8" enable-background="new 52.3 24.7 69 87.8" xml:space="preserve">
<g>
	<g>
		<g>
			<g>
				<g>
					<line fill="none" x1="98.7" y1="29.2" x2="98.7" y2="45.7"/>
					<path fill="#D7E0E9" d="M98.7,46.5c-0.4,0-0.8-0.4-0.8-0.6V29.2c0-0.4,0.4-0.6,0.8-0.6c0.4,0,0.8,0.4,0.8,0.6v16.4
						C99.5,46.1,99.1,46.5,98.7,46.5z"/>
				</g>
				<g>
					<path fill="#D7E0E9" d="M98.7,36.5l-6.2-5c-0.4-0.2-0.4-0.6,0-1c0.2-0.2,0.8-0.4,1,0l5.4,4.2l5.6-4.2c0.4-0.2,0.8-0.2,1,0.2
						s0.2,0.8-0.2,1L98.7,36.5z"/>
				</g>
				<g>
					<path fill="#D7E0E9" d="M98.7,41.5l-6.2-5c-0.4-0.2-0.4-0.6,0-1c0.2-0.2,0.8-0.4,1,0l5.4,4.2l5.6-4.2c0.4-0.2,0.8-0.2,1,0.2
						s0.2,0.8-0.2,1L98.7,41.5z"/>
				</g>
				<g>
					<path fill="#D7E0E9" d="M98.9,39.2"/>
				</g>
			</g>
			<g>
				<g>
					<line fill="none" x1="98.7" y1="29.2" x2="98.7" y2="45.7"/>
					<path fill="#D7E0E9" d="M98.7,46.5c-0.4,0-0.8-0.4-0.8-0.6V29.2c0-0.4,0.4-0.6,0.8-0.6c0.4,0,0.8,0.4,0.8,0.6v16.4
						C99.5,46.1,99.1,46.5,98.7,46.5z"/>
				</g>
				<g>
					<path fill="#D7E0E9" d="M98.7,36.5l-6.2-5c-0.4-0.2-0.4-0.6,0-1c0.2-0.2,0.8-0.4,1,0l5.4,4.2l5.6-4.2c0.4-0.2,0.8-0.2,1,0.2
						s0.2,0.8-0.2,1L98.7,36.5z"/>
				</g>
				<g>
					<path fill="#D7E0E9" d="M98.7,41.5l-6.2-5c-0.4-0.2-0.4-0.6,0-1c0.2-0.2,0.8-0.4,1,0l5.4,4.2l5.6-4.2c0.4-0.2,0.8-0.2,1,0.2
						s0.2,0.8-0.2,1L98.7,41.5z"/>
				</g>
				<g>
					<path fill="none" stroke="#000000" stroke-width="5" stroke-linecap="round" stroke-miterlimit="10" d="M98.9,39.2"/>
				</g>
			</g>
		</g>
		<g>
			<g>
				<g>
					<line fill="none" x1="98.7" y1="62.7" x2="98.7" y2="46.5"/>
					<path fill="#D7E0E9" d="M98.7,63.5c-0.4,0-0.8-0.4-0.8-0.6V46.5c0-0.4,0.4-0.6,0.8-0.6c0.4,0,0.8,0.4,0.8,0.6v16.4
						C99.5,63.1,99.1,63.5,98.7,63.5z"/>
				</g>
				<g>
					<path fill="#D7E0E9" d="M104.7,61.7c-0.2,0-0.4,0-0.4-0.2l-5.6-4.2l-5.4,4.2c-0.4,0.2-0.8,0.2-1,0c-0.2-0.2-0.2-0.8,0-1l6.2-5
						l6.7,5c0.4,0.2,0.4,0.6,0.2,1C105.3,61.7,104.9,61.7,104.7,61.7z"/>
				</g>
				<g>
					<path fill="#D7E0E9" d="M104.7,56.9c-0.2,0-0.4,0-0.4-0.2l-5.6-4.2l-5.4,4.2c-0.4,0.2-0.8,0.2-1,0c-0.2-0.2-0.2-0.8,0-1l6.2-5
						l6.7,5c0.4,0.2,0.4,0.6,0.2,1C105.3,56.7,104.9,56.9,104.7,56.9z"/>
				</g>
				<g>
					<path fill="#D7E0E9" d="M98.9,52.9"/>
				</g>
			</g>
			<g>
				<g>
					<line fill="none" x1="98.7" y1="62.7" x2="98.7" y2="46.5"/>
					<path fill="#D7E0E9" d="M98.7,63.5c-0.4,0-0.8-0.4-0.8-0.6V46.5c0-0.4,0.4-0.6,0.8-0.6c0.4,0,0.8,0.4,0.8,0.6v16.4
						C99.5,63.1,99.1,63.5,98.7,63.5z"/>
				</g>
				<g>
					<path fill="#D7E0E9" d="M104.7,61.7c-0.2,0-0.4,0-0.4-0.2l-5.6-4.2l-5.4,4.2c-0.4,0.2-0.8,0.2-1,0c-0.2-0.2-0.2-0.8,0-1l6.2-5
						l6.7,5c0.4,0.2,0.4,0.6,0.2,1C105.3,61.7,104.9,61.7,104.7,61.7z"/>
				</g>
				<g>
					<path fill="#D7E0E9" d="M104.7,56.9c-0.2,0-0.4,0-0.4-0.2l-5.6-4.2l-5.4,4.2c-0.4,0.2-0.8,0.2-1,0c-0.2-0.2-0.2-0.8,0-1l6.2-5
						l6.7,5c0.4,0.2,0.4,0.6,0.2,1C105.3,56.7,104.9,56.9,104.7,56.9z"/>
				</g>
				<g>
					<path fill="none" stroke="#000000" stroke-width="5" stroke-linecap="round" stroke-miterlimit="10" d="M98.9,52.9"/>
				</g>
			</g>
		</g>
		<g>
			<g>
				<g>
					<line fill="none" x1="83.3" y1="38.2" x2="98.4" y2="46.1"/>
					<path fill="#D7E0E9" d="M98.4,46.7c-0.2,0-0.2,0-0.4,0l-15-7.9c-0.4-0.2-0.4-0.6-0.2-1s0.6-0.4,1-0.2l15,7.9
						c0.4,0.2,0.4,0.6,0.2,1C98.9,46.5,98.7,46.7,98.4,46.7z"/>
				</g>
				<g>
					<line fill="none" x1="83.3" y1="38.2" x2="98.4" y2="46.1"/>
					<path fill="#D7E0E9" d="M98.4,46.7c-0.2,0-0.2,0-0.4,0l-15-7.9c-0.4-0.2-0.4-0.6-0.2-1s0.6-0.4,1-0.2l15,7.9
						c0.4,0.2,0.4,0.6,0.2,1C98.9,46.5,98.7,46.7,98.4,46.7z"/>
				</g>
			</g>
			<g>
				<path fill="#D7E0E9" d="M82.2,44.6c-0.2,0-0.6-0.2-0.6-0.4c-0.2-0.4,0-0.8,0.4-1l6.4-2.5L87.2,34c0-0.4,0.2-0.8,0.6-0.8
					s0.8,0.2,0.8,0.6l1.5,7.9l-7.5,2.9C82.4,44.6,82.4,44.6,82.2,44.6z"/>
			</g>
			<g>
				<g>
					<path fill="#D7E0E9" d="M86.8,46.9c-0.2,0-0.6-0.2-0.6-0.4c-0.2-0.4,0-0.8,0.4-1L93,43l-1.2-6.7c0-0.4,0.2-0.8,0.6-0.8
						s0.8,0.2,0.8,0.6l1.5,7.9l-7.5,2.9C87,46.9,86.8,46.9,86.8,46.9z"/>
				</g>
				<g>
					<path fill="#D7E0E9" d="M86.8,46.9c-0.2,0-0.6-0.2-0.6-0.4c-0.2-0.4,0-0.8,0.4-1L93,43l-1.2-6.7c0-0.4,0.2-0.8,0.6-0.8
						s0.8,0.2,0.8,0.6l1.5,7.9l-7.5,2.9C87,46.9,86.8,46.9,86.8,46.9z"/>
				</g>
			</g>
			<g>
				<g>
					<path fill="#D7E0E9" d="M92.6,42.7"/>
				</g>
				<g>
					<path fill="none" stroke="#000000" stroke-width="5" stroke-linecap="round" stroke-miterlimit="10" d="M92.6,42.7"/>
				</g>
			</g>
		</g>
		<g>
			<g>
				<g>
					<line fill="none" x1="114.2" y1="54.2" x2="99.1" y2="46.3"/>
					<path fill="#D7E0E9" d="M114.2,55c-0.2,0-0.2,0-0.4,0l-15-7.9c-0.4-0.4-0.6-0.8-0.4-1c0.2-0.4,0.6-0.4,1-0.2l15,7.9
						c0.4,0.2,0.4,0.6,0.2,1C114.7,54.8,114.5,55,114.2,55z"/>
				</g>
				<g>
					<path fill="#D7E0E9" d="M109.7,59c-0.4,0-0.6-0.2-0.8-0.6l-1.5-7.7l7.7-3.1c0.4-0.2,0.8,0,1,0.4c0.2,0.4,0,0.8-0.4,1l-6.7,2.7
						l1.2,6.4C110.5,58.3,110.3,58.8,109.7,59C109.9,59,109.7,59,109.7,59z"/>
				</g>
				<g>
					<path fill="#D7E0E9" d="M105.3,56.5c-0.4,0-0.6-0.2-0.8-0.6l-1.5-7.7l7.7-3.1c0.4-0.2,0.8,0,1,0.4c0.2,0.4,0,0.8-0.4,1
						l-6.7,2.7l1.2,6.4C106.1,56.1,105.7,56.5,105.3,56.5L105.3,56.5z"/>
				</g>
				<g>
					<path fill="#D7E0E9" d="M105.1,49.4"/>
				</g>
			</g>
			<g>
				<g>
					<line fill="none" x1="114.2" y1="54.2" x2="99.1" y2="46.3"/>
					<path fill="#D7E0E9" d="M114.2,55c-0.2,0-0.2,0-0.4,0l-15-7.9c-0.4-0.4-0.6-0.8-0.4-1c0.2-0.4,0.6-0.4,1-0.2l15,7.9
						c0.4,0.2,0.4,0.6,0.2,1C114.7,54.8,114.5,55,114.2,55z"/>
				</g>
				<g>
					<path fill="#D7E0E9" d="M109.7,59c-0.4,0-0.6-0.2-0.8-0.6l-1.5-7.7l7.7-3.1c0.4-0.2,0.8,0,1,0.4c0.2,0.4,0,0.8-0.4,1l-6.7,2.7
						l1.2,6.4C110.5,58.3,110.3,58.8,109.7,59C109.9,59,109.7,59,109.7,59z"/>
				</g>
				<g>
					<path fill="#D7E0E9" d="M105.3,56.5c-0.4,0-0.6-0.2-0.8-0.6l-1.5-7.7l7.7-3.1c0.4-0.2,0.8,0,1,0.4c0.2,0.4,0,0.8-0.4,1
						l-6.7,2.7l1.2,6.4C106.1,56.1,105.7,56.5,105.3,56.5L105.3,56.5z"/>
				</g>
				<g>
					<path fill="none" stroke="#000000" stroke-width="5" stroke-linecap="round" stroke-miterlimit="10" d="M105.1,49.4"/>
				</g>
			</g>
		</g>
		<g>
			<g>
				<g>
					<line fill="none" x1="83.3" y1="54" x2="98.4" y2="46.1"/>
					<path fill="#D7E0E9" d="M83.3,54.6c-0.2,0-0.6-0.2-0.6-0.4c-0.2-0.4,0-0.8,0.2-1l15-7.9c0.4-0.2,0.8,0,1,0.2
						c0.2,0.4,0,0.8-0.2,1l-15,7.9C83.7,54.6,83.5,54.6,83.3,54.6z"/>
				</g>
				<g>
					<line fill="none" x1="83.3" y1="54" x2="98.4" y2="46.1"/>
					<path fill="#D7E0E9" d="M83.3,54.6c-0.2,0-0.6-0.2-0.6-0.4c-0.2-0.4,0-0.8,0.2-1l15-7.9c0.4-0.2,0.8,0,1,0.2
						c0.2,0.4,0,0.8-0.2,1l-15,7.9C83.7,54.6,83.5,54.6,83.3,54.6z"/>
				</g>
			</g>
			<g>
				<path fill="#D7E0E9" d="M88,59C87.8,59,87.8,59,88,59c-0.6,0-0.8-0.4-0.8-0.8l1.2-6.7L82,49c-0.4-0.2-0.6-0.6-0.4-1
					c0.2-0.4,0.6-0.6,1-0.4l7.5,2.9l-1.5,7.9C88.7,58.8,88.3,59,88,59z"/>
			</g>
			<g>
				<g>
					<path fill="#D7E0E9" d="M92.4,56.5L92.4,56.5c-0.6,0-0.8-0.4-0.8-0.8l1.2-6.7l-6.4-2.3c-0.4-0.2-0.4-0.6-0.4-1
						c0.2-0.4,0.6-0.6,1-0.4l7.5,2.9L93,56.1C93,56.3,92.8,56.5,92.4,56.5z"/>
				</g>
				<g>
					<path fill="#D7E0E9" d="M92.4,56.5L92.4,56.5c-0.6,0-0.8-0.4-0.8-0.8l1.2-6.7l-6.4-2.3c-0.4-0.2-0.4-0.6-0.4-1
						c0.2-0.4,0.6-0.6,1-0.4l7.5,2.9L93,56.1C93,56.3,92.8,56.5,92.4,56.5z"/>
				</g>
			</g>
			<g>
				<g>
					<path fill="#D7E0E9" d="M92.6,49.4"/>
				</g>
				<g>
					<path fill="none" stroke="#000000" stroke-width="5" stroke-linecap="round" stroke-miterlimit="10" d="M92.6,49.4"/>
				</g>
			</g>
		</g>
		<g>
			<g>
				<g>
					<line fill="none" x1="114.2" y1="38" x2="99.1" y2="45.7"/>
					<path fill="#D7E0E9" d="M99.1,46.5c-0.2,0-0.6-0.2-0.6-0.4c-0.2-0.4,0-0.8,0.2-1l15-7.9c0.4-0.2,0.8,0,1,0.2
						c0.2,0.4,0,0.8-0.2,1l-15,7.9C99.3,46.5,99.3,46.5,99.1,46.5z"/>
				</g>
				<g>
					<path fill="#D7E0E9" d="M115.5,44.6h-0.2l-7.7-3.1l1.5-7.7c0-0.4,0.4-0.6,0.8-0.6c0.4,0,0.6,0.4,0.6,0.8l-1.2,6.4l6.7,2.7
						c0.4,0.2,0.6,0.6,0.4,1C115.9,44.4,115.7,44.6,115.5,44.6z"/>
				</g>
				<g>
					<path fill="#D7E0E9" d="M110.9,46.9h-0.2l-7.7-3.1l1.5-7.7c0-0.4,0.4-0.6,0.8-0.6s0.6,0.4,0.6,0.8l-1.2,6.4l6.7,2.7
						c0.4,0.2,0.6,0.6,0.4,1C111.5,46.7,111.1,46.9,110.9,46.9z"/>
				</g>
				<g>
					<path fill="#D7E0E9" d="M105.1,42.7"/>
				</g>
			</g>
			<g>
				<g>
					<line fill="none" x1="114.2" y1="38" x2="99.1" y2="45.7"/>
					<path fill="#D7E0E9" d="M99.1,46.5c-0.2,0-0.6-0.2-0.6-0.4c-0.2-0.4,0-0.8,0.2-1l15-7.9c0.4-0.2,0.8,0,1,0.2
						c0.2,0.4,0,0.8-0.2,1l-15,7.9C99.3,46.5,99.3,46.5,99.1,46.5z"/>
				</g>
				<g>
					<path fill="#D7E0E9" d="M115.5,44.6h-0.2l-7.7-3.1l1.5-7.7c0-0.4,0.4-0.6,0.8-0.6c0.4,0,0.6,0.4,0.6,0.8l-1.2,6.4l6.7,2.7
						c0.4,0.2,0.6,0.6,0.4,1C115.9,44.4,115.7,44.6,115.5,44.6z"/>
				</g>
				<g>
					<path fill="#D7E0E9" d="M110.9,46.9h-0.2l-7.7-3.1l1.5-7.7c0-0.4,0.4-0.6,0.8-0.6s0.6,0.4,0.6,0.8l-1.2,6.4l6.7,2.7
						c0.4,0.2,0.6,0.6,0.4,1C111.5,46.7,111.1,46.9,110.9,46.9z"/>
				</g>
				<g>
					<path fill="none" stroke="#000000" stroke-width="5" stroke-linecap="round" stroke-miterlimit="10" d="M105.1,42.7"/>
				</g>
			</g>
		</g>
	</g>
	<g>
		<path fill="#A7ABB5" d="M72.4,67.3c-3.1,0-5.8-2.5-5.8-5.4c0-1.5,0.6-2.9,1.9-4l0.4-0.2v-4.2h7.3v4.2l0.4,0.2c1.2,1,1.9,2.5,1.9,4
			C78.1,64.8,75.6,67.3,72.4,67.3z"/>
		<g>
			<path fill="#D7E0E9" d="M72.4,26.5c1.5,0,2.5,1,2.5,2.5v28.1v0.8l0.6,0.6c1,0.8,1.5,2.1,1.5,3.3c0,2.5-2.1,4.6-4.8,4.6
				c-2.7,0-4.8-2.1-4.8-4.6c0-1.2,0.6-2.5,1.5-3.3l0.6-0.6v-0.8V29C69.7,27.6,71,26.5,72.4,26.5 M72.4,24.7c-2.5,0-4.6,2.1-4.6,4.4
				v28.1c-1.2,1.2-2.1,2.9-2.1,4.6c0,3.5,3.1,6.4,6.7,6.4c3.7,0,6.7-2.9,6.7-6.4c0-1.9-0.8-3.5-2.1-4.6V29
				C77,26.5,74.9,24.7,72.4,24.7L72.4,24.7z"/>
		</g>
	</g>
	<g>
		<g>
			<g>
				<g>
					<polygon fill="#D7E0E9" points="54.1,91 63.1,67.7 119.7,87.5 110.7,110.7 					"/>
				</g>
			</g>
			<g>
				<g>
					<path fill="#9198AA" d="M118,88.3l-8.1,20.8L55.8,90.2l8.1-21L118,88.3 M121.3,86.6L62.3,66l-10,25.8l59.1,20.6L121.3,86.6
						L121.3,86.6z"/>
				</g>
			</g>
		</g>
		<g>
			<g>
				<path fill="#A7ABB5" d="M103.6,104.3L63.7,90.4c-2.5-0.8-3.7-3.5-2.7-5.8l2.9-7.9c0.8-2.3,3.5-3.5,6-2.7l39.7,13.9
					c2.5,0.8,3.7,3.5,2.7,5.8l-2.9,7.9C108.8,103.9,106.1,105.1,103.6,104.3z"/>
			</g>
		</g>
		<g>
			<g>
				<path fill="#DCE7EA" d="M84.1,94.1l0.4-1.2c-1-0.4-1.9-1-2.3-1.5l1-1.5c0.4,0.6,1.2,1,2.1,1.5c0.8,0.2,1.5,0.2,1.7-0.4
					c0.2-0.4-0.2-1-1-1.7c-1.2-1-2.1-2.1-1.7-3.3c0.4-1.2,1.7-1.9,3.3-1.7l0.4-1.2l1.5,0.4l-0.4,1.2c1,0.4,1.5,0.8,1.9,1.2l-1,1.5
					c-0.4-0.2-0.8-0.8-1.9-1.2c-0.8-0.4-1.5,0-1.5,0.4c-0.2,0.4,0.2,0.8,1.2,1.7c1.5,1.2,1.9,2.1,1.5,3.3s-1.7,1.9-3.5,1.7l-0.2,1.2
					L84.1,94.1z"/>
			</g>
		</g>
	</g>
	<g>
		
			<rect x="74.6" y="59.1" transform="matrix(2.387359e-003 -1 1 2.387359e-003 -2.5444 175.9958)" fill="#D7E0E9" width="24.7" height="60.3"/>
		<path fill="#9198AA" d="M115.7,78.1v22.3l-57.6-0.2V77.9L115.7,78.1 M118.4,75.6l-63-0.2v27.4l63,0.2V75.6L118.4,75.6z"/>
		<g>
			<g>
				<path fill="#A7ABB5" d="M108,97.9H65.6c-2.5,0-4.8-2.1-4.8-4.6V85c0-2.5,2.1-4.6,4.8-4.6H108c2.5,0,4.8,2.1,4.8,4.6v8.3
					C112.8,96,110.7,97.9,108,97.9z"/>
			</g>
		</g>
		<g>
			<g>
				<path fill="#DCE7EA" d="M86,94.7v-1.5c-1,0-2.1-0.2-2.5-0.6l0.4-1.7c0.6,0.4,1.5,0.6,2.5,0.6c0.8,0,1.5-0.4,1.5-0.8
					c0-0.6-0.4-0.8-1.7-1.2c-1.7-0.6-2.7-1.2-2.7-2.7c0-1.2,1-2.3,2.5-2.5v-1.5h1.5v1.2c1,0,1.7,0.2,2.3,0.4l-0.4,1.7
					c-0.4-0.2-1-0.4-2.3-0.4c-1,0-1.2,0.4-1.2,0.8c0,0.4,0.6,0.8,1.9,1.2c1.9,0.6,2.5,1.5,2.5,2.7c0,1.2-1,2.3-2.7,2.7v1.5H86z"/>
			</g>
		</g>
	</g>
	<g>
		<g>
			<g>
				<polygon fill="#D7E0E9" points="62.9,110.7 54.1,87.2 110.7,67.7 119.7,91.2 				"/>
				<g>
					<path fill="#9198AA" d="M109.9,69.4l8.1,21l-54.3,18.7l-7.9-21L109.9,69.4 M111.5,66L52.3,86.6l9.8,25.8l59.3-20.6L111.5,66
						L111.5,66z"/>
				</g>
			</g>
		</g>
		<path fill="#A7ABB5" d="M109.9,90.6L70,104.3c-2.5,0.8-5.2-0.4-6-2.7L61,93.7c-0.8-2.3,0.4-5,2.9-5.8l39.9-13.7
			c2.5-0.8,5.2,0.4,6,2.7l2.9,7.9C113.6,87,112.4,89.7,109.9,90.6z"/>
		<path fill="#FCFCFC" d="M88,94.7l-0.4-1.2c-1,0.2-2.1,0.4-2.7,0.2L84.7,92c0.6,0.2,1.7,0,2.5-0.2c0.8-0.2,1.2-0.8,1-1.2
			c-0.2-0.4-0.8-0.6-1.9-0.6c-1.7,0-2.9-0.2-3.5-1.7c-0.4-1.2,0-2.5,1.5-3.3l-0.4-1.5l1.5-0.4l0.4,1.2c1-0.2,1.7-0.4,2.3-0.2
			l0.2,1.7c-0.4,0-1.2-0.2-2.3,0.2c-0.8,0.4-1,0.8-1,1.2c0.2,0.4,0.8,0.6,2.1,0.6c1.9,0,2.9,0.4,3.3,1.7c0.4,1.2,0,2.5-1.7,3.3
			l0.6,1.5L88,94.7z"/>
	</g>
</g>
</svg>
