<?xml version="1.0" encoding="utf-8"?>
<!-- Generator: Adobe Illustrator 18.1.0, SVG Export Plug-In . SVG Version: 6.00 Build 0)  -->
<svg version="1.1" id="Слой_1" xmlns="http://www.w3.org/2000/svg" xmlns:xlink="http://www.w3.org/1999/xlink" x="0px" y="0px"
	 viewBox="0 0 83.8 83.9" enable-background="new 0 0 83.8 83.9" xml:space="preserve">
<g>
	<path fill="#D7E0E9" d="M69.6,10.9l-4.8-6.6c0,0-2.9,1.5-2.9,3.8s0.8,8.8,2.8,18.5c1.1,5.3,1.5,18.4-6.1,26s-16.8,7-16.8,7
		s-9.2,0.6-16.8-7S17.8,32,19,26.7C21,17,21.8,10.5,21.8,8.2s-2.9-3.8-2.9-3.8l-4.6,7.3l-2.6,16.5l7,28.2l23.1,9l23.2-9l7-28.2
		L69.6,10.9z"/>
	<path fill="#A7ABB5" d="M78.5,10.5c0,0-11.3,2.5-12.1,4.2s0.8,5.7,0.8,5.7s2.9,8.7,1.5,18.1C66.4,55.4,54.5,59.2,50.5,61
		c-2.3,1-7.5,1.4-8.4,1.4v0c0,0,0,0-0.1,0c-0.1,0-0.1,0-0.1,0v0c-1,0.1-5.4,0-8.4-1.4c-4-1.8-16.3-5.6-18.3-22.5
		c-1.3-10.6,1.5-18.1,1.5-18.1s1.5-4,0.8-5.7C16.6,13,5.3,10.5,5.3,10.5s-6.5,14.1-5.1,33.5s20.1,31.8,20.1,31.8s10.2,4.7,21.5,4.8
		v0c0,0,0.1,0,0.1,0c0,0,0.1,0,0.1,0v0c11.2-0.1,21.5-4.8,21.5-4.8s18.7-12.4,20.1-31.8S78.5,10.5,78.5,10.5z"/>
	<path fill="#9198AA" d="M55.9,72.2c-4.4,2.3-14.2,2.7-14.2,2.7s-9.8-0.3-14.2-2.7c-7.1-3.8-8.8,1.6-6.6,4.5
		c5.3,6.8,20.8,7.3,20.8,7.3s15.5-0.5,20.8-7.3C64.7,73.8,63.1,68.4,55.9,72.2z"/>
	<g>
		<path fill="#767C8F" d="M71.1,25.4c-0.9-4.2,4.8-5.6,6.3-1.5c1.5,4.1,3.7,13.4,2,19.8c-1.3,4.7-3.2,12-7.6,16.5s-10.4,1.5-7.2-4.4
			C67.6,49.9,70,51,72,41C73.5,34.4,72,29.6,71.1,25.4z"/>
		<circle fill="#D7E0E9" cx="74.7" cy="26.9" r="2"/>
		<circle fill="#D7E0E9" cx="76.4" cy="38.6" r="2"/>
		<circle fill="#D7E0E9" cx="73.8" cy="49.1" r="2"/>
		<circle fill="#D7E0E9" cx="67.6" cy="58.6" r="2"/>
	</g>
	<g>
		<path fill="#767C8F" d="M12,25.4c0.9-4.2-4.8-5.6-6.3-1.5S2,37.3,3.8,43.7c1.3,4.7,3.2,12,7.6,16.5s10.4,1.5,7.2-4.4
			S13.1,51,11.1,41C9.6,34.4,11.1,29.6,12,25.4z"/>
		<circle fill="#D7E0E9" cx="8.4" cy="26.9" r="2"/>
		<circle fill="#D7E0E9" cx="6.7" cy="38.6" r="2"/>
		<circle fill="#D7E0E9" cx="9.3" cy="49.1" r="2"/>
		<circle fill="#D7E0E9" cx="15.5" cy="58.6" r="2"/>
	</g>
	<path fill="#9198AA" d="M79.4,10.5L69,13.5c-1.1,0.3-2.2-0.3-2.5-1.4l-1.8-6.1C64.4,5,65,3.9,66,3.6l10.4-3.1
		c1.1-0.3,2.2,0.3,2.5,1.4L80.7,8C81,9,80.4,10.2,79.4,10.5z"/>
	<path fill="#9198AA" d="M4.2,10l10.4,3.1c1.1,0.3,2.2-0.3,2.5-1.4l1.8-6.1c0.3-1.1-0.3-2.2-1.4-2.5L7.1,0.1C6-0.2,4.9,0.4,4.6,1.4
		L2.8,7.5C2.5,8.6,3.1,9.7,4.2,10z"/>
</g>
</svg>
