<?xml version="1.0" encoding="utf-8"?>
<!-- Generator: Adobe Illustrator 18.1.0, SVG Export Plug-In . SVG Version: 6.00 Build 0)  -->
<svg version="1.1" id="Слой_1" xmlns="http://www.w3.org/2000/svg" xmlns:xlink="http://www.w3.org/1999/xlink" x="0px" y="0px"
	 viewBox="32.1 24.5 81.3 88.2" enable-background="new 32.1 24.5 81.3 88.2" xml:space="preserve">
<g>
	<g>
		<polygon fill="#9198AA" points="53.9,73.4 44.3,73.4 45.2,37.9 53.1,37.9 		"/>
	</g>
	<g>
		<polygon fill="#9198AA" points="73.3,85.3 63.5,85.3 64.5,49.7 72.4,49.7 		"/>
	</g>
	<g>
		<rect x="43.3" y="35.4" fill="#767C8F" width="11.9" height="3.5"/>
	</g>
	<g>
		<g>
			<rect x="62.4" y="47.2" fill="#7C9299" width="11.9" height="3.5"/>
		</g>
		<g>
			<rect x="62.4" y="47.2" fill="#767C8F" width="11.9" height="3.5"/>
		</g>
	</g>
	<polygon fill="#767C8F" points="36,92.8 36,61 48.9,70.5 48.9,61 62,70.7 62,61 73.3,69.9 87.4,70.1 87.4,92.8 	"/>
	<g>
		<rect x="32.1" y="92.8" fill="#9198AA" width="59.5" height="3.3"/>
	</g>
	<g>
		<rect x="39.4" y="75.9" fill="#D7E0E9" width="7.3" height="3.5"/>
	</g>
	<g>
		<rect x="39.4" y="81.7" fill="#D7E0E9" width="7.3" height="3.5"/>
	</g>
	<rect x="51.8" y="75.9" fill="#D7E0E9" width="7.3" height="3.5"/>
	<g>
		<rect x="51.8" y="81.7" fill="#D7E0E9" width="7.3" height="3.5"/>
	</g>
	<g>
		<rect x="64.7" y="75.9" fill="#D7E0E9" width="7.3" height="3.5"/>
	</g>
	<g>
		<rect x="64.7" y="81.7" fill="#D7E0E9" width="7.3" height="3.5"/>
	</g>
	<g>
		<path fill="#D7E0E9" d="M48.3,32.5c0,0,3.1-7.3,10.8-7.9s12.7,4.6,16.8,4.6s9.8-0.6,9.8-0.6s-2.5,4-8.3,4
			c-8.3,0-12.7-3.5-16.8-3.3C55,29.3,49.5,31.2,48.3,32.5z"/>
	</g>
	<g>
		<path fill="#D7E0E9" d="M66.8,44.1c0,0,3.1-7.3,10.8-7.9c7.7-0.6,12.7,4.6,16.8,4.6c4.2,0,9.8-0.6,9.8-0.6s-2.5,4-8.3,4
			c-8.3,0-12.7-3.5-16.8-3.3C73.5,41,68.1,43.1,66.8,44.1z"/>
	</g>
	<g>
		<rect x="75.3" y="92.8" fill="#D7E0E9" width="8.9" height="20"/>
	</g>
	<g>
		<rect x="61.8" y="99.2" fill="#767C8F" width="8.9" height="13.5"/>
	</g>
	<g>
		<rect x="88.9" y="82.8" fill="#D7E0E9" width="8.9" height="29.9"/>
	</g>
	<g>
		<rect x="102.4" y="77.8" fill="#D7E0E9" width="8.9" height="34.9"/>
	</g>
	<g>
		<polygon fill="#D7E0E9" points="58.9,97.8 53.1,90.9 104,57.4 110.1,64.3 		"/>
	</g>
	<g>
		<path fill="#D7E0E9" d="M110.3,73.2c-2.1,0-3.1-1.7-3.1-3.5v-8.9H96.5c-2.1,0-3.5-1-3.5-3.1c0-2.1,1.7-3.1,3.5-3.1h16.8v15.2
			C113.4,71.6,112.4,73.2,110.3,73.2z"/>
	</g>
</g>
</svg>
