<svg xmlns="http://www.w3.org/2000/svg" viewBox="0 25.5 49.2 40.7"><path fill="#4F5567" d="M25.9 66.2c-.2 0-.5 0-.5-.2L.4 51.2c-.2-.3-.4-.6-.4-1.1V26.6c0-.5.2-.7.5-.9.2-.2.7-.2 1.2 0l25 15.5c.2.2.5.5.5.9v23.1c0 .5-.2.7-.5.9-.3.1-.6.1-.8.1zM2.1 49.7L25 63.3V42.8L2.1 28.7v21z"/><path fill="#4F5567" d="M32.3 54.6c-.2 0-.5 0-.5-.2L28.3 52c-.5-.2-.7-.9-.2-1.4.2-.5.9-.7 1.4-.2l2.8 1.9 13.9-8.9-20.3-12.8-6.4 4c-.5.2-1.2.2-1.4-.2-.5-.7-.2-1.2.2-1.6l7.1-4.5c.2-.2.7-.2 1.2 0l22.1 13.9c.2.2.5.5.5.9s-.2.7-.5.9L33 54.1c-.3.5-.5.5-.7.5z"/><path fill="#4F5567" d="M32.3 59.6c-.2 0-.5 0-.5-.2L28.3 57c-.5-.2-.7-.9-.2-1.4.2-.5.9-.7 1.4-.2l2.8 1.9 15.3-9.9c.5-.2 1.2-.2 1.4.2.2.5.2 1.2-.2 1.4L33 59.1c-.3.5-.5.5-.7.5z"/><path fill="#4F5567" d="M32.3 64.7c-.2 0-.5 0-.5-.2l-3.5-2.4c-.5-.2-.7-.9-.2-1.4.2-.5.9-.7 1.4-.2l2.8 1.9 15.3-9.9c.5-.2 1.2-.2 1.4.2.2.5.2 1.2-.2 1.4L33 64.3c-.3.4-.5.4-.7.4zM10.8 49.2c-1.6 0-3.3-1.6-4.2-4.2-.5-1.2-.7-2.6-.7-3.8.2-1.4.7-2.4 1.6-2.6.2 0 .5-.2.7-.2 1.6 0 3.3 1.6 4.2 4.2 1.2 3.1.7 5.7-1.2 6.4.1.2-.1.2-.4.2zm-2.3-8.7c-.2 0-.2.2-.5.9 0 .7 0 1.9.5 2.8.7 1.9 1.9 2.8 2.4 2.8.2 0 .7-1.6 0-3.8-1-1.8-2-2.7-2.4-2.7zM20 49c-.2 0-.5 0-.5-.2l-4.2-2.4c-.5-.5-.5-.9-.2-1.4.2-.7.9-.7 1.4-.5l4.2 2.6c.5.2.5.9.2 1.4-.2.2-.4.5-.9.5zm0 4.7c-.2 0-.5 0-.5-.2l-4.2-2.6c-.5-.2-.7-.9-.5-1.4.5-.2 1.2-.5 1.6-.2l4.2 2.6c.5.2.5.9.2 1.4-.1.4-.3.4-.8.4z"/></svg>