<svg xmlns="http://www.w3.org/2000/svg" viewBox="0 31.9 52.3 41"><path fill="#4F5567" d="M37.2 60c-.4 0-.5-.2-.7-.4l-7.6-11.1c-.2-.4-.2-.7 0-.9.2-.4.5-.5.9-.5h13.4c.4 0 .5.2.7.4l8.2 10c.2.4.4.7.2.9-.2.4-.4.5-.7.5L37.2 60zm-5.8-11.1l6.4 9.3 11.4-.9-6.7-8.2H31.4v-.2z"/><path fill="#4F5567" d="M31 72.9c-.4 0-.5-.2-.7-.4-.2-.4-.2-.7-.2-.9l6.2-12.7c.2-.4.4-.5.7-.5l13.8-1.1c.4 0 .7.2.9.4.2.4.2.7 0 .9L45.4 70c-.2.2-.4.4-.7.5L31 72.9c.2 0 0 0 0 0zM37.9 60l-5.3 10.5 11.2-2 5.4-9.6L37.9 60z"/><path fill="#4F5567" d="M31 72.9c-.4 0-.7-.2-.9-.5L23.7 61c-.2-.2-.2-.5 0-.7l4.9-12.5c.2-.4.4-.5.7-.5.4 0 .7.2.9.4l7.6 11.1c.2.4.2.7 0 .9l-6.2 12.7c.2.1-.2.5-.6.5zm-5.2-12.5l5.3 9.4 5.1-10.5-6.4-9.3-4 10.4z"/><ellipse transform="rotate(32.371 40.158 52.958)" fill="#4F5567" cx="40.2" cy="53" rx="1.5" ry=".9"/><ellipse transform="rotate(132.276 45.437 61.764)" fill="#4F5567" cx="45.4" cy="61.8" rx="1.5" ry=".9"/><ellipse transform="rotate(96.812 30.091 54.33)" fill="#4F5567" cx="30.1" cy="54.3" rx="1.5" ry=".9"/><ellipse transform="rotate(96.812 30.992 64.884)" fill="#4F5567" cx="31" cy="64.9" rx="1.5" ry=".9"/><ellipse transform="rotate(96.812 30.406 59.404)" fill="#4F5567" cx="30.4" cy="59.4" rx="1.5" ry=".9"/><ellipse transform="rotate(134.604 37.128 67.37)" fill="#4F5567" cx="37.1" cy="67.4" rx="1.5" ry=".9"/><g fill="#4F5567"><path d="M13.8 46h-.4L.7 41.7c-.3 0-.7-.4-.7-.7 0-.4 0-.7.4-.9l10.7-8c.2-.2.5-.2.7-.2L24.3 35c.4 0 .5.4.7.7 0 .4 0 .7-.4.9l-10.2 9.3c-.1.1-.4.1-.6.1zM2.9 40.6L13.4 44l8.7-7.6-10.3-2.5-8.9 6.7z"/><path d="M16.5 60h-.2c-.4-.2-.5-.4-.7-.7l-2.7-14c0-.4 0-.7.4-.9l10.3-9.3c.2-.2.5-.4.9-.2s.5.4.5.7l1.6 13.1c0 .4 0 .5-.2.7l-9.4 10c.1.4-.3.6-.5.6zm-1.6-14.5l2.2 11.6 7.8-8.3-1.5-10.9-8.5 7.6z"/><path d="M16.5 60h-.4l-12-5.3c-.1-.1-.5-.3-.5-.7L0 41.1c0-.4 0-.7.4-.9.1-.2.5-.3.9-.2l12.9 4.4c.2 0 .5.2.5.5l2.7 13.8v.2c0 .7-.3 1.1-.9 1.1zM5.3 53.1l9.8 4.4-2.2-11.6-10.5-3.5 2.9 10.7z"/><ellipse transform="rotate(-4.513 7.71 39.716)" cx="7.7" cy="39.7" rx="1.5" ry=".9"/><ellipse transform="rotate(-4.513 17.731 37.407)" cx="17.7" cy="37.4" rx="1.5" ry=".9"/><ellipse transform="matrix(-.09397 .9956 -.9956 -.09397 66.448 24.424)" cx="22.1" cy="42.4" rx="1.5" ry=".9"/><ellipse transform="matrix(-.09397 .9956 -.9956 -.09397 65.208 33.545)" cx="17.3" cy="46.4" rx="1.5" ry=".9"/><ellipse transform="rotate(59.927 5.182 45.513)" cx="5.2" cy="45.5" rx="1.5" ry=".9"/><ellipse transform="rotate(59.927 12.158 53.41)" cx="12.2" cy="53.4" rx="1.5" ry=".9"/><ellipse transform="rotate(59.927 8.935 49.018)" cx="8.9" cy="49" rx="1.5" ry=".9"/><ellipse transform="rotate(59.927 11.299 47.489)" cx="11.3" cy="47.5" rx="1.5" ry=".9"/><ellipse transform="rotate(59.927 7.041 51.607)" cx="7" cy="51.6" rx="1.5" ry=".9"/><ellipse transform="rotate(97.718 18.667 51.646)" cx="18.7" cy="51.6" rx="1.5" ry=".9"/><ellipse transform="rotate(97.718 22.84 47.289)" cx="22.8" cy="47.3" rx="1.5" ry=".9"/></g></svg>