<svg xmlns="http://www.w3.org/2000/svg" viewBox="0 0 42.7 31.2"><path fill="#575D6B" d="M36.7 15.5l-9.3-9.8 6-5.7 9.3 9.8-6 5.7zm-7.1-9.7l7.2 7.6 3.8-3.7-7.2-7.6-3.8 3.7z"/><path fill-rule="evenodd" clip-rule="evenodd" fill="#575D6B" d="M36.8 9.5c.6 0 1.2.5 1.2 1.2 0 .6-.5 1.2-1.2 1.2-.6 0-1.2-.5-1.2-1.2 0-.6.6-1.2 1.2-1.2z"/><path fill="#575D6B" d="M6 15.7L0 10 9.3.2l6 5.7L6 15.7zM2.1 10l3.8 3.7L13.2 6 9.3 2.3 2.1 10z"/><path fill-rule="evenodd" clip-rule="evenodd" fill="#575D6B" d="M5.9 9.7c-.6 0-1.2.5-1.2 1.2 0 .6.5 1.2 1.2 1.2.6 0 1.2-.5 1.2-1.2 0-.6-.5-1.2-1.2-1.2z"/><path fill="#575D6B" d="M32 20.5c-.6 0-1.2-.2-1.8-.7l-10.4-7.9c-.4.3-1.1 1-1.4 1.8-.4 1-1.4 1.6-2.7 1.6-.5 0-.9-.1-1-.1l-.5-.2V9.2c0-1.2.8-2.2 2-2.4l4.3-.8 8.9-.3 5.6 5.9v.2c0 .2.4 4-.6 6.3-.2.5-.5 1-.8 1.5-.4.7-1.1.9-1.6.9zM20 10l11.2 8.5c.5.4.8.4.9.4.1 0 .2 0 .4-.3.2-.4.5-.8.7-1.2.7-1.5.6-4.1.5-5.2l-4.8-5.1-8.2.3-4.1.8c-.5.1-.8.5-.8.9v4.6c1 0 1.2-.5 1.3-.7.7-1.8 2.4-2.8 2.5-2.8l.4-.2zm-9.3 14.1c-.7 0-1.3-.3-1.7-.8-.8-.9-.7-2.4.2-3.2l4.2-3.6c.4-.4.9-.6 1.5-.6.7 0 1.3.3 1.7.8.8.9.7 2.4-.2 3.2l-4.2 3.6c-.4.4-1 .6-1.5.6zm4.1-6.7c-.2 0-.4.1-.5.2l-4.2 3.6c-.3.3-.4.8-.1 1.1.1.2.4.3.6.3.2 0 .4-.1.5-.2l4.2-3.6c.2-.1.2-.3.3-.5 0-.2-.1-.4-.2-.6-.1-.2-.3-.3-.6-.3z"/><path fill="#575D6B" d="M13 26.4c-.7 0-1.3-.3-1.7-.8-.8-.9-.7-2.4.2-3.2l4.2-3.6c.4-.4.9-.6 1.5-.6.7 0 1.3.3 1.7.8.8.9.7 2.4-.2 3.2l-4.2 3.6c-.4.4-1 .6-1.5.6zm4.1-6.7c-.2 0-.4.1-.5.2l-4.2 3.6c-.3.3-.4.8-.1 1.1.1.2.4.3.6.3.2 0 .4-.1.5-.2l4.2-3.6c.3-.3.4-.8.1-1.1-.1-.2-.3-.3-.6-.3z"/><path fill="#575D6B" d="M15.1 28.5c-.7 0-1.3-.3-1.7-.8-.4-.5-.6-1-.5-1.6 0-.6.3-1.2.8-1.6l4.2-3.6c.4-.4.9-.6 1.5-.6.7 0 1.3.3 1.7.8.4.5.6 1 .5 1.6 0 .6-.3 1.2-.8 1.6L16.6 28c-.4.3-1 .5-1.5.5zm4.1-6.6c-.2 0-.4.1-.5.2l-4.2 3.6c-.2.1-.2.3-.3.5 0 .2.1.4.2.6.1.2.4.3.6.3.2 0 .4-.1.5-.2l4.2-3.6c.2-.1.2-.3.3-.5 0-.2-.1-.4-.2-.6-.1-.2-.3-.3-.6-.3z"/><path fill="#575D6B" d="M17.9 31.1c-.6 0-1.2-.3-1.6-.7l-.3-.2c-.4-.4-.5-1-.5-1.5s.3-1.1.7-1.4l2.9-2.5c.4-.3.9-.5 1.4-.5.6 0 1.2.3 1.6.7l.2.3c.8.9.7 2.2-.2 3l-2.9 2.5c-.3.2-.8.3-1.3.3zm2.6-5.4c-.1 0-.3.1-.4.1l-2.9 2.5c-.1.1-.2.2-.2.4s0 .3.1.4l.2.3c.2.2.6.3.8.1L21 27c.1-.1.2-.2.2-.4s0-.3-.1-.4l-.1-.3c-.1-.2-.3-.2-.5-.2zM9.8 20.1c-1.8-1.2-3-5.9-3.2-6.5l1.5-.4c.5 1.8 1.6 4.9 2.6 5.6l-.9 1.3z"/><path fill="#575D6B" d="M23 31.2c-1.2 0-2.7-1-3.2-1.4l.9-1.2c1.1.8 2.4 1.2 2.5 1 .6-.6.5-1.8.5-1.8 0-.3.1-.6.4-.8.3-.1.6-.1.9.2 0 0 1 1 2 .5.8-.5 0-2.2 0-2.2-.1-.3-.1-.6.1-.9.2-.2.6-.3.9-.1.9.5 1.9.7 2.1.6.2-.2.1-1.3-.2-2-.1-.2-.1-.5.1-.7.1-.2.4-.3.6-.3h1.2c.2 0 .3-.1.4-.2 0-.1.1-.2.1-.3l-.5-1.1 1.4-.6.5 1.2v.1c.1.6-.1 1.2-.4 1.6-.4.5-.9.7-1.5.7h-.2c.2.8.2 1.9-.5 2.6-.6.6-1.5.5-2.4.3.1 1-.1 2-1.1 2.5-.9.5-1.9.4-2.6.1-.1.5-.4 1.1-.8 1.6s-.8.6-1.2.6zM14.396 5.766l1.83 1.03-.737 1.308-1.83-1.032z"/><path fill="#575D6B" d="M30.6 23.7c-.2 0-.3 0-.5-.2l-2.8-2.1c-.3-.2-.4-.7-.1-1 .2-.3.7-.4 1-.1l2.8 2.1c.3.2.4.7.1 1-.1.2-.3.3-.5.3zM28 26.4c-.2 0-.3 0-.4-.1l-2.8-2c-.3-.2-.4-.7-.2-1 .2-.3.7-.4 1-.2l2.8 2c.3.2.4.7.2 1-.2.2-.4.3-.6.3zm-3.6 2.1c-.2 0-.5-.1-.6-.3l-1.3-1.8c-.3-.3-.2-.8.1-1.1.3-.3.8-.2 1.1.1l1.3 1.8c.3.3.2.8-.1 1.1-.2.2-.4.2-.5.2z"/></svg>