<svg xmlns="http://www.w3.org/2000/svg" viewBox="-0.4 0.9 42.6 42.3"><path fill="#FFF" d="M28.9.9c5.1.2 5.9 1.5 6.1 2 .7 1 .7 2 .7 2.7.7.5 1.5 1 2 1.7 1 1.2 1 2.7.7 3.7.7.5 1.5 1.5 2.2 2.9.5 1.5.5 2.7.2 3.7.2.7 1 1.7 1.2 2.9.2 1 0 2-.7 2.9-1 1.5-3.2 2.4-5.9 2.9-5.1.7-6.1 2-6.3 2.7-.5 1 0 2.7.2 4.1.2.7.2 1.5.2 2.2.2 3.2-.7 5.6-3.7 7.3-.7.5-1.5.7-2.4.5-1 0-2.7-.7-2.7-2 0-.2-.5-4.6-2-8.3-1-2.4-5.1-7.6-5.9-8-.5-.5-2-1-2.9-1.2h-.3c-1.2-.5-2.2-1.2-2.4-3.9-.2-2.4.2-7.8.7-10 .2-2.4 2.4-4.1 4.4-4.4.5 0 1-.2 1.5-.2s1.2 0 2-.2c.5 0 1.5-.7 2-1.2 1.2-1 2.4-2 3.9-2.2 1.6-.6 4.8-.6 7.2-.6zm3.9 3.6c-.2-.2-1.5-.5-4.1-.7s-5.4 0-6.3.2c-.7.2-1.7 1-2.7 1.7-1.2.7-2.2 1.5-3.4 1.7-.7.2-1.5.2-2.2.2-.5 0-1 0-1.5.2s-1.7.7-2 2.2c-.2 2.2-.7 7.3-.7 9.5 0 1 .2 1.2.7 1.2h.2c.7.2 2.7.5 3.9 1.5 1.2 1 5.9 6.6 6.8 9.5 1.2 3.2 1.7 6.8 2 8.3.2 0 .7 0 1-.2 2-1 2.4-2.4 2.2-4.4 0-.7-.2-1.5-.2-2.2-.2-2-.7-4.1 0-5.9 1-2.2 3.7-3.7 8.5-4.4 2.9-.5 3.9-1.2 4.1-1.7.2-.2.2-.5.2-.7-.2-1.2-1.2-2.2-1.2-2.2-.5-.5-.7-1.5-.2-2 0 0 .5-.7 0-2.2-.5-1.5-1.5-2-1.5-2-.7-.2-1-1-.7-1.7.2-.7.2-1.7 0-2.2l-2-1c-.5-.2-.7-.5-1-1-.2-.5 0-.7.2-1.2.1.5.1 0-.1-.5zm-9.3 36.6v-.2.2z"/><path fill="#FFF" d="M4.8 4.5l5.6.5c.7 0 1.5.7 1.2 1.5 0 .7-.7 1.5-1.5 1.2l-5.6-.3c-.2 0-.7.5-1.2 2-1 2.9-1 8.5-.5 9.5 0 .7 1 1.5 2.2 1.5 1.2.2 2.7.2 2.7.2.7 0 1.5.7 1.5 1.5s-.7 1.5-1.5 1.5c0 0-1.7 0-3.2-.2-1.7-.2-3.9-1.5-4.6-3.7-.5-1.7-.5-7.8.7-11.2 1-3.7 3.2-4 4.2-4z"/></svg>