<?xml version="1.0" encoding="utf-8"?>
<!-- Generator: Adobe Illustrator 18.1.0, SVG Export Plug-In . SVG Version: 6.00 Build 0)  -->
<svg version="1.1" id="Слой_1" xmlns="http://www.w3.org/2000/svg" xmlns:xlink="http://www.w3.org/1999/xlink" x="0px" y="0px"
	 viewBox="0 0 85.6 86" enable-background="new 0 0 85.6 86" xml:space="preserve">
<g>
	<g>
		<path fill="#FFFFFF" d="M42.8,86C19.4,86,0,66.6,0,42.8S19.4,0,42.8,0s42.8,19.4,42.8,42.8S66.6,86,42.8,86z M42.8,7.3
			C23.4,7.3,7.3,23.4,7.3,42.8s16.1,35.5,35.5,35.5c19.8,0,35.5-16.1,35.5-35.5S62.6,7.3,42.8,7.3z"/>
	</g>
	<g>
		<path fill="#FFFFFF" d="M65.9,46.1H18.3c-2.2,0-3.7-1.5-3.7-3.7s1.5-3.7,3.7-3.7h38.8L45.7,26.7c-1.5-1.5-1.5-3.7,0-5.1
			c1.5-1.5,3.7-1.5,5.1,0l17.2,18.3c1.1,1.1,1.5,2.6,0.7,4C68.8,45.4,67.3,46.1,65.9,46.1z"/>
	</g>
	<g>
		<path fill="#FFFFFF" d="M49.4,62.6c-1.1,0-1.8-0.4-2.6-1.1c-1.5-1.5-1.5-3.7,0-5.1l16.5-16.5c1.5-1.5,3.7-1.5,5.1,0
			c1.5,1.5,1.5,3.7,0,5.1L52,61.5C51.2,62.2,50.5,62.6,49.4,62.6z"/>
	</g>
</g>
</svg>
