<?xml version="1.0" encoding="utf-8"?>
<!-- Generator: Adobe Illustrator 18.1.0, SVG Export Plug-In . SVG Version: 6.00 Build 0)  -->
<svg version="1.1" id="Слой_1" xmlns="http://www.w3.org/2000/svg" xmlns:xlink="http://www.w3.org/1999/xlink" x="0px" y="0px"
	 viewBox="0 0 65 65" enable-background="new 0 0 65 65" xml:space="preserve">
<g id="тЮРЬМА">
	<g>
		<line fill="none" x1="15" y1="3" x2="15" y2="62"/>
		<path fill="#FFFFFF" d="M15,65c-1.7,0-3-1.2-3-3V3c0-1.7,1.5-3,3-3s3,1.2,3,3V62C18,63.8,16.7,65,15,65z"/>
	</g>
	<g>
		<line fill="none" x1="50" y1="3" x2="50" y2="62"/>
		<path fill="#FFFFFF" d="M50,65c-1.7,0-3-1.2-3-3V3c0-1.7,1.2-3,3-3s3,1.2,3,3V62C52.9,63.8,51.5,65,50,65z"/>
	</g>
	<g>
		<line fill="none" x1="3" y1="50" x2="62" y2="50"/>
		<path fill="#FFFFFF" d="M62,52.9H3c-1.7,0-3-1.2-3-3c0-1.7,1.2-3,3-3H62c1.7,0,3,1.2,3,3C65,51.7,63.8,52.9,62,52.9z"/>
	</g>
	<g>
		<line fill="none" x1="3" y1="15" x2="62" y2="15"/>
		<path fill="#FFFFFF" d="M62,18H3c-1.7,0-3-1.2-3-3s1.2-3,3-3H62c1.7,0,3,1.2,3,3S63.8,18,62,18z"/>
	</g>
	<g>
		<line fill="none" x1="8.6" y1="21.7" x2="20.9" y2="9.1"/>
		<path fill="#FFFFFF" d="M8.6,24.6c-0.7,0-1.5-0.2-2-1c-1.2-1.2-1.2-3,0-4.2L19.2,6.9c1.2-1.2,3-1.2,4.2,0c1.2,1.2,1.2,3,0,4.2
			L10.6,23.6C10.1,24.1,9.4,24.6,8.6,24.6z"/>
	</g>
	<g>
		<line fill="none" x1="43.6" y1="21.7" x2="56.1" y2="9.1"/>
		<path fill="#FFFFFF" d="M43.6,24.6c-0.7,0-1.5-0.2-2-1c-1.2-1.2-1.2-3,0-4.2L54.2,6.9c1.2-1.2,3-1.2,4.2,0s1.2,3,0,4.2L45.8,23.6
			C45.1,24.1,44.3,24.6,43.6,24.6z"/>
	</g>
	<g>
		<line fill="none" x1="8.6" y1="56.1" x2="20.9" y2="43.6"/>
		<path fill="#FFFFFF" d="M8.6,59.1c-0.7,0-1.5-0.2-2-1c-1.2-1.2-1.2-3,0-4.2l12.6-12.6c1.2-1.2,3-1.2,4.2,0c1.2,1.2,1.2,3,0,4.2
			L10.8,58.1C10.1,58.6,9.4,59.1,8.6,59.1z"/>
	</g>
	<g>
		<line fill="none" x1="43.6" y1="56.1" x2="56.1" y2="43.6"/>
		<path fill="#FFFFFF" d="M43.6,59.1c-0.7,0-1.5-0.2-2-1c-1.2-1.2-1.2-3,0-4.2l12.6-12.6c1.2-1.2,3-1.2,4.2,0c1.2,1.2,1.2,3,0,4.2
			L45.8,58.1C45.1,58.6,44.3,59.1,43.6,59.1z"/>
	</g>
</g>
</svg>
