<?xml version="1.0" encoding="utf-8"?>
<!-- Generator: Adobe Illustrator 18.1.0, SVG Export Plug-In . SVG Version: 6.00 Build 0)  -->
<svg version="1.1" id="Слой_1" xmlns="http://www.w3.org/2000/svg" xmlns:xlink="http://www.w3.org/1999/xlink" x="0px" y="0px"
	 viewBox="0 7.3 68.1 64.8" enable-background="new 0 7.3 68.1 64.8" xml:space="preserve">
<g id="Отдых">
	<g>
		<path fill="#FFFFFF" d="M26.1,25.2c2-5.1,0.2-10.2,0.2-10.4l-0.4-1.5l-1.3,0.9c-0.2,0.2-5.1,2.9-6.9,8c-2,5.1-0.2,10.2-0.2,10.4
			l0.4,1.3l1.3-0.9C19.5,33,24.1,30.3,26.1,25.2z M20.4,29l-0.9,0.9l-0.2-1.1c-0.2-2.2,0-4,0.7-5.8s1.8-3.3,3.3-4.6l1.1-0.9v1.1
			c0.2,2.2,0,4-0.7,5.8C23,26.1,21.9,27.7,20.4,29z"/>
	</g>
	<g>
		<path fill="#FFFFFF" d="M19.7,42c1.8-5.1,0.2-10.2,0.2-10.4l-0.4-1.5L18.1,31c-0.4,0-5.1,2.9-7.1,7.7c-2,5.1-0.2,10.2-0.2,10.4
			l0.4,1.5l1.3-0.9C13.1,49.8,17.7,47.1,19.7,42z M13.9,45.8l-0.9,0.9l-0.2-1.3c-0.2-2.2,0-4,0.7-5.8c0.7-1.8,1.8-3.3,3.3-4.6
			l0.9-0.9l0.2,1.3c0.2,2.2,0,4-0.7,5.8C16.6,42.7,15.5,44.3,13.9,45.8z"/>
	</g>
	<g>
		<path fill="#FFFFFF" d="M19.7,31.4c-0.2-0.2-2.9-4.9-7.7-6.9c-1.5-0.7-3.3-0.9-5.3-0.9c-2.9,0-5.1,0.7-5.1,0.7L0,24.8l0.9,1.3
			C1.1,26.3,3.8,31,8.6,33c1.5,0.7,3.3,0.9,5.3,0.9c2.9,0,5.1-0.7,5.1-0.7l1.5-0.4L19.7,31.4z M15.3,31.4c-0.4,0-0.9,0-1.3,0
			c-1.5,0-3.1-0.2-4.4-0.7c-1.5-0.7-3.3-2-4.6-3.5L4,26.3l1.3-0.2c0.4,0,0.9,0,1.3,0c1.5,0,3.1,0.2,4.4,0.7c1.8,0.7,3.3,1.8,4.6,3.3
			l0.9,0.9L15.3,31.4z"/>
	</g>
	<g>
		<path fill="#FFFFFF" d="M36.5,37.8c-0.2-0.2-2.9-4.9-7.7-6.9c-1.5-0.7-3.3-0.9-5.3-0.9c-2.9,0-5.1,0.7-5.1,0.7l-1.5,0.4l0.9,1.3
			c0.2,0.2,2.9,4.9,7.7,6.9c1.5,0.7,3.3,0.9,5.3,0.9c2.9,0,5.1-0.7,5.1-0.7l1.5-0.4L36.5,37.8z M32.1,37.8c-0.4,0-0.9,0-1.3,0
			c-1.5,0-3.1-0.2-4.4-0.7c-1.8-0.7-3.3-1.8-4.6-3.3L20.8,33l1.3-0.2c0.4,0,0.9,0,1.3,0c1.5,0,3.1,0.2,4.4,0.7
			c1.8,0.7,3.3,1.8,4.6,3.3l0.9,0.9L32.1,37.8z"/>
	</g>
	<g>
		<path fill="#FFFFFF" d="M17.9,29.6h-0.7l-0.4,0.7c-0.4,0.7,0,1.3,0.9,3.1c3.5,6,2,20.6,1.1,26.8l0,0l0,0l0,0l5.1,1.1l-2.4-1.5
			L21,59.5v-0.4c0.4-2.9,1.1-8.6,1.1-14.4v-3.5l1.3,3.3c1.8,4.4,3.8,9.7,3.1,18.4l0.7,0.4l1.5-0.2l0.2-2c2.2-12.6-8.6-29.4-10-31
			C19,30.1,18.6,29.6,17.9,29.6z"/>
	</g>
	<g>
		<path fill="#FFFFFF" d="M54.2,62.8l-1.5-1.8c-1.1-1.3-2.4-2-4-2.2c0,0,0,0-0.2,0c-1.3,0-2.7,0.7-3.8,1.8l-1.5,1.5
			c-0.4,0.7-1.1,0.9-1.8,0.9l0,0c-0.7,0-1.3-0.4-2-1.1l-0.7-0.9c-1.1-1.3-2.4-2-4-2.2c0,0,0,0-0.2,0c-1.3,0-2.9,0.7-3.8,1.8
			l-1.5,1.5c-0.4,0.7-1.1,0.9-1.8,0.9s-1.3-0.2-1.8-0.9l-1.3-1.5c-1.1-1.1-2.4-1.8-4-1.8l0,0c-1.3,0-2.9,0.7-4,1.8l-2,2.2
			c-0.2,0.2-0.4,0.7-0.4,0.9c0,0.4,0.2,0.7,0.4,0.9c0.7,0.2,0.9,0.2,1.1,0.2c0.4,0,0.7-0.2,0.9-0.4l2-2.2c0.7-0.7,1.3-1.1,2-1.1
			c0.7,0,1.3,0.4,2,1.1l1.5,1.5c1.1,1.1,2.4,1.8,3.8,1.8l0,0c1.3,0,2.7-0.7,3.8-1.8l1.5-1.5c0.7-0.7,1.3-0.9,2-0.9l0,0
			c0.7,0,1.5,0.4,2,1.1l0.7,0.9c1.1,1.3,2.4,2,3.8,2c0,0,0,0,0.2,0c1.3,0,2.7-0.7,3.8-1.8l1.5-1.5c0.4-0.4,1.1-0.9,2-0.9l0,0
			c0.7,0,1.5,0.4,2,1.1l1.5,1.8c0.2,0.2,0.7,0.4,1.1,0.4c0.2,0,0.7,0,0.9-0.2C54.6,64.2,54.6,63.3,54.2,62.8z"/>
	</g>
	<g>
		<path fill="#FFFFFF" d="M54.2,69.3l-1.5-1.8c-1.1-1.3-2.4-2-4-2.2c0,0,0,0-0.2,0c-1.3,0-2.7,0.7-3.8,1.8l-1.5,1.5
			c-0.4,0.7-1.1,0.9-1.8,0.9l0,0c-0.7,0-1.3-0.4-2-1.1l-0.7-0.9c-1.1-1.3-2.4-2-4-2.2c0,0,0,0-0.2,0c-1.3,0-2.9,0.7-3.8,1.8
			l-1.5,1.5c-0.4,0.7-1.1,0.9-1.8,0.9s-1.3-0.2-1.8-0.9L24.3,67c-1.1-1.1-2.4-1.8-4-1.8l0,0c-1.3,0-2.9,0.7-4,1.8l-2,2.2
			c-0.4,0.4-0.4,1.3,0,1.8c0.2,0.2,0.4,0.4,0.9,0.4c0.4,0,0.7-0.2,0.9-0.4l2-2.2c0.7-0.7,1.3-1.1,2-1.1s1.3,0.4,2,1.1l1.5,1.5
			c1.1,1.1,2.4,1.8,3.8,1.8l0,0c1.3,0,2.7-0.7,3.8-1.8l1.5-1.5c0.7-0.7,1.3-0.9,2-0.9l0,0c0.7,0,1.5,0.4,2,1.1l0.7,0.9
			c1.1,1.3,2.4,2,3.8,2c0,0,0,0,0.2,0c1.3,0,2.7-0.7,3.8-1.8l1.5-1.5c0.4-0.4,1.1-0.9,2-0.9l0,0c0.7,0,1.5,0.4,2,1.1l1.5,1.8
			c0.2,0.2,0.7,0.4,1.1,0.4c0.2,0,0.7,0,0.9-0.2C54.6,70.6,54.6,69.7,54.2,69.3z"/>
	</g>
	<g>
		<path fill="#FFFFFF" d="M50.9,17.5c-3.8,0-6.9,3.1-6.9,6.9s3.1,6.9,6.9,6.9s6.9-3.1,6.9-6.9S54.6,17.5,50.9,17.5z M50.9,28.8
			c-2.4,0-4.2-2-4.2-4.2c0-2.4,2-4.2,4.2-4.2c2.4,0,4.2,2,4.2,4.2C55.3,26.8,53.3,28.8,50.9,28.8z"/>
		<path fill="#FFFFFF" d="M50.9,7.3c-0.7,0-1.3,0.7-1.3,1.3v6c0,0.7,0.7,1.3,1.3,1.3s1.3-0.7,1.3-1.3v-6C52.2,8,51.5,7.3,50.9,7.3z"
			/>
		<path fill="#FFFFFF" d="M50.9,33c-0.7,0-1.3,0.7-1.3,1.3v6.2c0,0.7,0.7,1.3,1.3,1.3s1.3-0.7,1.3-1.3v-6C52.2,33.6,51.5,33,50.9,33
			z"/>
		<g>
			<path fill="#FFFFFF" d="M41.1,23.2h-6c-0.7,0-1.3,0.7-1.3,1.3c0,0.7,0.7,1.3,1.3,1.3h6c0.7,0,1.3-0.7,1.3-1.3
				C42.3,23.9,41.8,23.2,41.1,23.2z"/>
		</g>
		<g>
			<path fill="#FFFFFF" d="M66.8,23.2h-6c-0.7,0-1.3,0.7-1.3,1.3c0,0.7,0.7,1.3,1.3,1.3h6c0.7,0,1.3-0.7,1.3-1.3
				C68.1,23.9,67.5,23.2,66.8,23.2z"/>
		</g>
		<g>
			<path fill="#FFFFFF" d="M38.3,14.6l4.4,4.2c0.2,0.2,0.4,0.4,0.9,0.4c0.4,0,0.7-0.2,0.9-0.4c0.4-0.4,0.4-1.3,0-1.8L40,12.8
				c-0.2-0.2-0.4-0.4-0.9-0.4c-0.4,0-0.7,0.2-0.9,0.4C37.8,13.3,37.8,14.2,38.3,14.6z"/>
		</g>
		<g>
			<path fill="#FFFFFF" d="M62.6,36.5c0.4,0,0.7-0.2,0.9-0.4s0.4-0.7,0.4-0.9c0-0.4-0.2-0.7-0.4-0.9l-4.4-4.2
				c-0.2-0.2-0.4-0.4-0.9-0.4c-0.4,0-0.7,0.2-0.9,0.4c-0.2,0.2-0.4,0.7-0.4,0.9c0,0.4,0.2,0.7,0.4,0.9l4.4,4.2
				C61.9,36.5,62.4,36.5,62.6,36.5z"/>
		</g>
		<g>
			<path fill="#FFFFFF" d="M40,37.4c0.4,0,0.7-0.2,0.9-0.4l4.2-4.4c0.4-0.4,0.4-1.3,0-1.8c-0.2-0.2-0.4-0.4-0.9-0.4
				s-0.7,0.2-0.9,0.4l-4.2,4.4c-0.2,0.2-0.4,0.7-0.4,0.9c0,0.4,0.2,0.7,0.4,0.9C39.6,37.4,39.8,37.4,40,37.4z"/>
		</g>
		<g>
			<path fill="#FFFFFF" d="M57.5,18.6c0.4,0,0.7-0.2,0.9-0.4l4.2-4.4c0.4-0.4,0.4-1.3,0-1.8c-0.2-0.2-0.7-0.4-0.9-0.4
				c-0.4,0-0.7,0.2-0.9,0.4l-4.2,4.4c-0.4,0.4-0.4,1.3,0,1.8C57.1,18.4,57.3,18.6,57.5,18.6z"/>
		</g>
	</g>
</g>
</svg>
