<?xml version="1.0" encoding="utf-8"?>
<!-- Generator: Adobe Illustrator 18.1.0, SVG Export Plug-In . SVG Version: 6.00 Build 0)  -->
<svg version="1.1" id="Слой_1" xmlns="http://www.w3.org/2000/svg" xmlns:xlink="http://www.w3.org/1999/xlink" x="0px" y="0px"
	 viewBox="0.1 56.7 102.9 64.2" enable-background="new 0.1 56.7 102.9 64.2" xml:space="preserve">
<g id="сТАРТ">
	<g>
		<g>
			<path fill="#FFFFFF" d="M63.9,120.1c-1.1,0-2.2-0.5-2.7-1.6L28,61.5c-0.8-1.6-0.3-3.6,1.1-4.4c1.6-0.8,3.6-0.3,4.4,1.1l33.1,57.2
				c0.8,1.6,0.3,3.6-1.1,4.4C65,120.1,64.4,120.1,63.9,120.1z"/>
		</g>
		<g>
			
				<rect x="1.5" y="81.2" transform="matrix(-0.8603 0.5098 -0.5098 -0.8603 57.6528 155.3896)" fill="#FFFFFF" width="12.1" height="8.8"/>
		</g>
		<g>
			
				<rect x="22.3" y="68.9" transform="matrix(-0.8603 0.5098 -0.5098 -0.8603 90.0687 121.8311)" fill="#FFFFFF" width="12.1" height="8.8"/>
		</g>
		<g>
			
				<rect x="16.3" y="82.6" transform="matrix(-0.8603 0.5098 -0.5098 -0.8603 85.8786 150.4859)" fill="#FFFFFF" width="12.1" height="8.8"/>
		</g>
		<g>
			
				<rect x="11.8" y="74.9" transform="matrix(-0.8603 0.5098 -0.5098 -0.8603 73.6705 138.4269)" fill="none" width="12.1" height="8.8"/>
		</g>
		<g>
			
				<rect x="10.5" y="96.2" transform="matrix(-0.8603 0.5098 -0.5098 -0.8603 82.0552 178.7611)" fill="#FFFFFF" width="12.1" height="8.8"/>
		</g>
		<g>
			
				<rect x="31.3" y="83.9" transform="matrix(-0.8603 0.5098 -0.5098 -0.8603 114.4711 145.2026)" fill="#FFFFFF" width="12.1" height="8.8"/>
		</g>
		<g>
			
				<rect x="20.8" y="90" transform="matrix(-0.8603 0.5098 -0.5098 -0.8603 98.0735 161.7982)" fill="none" width="12.1" height="8.8"/>
		</g>
		<g>
			
				<rect x="5.8" y="88.7" transform="matrix(-0.8603 0.5098 -0.5098 -0.8603 69.4805 167.0817)" fill="none" width="12.1" height="8.8"/>
		</g>
		<g>
			
				<rect x="26.6" y="76.3" transform="matrix(-0.8603 0.5098 -0.5098 -0.8603 101.8964 133.5232)" fill="none" width="12.1" height="8.8"/>
		</g>
	</g>
	<g>
		<g>
			<path fill="#FFFFFF" d="M39,120.9c-0.5,0-1.1-0.3-1.6-0.5c-1.6-0.8-2.2-2.7-1.1-4.4l32.9-57c0.8-1.6,2.7-2.2,4.4-1.1
				c1.6,0.8,2.2,2.7,1.1,4.4l-32.9,57C41.2,120.4,40.1,120.9,39,120.9z"/>
		</g>
		<g>
			
				<rect x="89.5" y="81" transform="matrix(0.8603 0.5098 -0.5098 0.8603 56.8573 -36.7981)" fill="#FFFFFF" width="12.1" height="8.8"/>
		</g>
		<g>
			
				<rect x="68.8" y="68.7" transform="matrix(0.8603 0.5098 -0.5098 0.8603 47.688 -27.9305)" fill="#FFFFFF" width="12.1" height="8.8"/>
		</g>
		<g>
			
				<rect x="74.8" y="82.5" transform="matrix(0.8603 0.5098 -0.5098 0.8603 55.5773 -29.0799)" fill="#FFFFFF" width="12.1" height="8.8"/>
		</g>
		<g>
			
				<rect x="79.1" y="74.9" transform="matrix(0.8603 0.5098 -0.5098 0.8603 52.3228 -32.3122)" fill="none" width="12.1" height="8.8"/>
		</g>
		<g>
			
				<rect x="80.6" y="96.2" transform="matrix(0.8603 0.5098 -0.5098 0.8603 63.3623 -30.1285)" fill="#FFFFFF" width="12.1" height="8.8"/>
		</g>
		<g>
			
				<rect x="59.9" y="83.9" transform="matrix(0.8603 0.5098 -0.5098 0.8603 54.193 -21.2609)" fill="#FFFFFF" width="12.1" height="8.8"/>
		</g>
		<g>
			
				<rect x="70.2" y="90.1" transform="matrix(0.8603 0.5098 -0.5098 0.8603 58.8279 -25.6426)" fill="none" width="12.1" height="8.8"/>
		</g>
		<g>
			
				<rect x="85.1" y="88.7" transform="matrix(0.8603 0.5098 -0.5098 0.8603 60.2122 -33.4618)" fill="none" width="12.1" height="8.8"/>
		</g>
		<g>
			
				<rect x="64.4" y="76.5" transform="matrix(0.8603 0.5098 -0.5098 0.8603 51.0428 -24.594)" fill="none" width="12.1" height="8.8"/>
		</g>
	</g>
</g>
</svg>
