<?xml version="1.0" encoding="utf-8"?>
<!-- Generator: Adobe Illustrator 18.1.0, SVG Export Plug-In . SVG Version: 6.00 Build 0)  -->
<svg version="1.1" id="Слой_1" xmlns="http://www.w3.org/2000/svg" xmlns:xlink="http://www.w3.org/1999/xlink" x="0px" y="0px"
	 viewBox="0 31.8 82.5 65.1" enable-background="new 0 31.8 82.5 65.1" xml:space="preserve">
<g id="паровоз">
	<path fill="#FFFFFF" d="M24.4,37.5H10.6C4.7,37.5,0,42.1,0,47.8V50h35v-2.2C35,42.1,30.4,37.5,24.4,37.5z M5,45.6
		c0.9-2.2,3.1-3.8,5.6-3.8h13.8c2.5,0,4.7,1.6,5.6,3.8H5z"/>
	<path fill="#FFFFFF" d="M11.3,54.3v13.8h11.9V54.3H11.3z M15,64.7v-6.6h4.7v6.6H15z"/>
	<path fill="#FFFFFF" d="M4.7,46.5V80c0,5.3,4.4,9.7,9.7,9.7h3.4l-1.3-1.3c-0.9-0.6-1.3-1.9-1.6-2.8V85h-0.6c-2.8,0-5.3-2.5-5.3-5.3
		V51.2h16.6v25.7h0.6c0,0,0,0,0.3,0c1.3,0.6,2.2,1.6,2.8,2.5l1.3,1.6V46.5H4.7z"/>
	<g>
		<path fill="#FFFFFF" d="M35.7,78.1c0,0.3,0,0.6,0,0.9c0,0.3,0,0.3-0.3,0.6L35,80v1.6v0.6h1.9l0.3-0.3l0,0c0.3-0.9,1.3-2.2,2.2-2.8
			l1.3-1.3H36L35.7,78.1z"/>
		<path fill="#FFFFFF" d="M66,55.9H26v21h0.6l0,0c0.9,0.3,1.9,0.6,2.5,1.6v0.3h0.3c0.6,0.6,0.9,1.6,1.3,2.8v0.6h2.8v-0.6V80
			l-0.3-0.3l0,0c-0.3-0.6-0.6-0.9-0.9-1.6l-0.3-0.3h-1.6V60.3H66c4.1,0,7.5,3.4,7.5,7.5v1.9c0,4.1-3.4,7.5-7.5,7.5H49.8l0.9,0.9
			c0.6,0.6,0.9,1.6,0.9,2.5l0.6,0.9H66c6.6,0,12.2-5.3,12.2-12.2v-1.9C78.2,61.2,72.6,55.9,66,55.9z"/>
	</g>
	<path fill="#FFFFFF" d="M47.3,50h-5.6c-3.1,0-5.6,2.5-5.6,5.6V60l0.9-0.3c0.9-0.3,2.2-0.3,3.1-0.3h0.6v-3.8c0-0.6,0.3-0.9,0.9-0.9
		h5.6c0.6,0,0.9,0.3,0.9,0.9V60h0.6c0.6,0,1.3,0,1.9-0.3l1.9-0.3v-3.8C52.9,52.5,50.4,50,47.3,50z"/>
	<path fill="#FFFFFF" d="M54.5,38.4L56,60h12.5l1.6-21.6H54.5z M64.2,55.6h-4.1l-0.9-12.5h5.9L64.2,55.6z"/>
	<path fill="#FFFFFF" d="M68.2,31.8H56.6c-3.1,0-5.6,2.5-5.6,5.6v0.3c0,3.1,2.5,5.6,5.6,5.6h11.6c3.1,0,5.6-2.5,5.6-5.6v-0.3
		C73.5,34.3,71,31.8,68.2,31.8z M69.2,37.5L69.2,37.5c0,0.6-0.3,1.3-0.9,1.3H56.6c-0.6,0-0.9-0.3-0.9-0.9v-0.3
		c0-0.6,0.3-0.9,0.9-0.9h11.6C68.5,36.5,69.2,36.8,69.2,37.5z"/>
	<path fill="#FFFFFF" d="M44.4,72.2c-6.9,0-12.2,5.6-12.2,12.2c0,6.6,5.6,12.2,12.2,12.2S56.6,91,56.6,84.4S51.3,72.2,44.4,72.2z
		 M52.3,84.7c0,4.4-3.4,7.8-7.8,7.8s-7.8-3.4-7.8-7.8c0-4.4,3.4-7.8,7.8-7.8S52.3,80.3,52.3,84.7z"/>
	<path fill="#FFFFFF" d="M61.3,81.3c-4.4,0-7.8,3.4-7.8,7.8s3.4,7.8,7.8,7.8s7.8-3.4,7.8-7.8S65.7,81.3,61.3,81.3z M64.5,89.1
		c0,1.9-1.6,3.1-3.1,3.1c-1.9,0-3.1-1.6-3.1-3.1c0-1.9,1.6-3.1,3.1-3.1C63.2,85.6,64.5,87.2,64.5,89.1z"/>
	<path fill="#FFFFFF" d="M23.2,72.2c-6.9,0-12.2,5.6-12.2,12.2c0,6.6,5.6,12.2,12.2,12.2S35.4,91,35.4,84.4S30,72.2,23.2,72.2z
		 M31,84.7c0,4.4-3.4,7.8-7.8,7.8s-7.8-3.4-7.8-7.8c0-4.4,3.4-7.8,7.8-7.8S31,80.3,31,84.7z"/>
	<path fill="#FFFFFF" d="M82,90.3L72,77.5c-0.3-0.6-0.9-0.9-1.9-0.9c-0.6,0-0.9,0.3-1.6,0.6c-0.9,0.6-1.3,2.2-0.3,3.1l7.2,9.1h-1.9
		c0-1.9-0.9-3.1-2.5-4.1C70.7,85,70.4,85,69.8,85c-0.9,0-1.6,0.3-1.9,1.3c-0.6,1.3-0.3,2.5,0.9,3.1c0,0,0,0.6,0,1.3
		c-0.3,0.6-0.3,1.6,0,2.2c0.3,0.6,1.3,0.9,1.9,0.9h9.1c0.9,0,1.6-0.6,2.2-1.3C82.6,91.9,82.6,91,82,90.3z"/>
	<g>
		<g>
			<path fill="#FFFFFF" d="M2.2,88.5c-0.9,0-1.6-0.6-1.6-1.6v-10c0-0.9,0.6-1.6,1.6-1.6s1.6,0.6,1.6,1.6v10
				C3.8,87.5,3.1,88.5,2.2,88.5z"/>
			<path fill="#FFFFFF" d="M2.2,89.1c-1.3,0-2.2-0.9-2.2-2.2v-10c0-1.3,0.9-2.2,2.2-2.2s2.2,0.9,2.2,2.2v10
				C4.7,87.8,3.4,89.1,2.2,89.1z M2.2,75.9c-0.6,0-0.9,0.3-0.9,0.9v10c0,0.6,0.3,0.9,0.9,0.9s0.9-0.6,0.9-1.3v-10
				C3.1,76.3,2.8,75.9,2.2,75.9z"/>
		</g>
	</g>
	<path fill="#FFFFFF" d="M7.2,79.4h-5c-1.3,0-2.2,1.3-2.2,2.5s0.9,2.2,2.2,2.2h4.7c1.6,0,2.5-0.9,2.5-2.2S8.4,79.4,7.2,79.4z"/>
	<path fill="#FFFFFF" d="M44.4,82.2H23.2c-1.3,0-2.2,0.9-2.2,2.2c0,1.3,0.9,2.2,2.2,2.2h21.3c1.3,0,2.2-0.9,2.2-2.2
		C46.6,83.5,45.7,82.2,44.4,82.2z"/>
</g>
</svg>
