<?xml version="1.0" encoding="utf-8"?>
<!-- Generator: Adobe Illustrator 18.1.0, SVG Export Plug-In . SVG Version: 6.00 Build 0)  -->
<svg version="1.1" id="Слой_1" xmlns="http://www.w3.org/2000/svg" xmlns:xlink="http://www.w3.org/1999/xlink" x="0px" y="0px"
	 viewBox="31.4 0 55.9 70.7" enable-background="new 31.4 0 55.9 70.7" xml:space="preserve">
<g id="Пистолет">
	<g>
		<path fill="#FFFFFF" d="M87.3,7.5L58.9,25.7L54,18.2L82.3,0L87.3,7.5z M59.9,21.3L82.8,6.6l-1.4-2.3L58.2,19L59.9,21.3z"/>
	</g>
	<g>
		<path fill="#FFFFFF" d="M66.7,32.1L48.4,43.3l-0.7-0.7c0,0-3.5-3-7.5-2.8c-0.9,0-1.6-0.2-2.1-0.9c-0.5-0.7-0.5-1.6,0-2.3
			c2.3-4.4,0-7.5,0-7.5L37,27.6l19.2-12.4L66.7,32.1z M48.7,39.5l13.6-8.4L55,19.7l-13.8,8.9c0.7,1.6,1.6,4.4,0,8.2
			C44.7,37,47.3,38.6,48.7,39.5z"/>
	</g>
	<g>
		<path fill="#FFFFFF" d="M43.7,70.4L43.7,70.4c-1.4,0.5-4.4,0.7-6.1-2.1c-3.5-5.4-7.3-12.9-6.1-18.2c1.2-5.6,2.1-8.9,2.1-9.1
			l0.2-0.7l0.9-0.5c0.2,0,5.4-1.6,8.9,0c1.4,0.7,3,1.4,4.9,2.6c0.9,0.5,1.4,1.4,1.6,2.6c0,1.2-0.5,2.1-1.4,2.8
			c-0.5,0.2-0.5,0.5-0.7,0.7v0.2c-0.2,1.2-0.7,3,4.2,10.3c0.9,1.2,1.2,2.3,0.9,3.5c-0.2,0.9-0.9,1.9-1.9,2.6
			c-0.2,0.2-0.5,0.2-0.5,0.2L43.7,70.4z M36.5,42.6c-0.2,1.4-1.2,4.2-1.9,8.2c-0.7,3.3,1.2,9.1,5.6,15.9c0.7,1.2,1.6,1.2,2.1,0.9
			l7.3-5.1h0.2c0,0,0,0,0.2-0.2c0.2,0,0.5-0.2,0.5-0.5c0-0.2,0-0.7-0.5-1.2c-5.4-7.7-5.4-10.5-4.7-12.9v-0.2
			c0.2-0.9,0.7-1.9,1.9-2.6c-1.9-0.9-3.3-1.9-4.7-2.3C40.7,41.9,38.1,42.3,36.5,42.6z"/>
	</g>
	<g>
		<path fill="#FFFFFF" d="M41.4,33.5c-0.2,0.2-0.7,0.2-0.9,0.2c-3.3-0.2-4.2,1.4-4.2,1.4c-0.5,0.7-1.4,1.2-2.1,0.7
			c-0.7-0.5-1.2-1.4-0.7-2.1c0-0.2,1.9-3.7,7.3-3.3c0.9,0,1.4,0.9,1.4,1.6C42.1,32.8,41.9,33.2,41.4,33.5z"/>
	</g>
	<g>
		<path fill="#FFFFFF" d="M78.8,19.4L63.2,29.5c-0.7,0.5-1.6,0.2-2.1-0.5c-0.5-0.7-0.2-1.6,0.5-2.1l15.7-10.1
			c0.7-0.5,1.6-0.2,2.1,0.5C79.8,17.8,79.5,19,78.8,19.4z"/>
	</g>
	<g>
		<path fill="#FFFFFF" d="M58,47.5c-2.8,1.9-5.4,1.9-7.5,0.2c-1.2-0.9-2.1-2.6-2.1-4.2c-0.2-1.4,0.2-2.6,0.9-3.5
			c1.2-1.4,3-0.5,4.2-0.2c0.5,0.2,1.2,0.5,1.4,0.5c0.9-0.2,1.6,0.5,1.9,1.4c0.2,0.9-0.5,1.6-1.4,1.9c-1.2,0.2-2.3-0.2-3-0.7
			c-0.2,0-0.5-0.2-0.7-0.2c0,0.2,0,0.5,0,0.9c0,0.7,0.5,1.6,0.9,1.9c0.7,0.5,1.6,1.4,4.9-1.2c2.1-1.6,2.1-2.3,2.3-3.7
			c0-0.2,0-0.5,0-0.5c0-0.5-0.7-1.9-1.6-3c-0.5-0.7-0.5-1.6,0.2-2.1c0.7-0.5,1.6-0.5,2.1,0.2c0.5,0.7,2.3,3.3,2.3,5.1
			c0,0.2,0,0.2,0,0.5c0,2.1-0.2,3.5-3.5,6.1C58.9,47,58.5,47.3,58,47.5z"/>
	</g>
	<g>
		<path fill="#FFFFFF" d="M79.3,5.1c-0.7,0.5-1.6,0.2-2.1-0.5L76.3,3c-0.7-0.7-0.5-1.6,0.2-2.1c0.7-0.5,1.6-0.2,2.1,0.5L79.5,3
			C80.2,3.7,80,4.7,79.3,5.1z"/>
	</g>
	<g>
		<path fill="#FFFFFF" d="M60.6,30.9l-11.9,7.7L42.6,29l11.9-7.7L60.6,30.9z M49.6,34.2l6.6-4.2l-2.8-4.4l-6.6,4.2L49.6,34.2z"/>
	</g>
	<g>
		<path fill="#FFFFFF" d="M55.9,29l-3.7,2.3c-0.7,0.5-1.6,0.2-2.1-0.5c-0.5-0.7-0.2-1.6,0.5-2.1l3.7-2.3c0.7-0.5,1.6-0.2,2.1,0.5
			C56.8,27.6,56.6,28.5,55.9,29z"/>
	</g>
	<g>
		<path fill="#FFFFFF" d="M43.5,59.9L43.5,59.9c0.9-0.5,2.1-0.2,2.6,0.5l0,0c0.5,0.9,0.2,2.1-0.5,2.6l0,0c-0.9,0.5-2.1,0.2-2.6-0.5
			l0,0C42.3,61.8,42.8,60.6,43.5,59.9z"/>
	</g>
	<g>
		<circle fill="#FFFFFF" cx="39.1" cy="45.2" r="1.6"/>
	</g>
</g>
</svg>
