<?xml version="1.0" encoding="utf-8"?>
<!-- Generator: Adobe Illustrator 18.1.0, SVG Export Plug-In . SVG Version: 6.00 Build 0)  -->
<svg version="1.1" id="Слой_1" xmlns="http://www.w3.org/2000/svg" xmlns:xlink="http://www.w3.org/1999/xlink" x="0px" y="0px"
	 viewBox="0 0 68.2 67.9" enable-background="new 0 0 68.2 67.9" xml:space="preserve">
<g id="Рулетка">
	<g>
		<g>
			<path fill="#FFFFFF" d="M34.1,67.9C15.3,67.9,0,52.9,0,34.1S15.3,0,34.1,0s34.1,15.3,34.1,34.1C67.9,52.9,52.9,67.9,34.1,67.9z
				 M34.1,4.9C18,4.9,4.9,18,4.9,34.1S18,63.3,34.1,63.3s29.2-13.1,29.2-29.2S50.2,4.9,34.1,4.9z"/>
		</g>
		<g>
			<path fill="#FFFFFF" d="M20.7,18.5c1.1-1.1,2.5-1.9,3.8-2.7l-1.6-4.4c-1.9,0.8-3.8,2.2-5.5,3.5L20.7,18.5z"/>
			<path fill="#FFFFFF" d="M14.7,40.4c-0.5-1.4-0.8-3-0.8-4.6H8.7c0.3,2.2,0.5,4.4,1.4,6.5L14.7,40.4z"/>
			<path fill="#FFFFFF" d="M15.8,24.8c0.8-1.4,1.6-2.7,2.7-3.8L15,17.5c-1.4,1.6-2.7,3.5-3.5,5.5L15.8,24.8z"/>
			<path fill="#FFFFFF" d="M13.6,32.5c0-1.6,0.5-3.3,0.8-4.6l-4.4-1.9c-0.8,2.2-1.1,4.4-1.4,6.5H13.6z"/>
			<path fill="#FFFFFF" d="M27.8,14.7c1.4-0.5,3-0.8,4.6-0.8V8.7C30,9,27.8,9.5,25.9,10.1L27.8,14.7z"/>
			<path fill="#FFFFFF" d="M52.9,17.5L49.4,21c1.1,1.1,1.9,2.5,2.7,3.8l4.6-1.9C55.6,21,54.3,19.1,52.9,17.5z"/>
			<path fill="#FFFFFF" d="M43.4,15.8c1.4,0.8,2.7,1.6,3.8,2.7l3.5-3.5c-1.6-1.4-3.5-2.7-5.5-3.8L43.4,15.8z"/>
			<path fill="#FFFFFF" d="M35.7,13.6c1.6,0,3.3,0.5,4.6,0.8l1.9-4.6c-2.2-0.8-4.4-1.1-6.5-1.4V13.6z"/>
			<path fill="#FFFFFF" d="M52.1,43.4c-0.8,1.4-1.6,2.7-2.7,3.8l3.5,3.5c1.4-1.6,2.7-3.5,3.8-5.5L52.1,43.4z"/>
			<path fill="#FFFFFF" d="M18.5,47.2c-1.1-1.1-1.9-2.5-2.7-3.8l-4.6,1.9c1.1,1.9,2.2,3.8,3.8,5.5L18.5,47.2z"/>
			<path fill="#FFFFFF" d="M47.2,49.4c-1.1,1.1-2.5,1.9-3.8,2.7l1.9,4.6c1.9-1.1,3.8-2.2,5.5-3.8L47.2,49.4z"/>
			<path fill="#FFFFFF" d="M53.5,27.8c0.5,1.4,0.8,3,0.8,4.6h4.9c-0.3-2.2-0.5-4.4-1.4-6.5L53.5,27.8z"/>
			<path fill="#FFFFFF" d="M54.3,35.7c0,1.6-0.5,3.3-0.8,4.6l4.6,1.9c0.8-2.2,1.1-4.4,1.4-6.5H54.3z"/>
			<path fill="#FFFFFF" d="M24.8,52.1c-1.4-0.8-2.7-1.6-3.8-2.7l-3.5,3.5c1.6,1.4,3.5,2.7,5.5,3.8L24.8,52.1z"/>
			<path fill="#FFFFFF" d="M32.5,54.3c-1.6,0-3.3-0.5-4.6-0.8l-1.9,4.6c2.2,0.8,4.4,1.1,6.5,1.4V54.3z"/>
			<path fill="#FFFFFF" d="M40.4,53.5c-1.4,0.5-3,0.8-4.6,0.8v4.9c2.2-0.3,4.4-0.5,6.5-1.4L40.4,53.5z"/>
		</g>
		<path fill="#FFFFFF" d="M46.4,29.7c-1.6,0-3,0.5-3.8,1.9h-4.1c-1.4,0-2.2-1.1-2.2-2.2v-4.4c1.4-0.5,2.2-1.9,1.9-3.5
			c0-2.2-1.9-3.8-4.1-4.1c-2.5,0-4.4,1.9-4.4,4.4c0,1.4,0.8,2.7,1.9,3.5v3.8c0,1.4-1.1,2.5-2.5,2.5h-3.8c-0.8-1.1-2.2-1.9-3.8-1.9
			c-2.2,0-3.8,1.9-4.1,4.1c0,2.5,1.9,4.4,4.4,4.4c1.4,0,2.7-0.8,3.5-1.9h4.1c1.1,0,2.2,1.1,2.2,2.2v4.1c-1.1,0.8-1.9,2.2-1.9,3.8
			c0,2.2,1.9,3.8,4.1,4.1c2.5,0,4.4-1.9,4.4-4.4c0-1.4-0.8-2.7-1.9-3.5v-4.1c0-1.1,1.1-2.2,2.2-2.2h4.1c0.8,1.1,1.9,1.9,3.5,1.9
			c2.5,0,4.4-1.9,4.4-4.4C50.5,31.6,48.6,29.7,46.4,29.7z M34.1,36.8c-1.6,0-2.7-1.1-2.7-2.7s1.1-2.7,2.7-2.7s2.7,1.1,2.7,2.7
			C36.8,35.5,35.5,36.8,34.1,36.8z"/>
	</g>
	<g>
		<g>
			<path fill="#FFFFFF" d="M34.1,67.9C15.3,67.9,0,52.9,0,34.1S15.3,0,34.1,0s34.1,15.3,34.1,34.1C67.9,52.9,52.9,67.9,34.1,67.9z
				 M34.1,4.9C18,4.9,4.9,18,4.9,34.1S18,63.3,34.1,63.3s29.2-13.1,29.2-29.2S50.2,4.9,34.1,4.9z"/>
		</g>
		<g>
			<path fill="#FFFFFF" d="M20.7,18.5c1.1-1.1,2.5-1.9,3.8-2.7l-1.6-4.4c-1.9,0.8-3.8,2.2-5.5,3.5L20.7,18.5z"/>
			<path fill="#FFFFFF" d="M14.7,40.4c-0.5-1.4-0.8-3-0.8-4.6H8.7c0.3,2.2,0.5,4.4,1.4,6.5L14.7,40.4z"/>
			<path fill="#FFFFFF" d="M15.8,24.8c0.8-1.4,1.6-2.7,2.7-3.8L15,17.5c-1.4,1.6-2.7,3.5-3.5,5.5L15.8,24.8z"/>
			<path fill="#FFFFFF" d="M13.6,32.5c0-1.6,0.5-3.3,0.8-4.6l-4.4-1.9c-0.8,2.2-1.1,4.4-1.4,6.5H13.6z"/>
			<path fill="#FFFFFF" d="M27.8,14.7c1.4-0.5,3-0.8,4.6-0.8V8.7C30,9,27.8,9.5,25.9,10.1L27.8,14.7z"/>
			<path fill="#FFFFFF" d="M52.9,17.5L49.4,21c1.1,1.1,1.9,2.5,2.7,3.8l4.6-1.9C55.6,21,54.3,19.1,52.9,17.5z"/>
			<path fill="#FFFFFF" d="M43.4,15.8c1.4,0.8,2.7,1.6,3.8,2.7l3.5-3.5c-1.6-1.4-3.5-2.7-5.5-3.8L43.4,15.8z"/>
			<path fill="#FFFFFF" d="M35.7,13.6c1.6,0,3.3,0.5,4.6,0.8l1.9-4.6c-2.2-0.8-4.4-1.1-6.5-1.4V13.6z"/>
			<path fill="#FFFFFF" d="M52.1,43.4c-0.8,1.4-1.6,2.7-2.7,3.8l3.5,3.5c1.4-1.6,2.7-3.5,3.8-5.5L52.1,43.4z"/>
			<path fill="#FFFFFF" d="M18.5,47.2c-1.1-1.1-1.9-2.5-2.7-3.8l-4.6,1.9c1.1,1.9,2.2,3.8,3.8,5.5L18.5,47.2z"/>
			<path fill="#FFFFFF" d="M47.2,49.4c-1.1,1.1-2.5,1.9-3.8,2.7l1.9,4.6c1.9-1.1,3.8-2.2,5.5-3.8L47.2,49.4z"/>
			<path fill="#FFFFFF" d="M53.5,27.8c0.5,1.4,0.8,3,0.8,4.6h4.9c-0.3-2.2-0.5-4.4-1.4-6.5L53.5,27.8z"/>
			<path fill="#FFFFFF" d="M54.3,35.7c0,1.6-0.5,3.3-0.8,4.6l4.6,1.9c0.8-2.2,1.1-4.4,1.4-6.5H54.3z"/>
			<path fill="#FFFFFF" d="M24.8,52.1c-1.4-0.8-2.7-1.6-3.8-2.7l-3.5,3.5c1.6,1.4,3.5,2.7,5.5,3.8L24.8,52.1z"/>
			<path fill="#FFFFFF" d="M32.5,54.3c-1.6,0-3.3-0.5-4.6-0.8l-1.9,4.6c2.2,0.8,4.4,1.1,6.5,1.4V54.3z"/>
			<path fill="#FFFFFF" d="M40.4,53.5c-1.4,0.5-3,0.8-4.6,0.8v4.9c2.2-0.3,4.4-0.5,6.5-1.4L40.4,53.5z"/>
		</g>
		<path fill="#FFFFFF" d="M46.4,29.7c-1.6,0-3,0.5-3.8,1.9h-4.1c-1.4,0-2.2-1.1-2.2-2.2v-4.4c1.4-0.5,2.2-1.9,1.9-3.5
			c0-2.2-1.9-3.8-4.1-4.1c-2.5,0-4.4,1.9-4.4,4.4c0,1.4,0.8,2.7,1.9,3.5v3.8c0,1.4-1.1,2.5-2.5,2.5h-3.8c-0.8-1.1-2.2-1.9-3.8-1.9
			c-2.2,0-3.8,1.9-4.1,4.1c0,2.5,1.9,4.4,4.4,4.4c1.4,0,2.7-0.8,3.5-1.9h4.1c1.1,0,2.2,1.1,2.2,2.2v4.1c-1.1,0.8-1.9,2.2-1.9,3.8
			c0,2.2,1.9,3.8,4.1,4.1c2.5,0,4.4-1.9,4.4-4.4c0-1.4-0.8-2.7-1.9-3.5v-4.1c0-1.1,1.1-2.2,2.2-2.2h4.1c0.8,1.1,1.9,1.9,3.5,1.9
			c2.5,0,4.4-1.9,4.4-4.4C50.5,31.6,48.6,29.7,46.4,29.7z M34.1,36.8c-1.6,0-2.7-1.1-2.7-2.7s1.1-2.7,2.7-2.7s2.7,1.1,2.7,2.7
			C36.8,35.5,35.5,36.8,34.1,36.8z"/>
	</g>
</g>
</svg>
