<?xml version="1.0" encoding="utf-8"?>
<!-- Generator: Adobe Illustrator 18.1.0, SVG Export Plug-In . SVG Version: 6.00 Build 0)  -->
<svg version="1.1" id="Слой_1" xmlns="http://www.w3.org/2000/svg" xmlns:xlink="http://www.w3.org/1999/xlink" x="0px" y="0px"
	 viewBox="0 0 68.2 67.9" enable-background="new 0 0 68.2 67.9" xml:space="preserve">
<g id="Рулетка">
	<g>
		<g>
			
				<linearGradient id="SVGID_1_" gradientUnits="userSpaceOnUse" x1="0.6639" y1="295.3895" x2="5.016" y2="298.9856" gradientTransform="matrix(12.0482 0 0 -12.0482 0 3614.458)">
				<stop  offset="0" style="stop-color:#D4006A"/>
				<stop  offset="1" style="stop-color:#FE6442"/>
			</linearGradient>
			<path fill="url(#SVGID_1_)" d="M34.1,67.9C15.3,67.9,0,52.9,0,34.1S15.3,0,34.1,0s34.1,15.3,34.1,34.1
				C67.9,52.9,52.9,67.9,34.1,67.9z M34.1,4.9C18,4.9,4.9,18,4.9,34.1S18,63.3,34.1,63.3s29.2-13.1,29.2-29.2S50.2,4.9,34.1,4.9z"/>
		</g>
		<g>
			
				<linearGradient id="SVGID_2_" gradientUnits="userSpaceOnUse" x1="-0.5339" y1="296.839" x2="3.8182" y2="300.4352" gradientTransform="matrix(12.0482 0 0 -12.0482 0 3614.458)">
				<stop  offset="0" style="stop-color:#D4006A"/>
				<stop  offset="1" style="stop-color:#FE6442"/>
			</linearGradient>
			<path fill="url(#SVGID_2_)" d="M20.7,18.5c1.1-1.1,2.5-1.9,3.8-2.7l-1.6-4.4c-1.9,0.8-3.8,2.2-5.5,3.5L20.7,18.5z"/>
			
				<linearGradient id="SVGID_3_" gradientUnits="userSpaceOnUse" x1="7.652701e-002" y1="296.1003" x2="4.4287" y2="299.6964" gradientTransform="matrix(12.0482 0 0 -12.0482 0 3614.458)">
				<stop  offset="0" style="stop-color:#D4006A"/>
				<stop  offset="1" style="stop-color:#FE6442"/>
			</linearGradient>
			<path fill="url(#SVGID_3_)" d="M14.7,40.4c-0.5-1.4-0.8-3-0.8-4.6H8.7c0.3,2.2,0.5,4.4,1.4,6.5L14.7,40.4z"/>
			
				<linearGradient id="SVGID_4_" gradientUnits="userSpaceOnUse" x1="-0.4888" y1="296.7844" x2="3.8634" y2="300.3805" gradientTransform="matrix(12.0482 0 0 -12.0482 0 3614.458)">
				<stop  offset="0" style="stop-color:#D4006A"/>
				<stop  offset="1" style="stop-color:#FE6442"/>
			</linearGradient>
			<path fill="url(#SVGID_4_)" d="M15.8,24.8c0.8-1.4,1.6-2.7,2.7-3.8L15,17.5c-1.4,1.6-2.7,3.5-3.5,5.5L15.8,24.8z"/>
			
				<linearGradient id="SVGID_5_" gradientUnits="userSpaceOnUse" x1="-0.2802" y1="296.532" x2="4.0719" y2="300.1281" gradientTransform="matrix(12.0482 0 0 -12.0482 0 3614.458)">
				<stop  offset="0" style="stop-color:#D4006A"/>
				<stop  offset="1" style="stop-color:#FE6442"/>
			</linearGradient>
			<path fill="url(#SVGID_5_)" d="M13.6,32.5c0-1.6,0.5-3.3,0.8-4.6l-4.4-1.9c-0.8,2.2-1.1,4.4-1.4,6.5H13.6z"/>
			
				<linearGradient id="SVGID_6_" gradientUnits="userSpaceOnUse" x1="-0.3973" y1="296.6736" x2="3.9549" y2="300.2698" gradientTransform="matrix(12.0482 0 0 -12.0482 0 3614.458)">
				<stop  offset="0" style="stop-color:#D4006A"/>
				<stop  offset="1" style="stop-color:#FE6442"/>
			</linearGradient>
			<path fill="url(#SVGID_6_)" d="M27.8,14.7c1.4-0.5,3-0.8,4.6-0.8V8.7C30,9,27.8,9.5,25.9,10.1L27.8,14.7z"/>
			
				<linearGradient id="SVGID_7_" gradientUnits="userSpaceOnUse" x1="0.7998" y1="295.2249" x2="5.1519" y2="298.8211" gradientTransform="matrix(12.0482 0 0 -12.0482 0 3614.458)">
				<stop  offset="0" style="stop-color:#D4006A"/>
				<stop  offset="1" style="stop-color:#FE6442"/>
			</linearGradient>
			<path fill="url(#SVGID_7_)" d="M52.9,17.5L49.4,21c1.1,1.1,1.9,2.5,2.7,3.8l4.6-1.9C55.6,21,54.3,19.1,52.9,17.5z"/>
			
				<linearGradient id="SVGID_8_" gradientUnits="userSpaceOnUse" x1="0.2936" y1="295.8375" x2="4.6458" y2="299.4337" gradientTransform="matrix(12.0482 0 0 -12.0482 0 3614.458)">
				<stop  offset="0" style="stop-color:#D4006A"/>
				<stop  offset="1" style="stop-color:#FE6442"/>
			</linearGradient>
			<path fill="url(#SVGID_8_)" d="M43.4,15.8c1.4,0.8,2.7,1.6,3.8,2.7l3.5-3.5c-1.6-1.4-3.5-2.7-5.5-3.8L43.4,15.8z"/>
			
				<linearGradient id="SVGID_9_" gradientUnits="userSpaceOnUse" x1="-0.1209" y1="296.3392" x2="4.2312" y2="299.9354" gradientTransform="matrix(12.0482 0 0 -12.0482 0 3614.458)">
				<stop  offset="0" style="stop-color:#D4006A"/>
				<stop  offset="1" style="stop-color:#FE6442"/>
			</linearGradient>
			<path fill="url(#SVGID_9_)" d="M35.7,13.6c1.6,0,3.3,0.5,4.6,0.8l1.9-4.6c-2.2-0.8-4.4-1.1-6.5-1.4V13.6z"/>
			
				<linearGradient id="SVGID_10_" gradientUnits="userSpaceOnUse" x1="1.8168" y1="293.9941" x2="6.169" y2="297.5903" gradientTransform="matrix(12.0482 0 0 -12.0482 0 3614.458)">
				<stop  offset="0" style="stop-color:#D4006A"/>
				<stop  offset="1" style="stop-color:#FE6442"/>
			</linearGradient>
			<path fill="url(#SVGID_10_)" d="M52.1,43.4c-0.8,1.4-1.6,2.7-2.7,3.8l3.5,3.5c1.4-1.6,2.7-3.5,3.8-5.5L52.1,43.4z"/>
			
				<linearGradient id="SVGID_11_" gradientUnits="userSpaceOnUse" x1="0.5283" y1="295.5535" x2="4.8804" y2="299.1497" gradientTransform="matrix(12.0482 0 0 -12.0482 0 3614.458)">
				<stop  offset="0" style="stop-color:#D4006A"/>
				<stop  offset="1" style="stop-color:#FE6442"/>
			</linearGradient>
			<path fill="url(#SVGID_11_)" d="M18.5,47.2c-1.1-1.1-1.9-2.5-2.7-3.8l-4.6,1.9c1.1,1.9,2.2,3.8,3.8,5.5L18.5,47.2z"/>
			
				<linearGradient id="SVGID_12_" gradientUnits="userSpaceOnUse" x1="1.8572" y1="293.9453" x2="6.2093" y2="297.5415" gradientTransform="matrix(12.0482 0 0 -12.0482 0 3614.458)">
				<stop  offset="0" style="stop-color:#D4006A"/>
				<stop  offset="1" style="stop-color:#FE6442"/>
			</linearGradient>
			<path fill="url(#SVGID_12_)" d="M47.2,49.4c-1.1,1.1-2.5,1.9-3.8,2.7l1.9,4.6c1.9-1.1,3.8-2.2,5.5-3.8L47.2,49.4z"/>
			
				<linearGradient id="SVGID_13_" gradientUnits="userSpaceOnUse" x1="1.2561" y1="294.6727" x2="5.6083" y2="298.2688" gradientTransform="matrix(12.0482 0 0 -12.0482 0 3614.458)">
				<stop  offset="0" style="stop-color:#D4006A"/>
				<stop  offset="1" style="stop-color:#FE6442"/>
			</linearGradient>
			<path fill="url(#SVGID_13_)" d="M53.5,27.8c0.5,1.4,0.8,3,0.8,4.6h4.9c-0.3-2.2-0.5-4.4-1.4-6.5L53.5,27.8z"/>
			
				<linearGradient id="SVGID_14_" gradientUnits="userSpaceOnUse" x1="1.6129" y1="294.2409" x2="5.965" y2="297.8371" gradientTransform="matrix(12.0482 0 0 -12.0482 0 3614.458)">
				<stop  offset="0" style="stop-color:#D4006A"/>
				<stop  offset="1" style="stop-color:#FE6442"/>
			</linearGradient>
			<path fill="url(#SVGID_14_)" d="M54.3,35.7c0,1.6-0.5,3.3-0.8,4.6l4.6,1.9c0.8-2.2,1.1-4.4,1.4-6.5H54.3z"/>
			
				<linearGradient id="SVGID_15_" gradientUnits="userSpaceOnUse" x1="1.0325" y1="294.9433" x2="5.3847" y2="298.5395" gradientTransform="matrix(12.0482 0 0 -12.0482 0 3614.458)">
				<stop  offset="0" style="stop-color:#D4006A"/>
				<stop  offset="1" style="stop-color:#FE6442"/>
			</linearGradient>
			<path fill="url(#SVGID_15_)" d="M24.8,52.1c-1.4-0.8-2.7-1.6-3.8-2.7l-3.5,3.5c1.6,1.4,3.5,2.7,5.5,3.8L24.8,52.1z"/>
			
				<linearGradient id="SVGID_16_" gradientUnits="userSpaceOnUse" x1="1.4471" y1="294.4416" x2="5.7992" y2="298.0378" gradientTransform="matrix(12.0482 0 0 -12.0482 0 3614.458)">
				<stop  offset="0" style="stop-color:#D4006A"/>
				<stop  offset="1" style="stop-color:#FE6442"/>
			</linearGradient>
			<path fill="url(#SVGID_16_)" d="M32.5,54.3c-1.6,0-3.3-0.5-4.6-0.8l-1.9,4.6c2.2,0.8,4.4,1.1,6.5,1.4V54.3z"/>
			
				<linearGradient id="SVGID_17_" gradientUnits="userSpaceOnUse" x1="1.729" y1="294.1004" x2="6.0811" y2="297.6966" gradientTransform="matrix(12.0482 0 0 -12.0482 0 3614.458)">
				<stop  offset="0" style="stop-color:#D4006A"/>
				<stop  offset="1" style="stop-color:#FE6442"/>
			</linearGradient>
			<path fill="url(#SVGID_17_)" d="M40.4,53.5c-1.4,0.5-3,0.8-4.6,0.8v4.9c2.2-0.3,4.4-0.5,6.5-1.4L40.4,53.5z"/>
		</g>
		
			<linearGradient id="SVGID_18_" gradientUnits="userSpaceOnUse" x1="0.6585" y1="295.396" x2="5.0106" y2="298.9921" gradientTransform="matrix(12.0482 0 0 -12.0482 0 3614.458)">
			<stop  offset="0" style="stop-color:#D4006A"/>
			<stop  offset="1" style="stop-color:#FE6442"/>
		</linearGradient>
		<path fill="url(#SVGID_18_)" d="M46.4,29.7c-1.6,0-3,0.5-3.8,1.9h-4.1c-1.4,0-2.2-1.1-2.2-2.2v-4.4c1.4-0.5,2.2-1.9,1.9-3.5
			c0-2.2-1.9-3.8-4.1-4.1c-2.5,0-4.4,1.9-4.4,4.4c0,1.4,0.8,2.7,1.9,3.5v3.8c0,1.4-1.1,2.5-2.5,2.5h-3.8c-0.8-1.1-2.2-1.9-3.8-1.9
			c-2.2,0-3.8,1.9-4.1,4.1c0,2.5,1.9,4.4,4.4,4.4c1.4,0,2.7-0.8,3.5-1.9h4.1c1.1,0,2.2,1.1,2.2,2.2v4.1c-1.1,0.8-1.9,2.2-1.9,3.8
			c0,2.2,1.9,3.8,4.1,4.1c2.5,0,4.4-1.9,4.4-4.4c0-1.4-0.8-2.7-1.9-3.5v-4.1c0-1.1,1.1-2.2,2.2-2.2h4.1c0.8,1.1,1.9,1.9,3.5,1.9
			c2.5,0,4.4-1.9,4.4-4.4C50.5,31.6,48.6,29.7,46.4,29.7z M34.1,36.8c-1.6,0-2.7-1.1-2.7-2.7s1.1-2.7,2.7-2.7s2.7,1.1,2.7,2.7
			C36.8,35.5,35.5,36.8,34.1,36.8z"/>
	</g>
	<g>
		<g>
			
				<linearGradient id="SVGID_19_" gradientUnits="userSpaceOnUse" x1="1.137" y1="296.2254" x2="4.5773" y2="298.1643" gradientTransform="matrix(12.0482 0 0 -12.0482 0 3614.458)">
				<stop  offset="0" style="stop-color:#D4006A"/>
				<stop  offset="1" style="stop-color:#FE6442"/>
			</linearGradient>
			<path fill="url(#SVGID_19_)" d="M34.1,67.9C15.3,67.9,0,52.9,0,34.1S15.3,0,34.1,0s34.1,15.3,34.1,34.1
				C67.9,52.9,52.9,67.9,34.1,67.9z M34.1,4.9C18,4.9,4.9,18,4.9,34.1S18,63.3,34.1,63.3s29.2-13.1,29.2-29.2S50.2,4.9,34.1,4.9z"/>
		</g>
		<g>
			
				<linearGradient id="SVGID_20_" gradientUnits="userSpaceOnUse" x1="1.6028" y1="298.6412" x2="1.9365" y2="298.8293" gradientTransform="matrix(12.0482 0 0 -12.0482 0 3614.458)">
				<stop  offset="0" style="stop-color:#D4006A"/>
				<stop  offset="1" style="stop-color:#FE6442"/>
			</linearGradient>
			<path fill="url(#SVGID_20_)" d="M20.7,18.5c1.1-1.1,2.5-1.9,3.8-2.7l-1.6-4.4c-1.9,0.8-3.8,2.2-5.5,3.5L20.7,18.5z"/>
			
				<linearGradient id="SVGID_21_" gradientUnits="userSpaceOnUse" x1="0.8005" y1="296.7439" x2="1.1208" y2="296.9244" gradientTransform="matrix(12.0482 0 0 -12.0482 0 3614.458)">
				<stop  offset="0" style="stop-color:#D4006A"/>
				<stop  offset="1" style="stop-color:#FE6442"/>
			</linearGradient>
			<path fill="url(#SVGID_21_)" d="M14.7,40.4c-0.5-1.4-0.8-3-0.8-4.6H8.7c0.3,2.2,0.5,4.4,1.4,6.5L14.7,40.4z"/>
			
				<linearGradient id="SVGID_22_" gradientUnits="userSpaceOnUse" x1="1.0468" y1="298.1143" x2="1.4124" y2="298.3203" gradientTransform="matrix(12.0482 0 0 -12.0482 0 3614.458)">
				<stop  offset="0" style="stop-color:#D4006A"/>
				<stop  offset="1" style="stop-color:#FE6442"/>
			</linearGradient>
			<path fill="url(#SVGID_22_)" d="M15.8,24.8c0.8-1.4,1.6-2.7,2.7-3.8L15,17.5c-1.4,1.6-2.7,3.5-3.5,5.5L15.8,24.8z"/>
			
				<linearGradient id="SVGID_23_" gradientUnits="userSpaceOnUse" x1="0.765" y1="297.4534" x2="1.1361" y2="297.6626" gradientTransform="matrix(12.0482 0 0 -12.0482 0 3614.458)">
				<stop  offset="0" style="stop-color:#D4006A"/>
				<stop  offset="1" style="stop-color:#FE6442"/>
			</linearGradient>
			<path fill="url(#SVGID_23_)" d="M13.6,32.5c0-1.6,0.5-3.3,0.8-4.6l-4.4-1.9c-0.8,2.2-1.1,4.4-1.4,6.5H13.6z"/>
			
				<linearGradient id="SVGID_24_" gradientUnits="userSpaceOnUse" x1="2.3171" y1="298.9443" x2="2.665" y2="299.1404" gradientTransform="matrix(12.0482 0 0 -12.0482 0 3614.458)">
				<stop  offset="0" style="stop-color:#D4006A"/>
				<stop  offset="1" style="stop-color:#FE6442"/>
			</linearGradient>
			<path fill="url(#SVGID_24_)" d="M27.8,14.7c1.4-0.5,3-0.8,4.6-0.8V8.7C30,9,27.8,9.5,25.9,10.1L27.8,14.7z"/>
			
				<linearGradient id="SVGID_25_" gradientUnits="userSpaceOnUse" x1="4.2517" y1="298.1558" x2="4.518" y2="298.3059" gradientTransform="matrix(12.0482 0 0 -12.0482 0 3614.458)">
				<stop  offset="0" style="stop-color:#D4006A"/>
				<stop  offset="1" style="stop-color:#FE6442"/>
			</linearGradient>
			<path fill="url(#SVGID_25_)" d="M52.9,17.5L49.4,21c1.1,1.1,1.9,2.5,2.7,3.8l4.6-1.9C55.6,21,54.3,19.1,52.9,17.5z"/>
			
				<linearGradient id="SVGID_26_" gradientUnits="userSpaceOnUse" x1="3.6919" y1="298.6838" x2="4.0377" y2="298.8787" gradientTransform="matrix(12.0482 0 0 -12.0482 0 3614.458)">
				<stop  offset="0" style="stop-color:#D4006A"/>
				<stop  offset="1" style="stop-color:#FE6442"/>
			</linearGradient>
			<path fill="url(#SVGID_26_)" d="M43.4,15.8c1.4,0.8,2.7,1.6,3.8,2.7l3.5-3.5c-1.6-1.4-3.5-2.7-5.5-3.8L43.4,15.8z"/>
			
				<linearGradient id="SVGID_27_" gradientUnits="userSpaceOnUse" x1="3.0102" y1="298.9655" x2="3.3859" y2="299.1772" gradientTransform="matrix(12.0482 0 0 -12.0482 0 3614.458)">
				<stop  offset="0" style="stop-color:#D4006A"/>
				<stop  offset="1" style="stop-color:#FE6442"/>
			</linearGradient>
			<path fill="url(#SVGID_27_)" d="M35.7,13.6c1.6,0,3.3,0.5,4.6,0.8l1.9-4.6c-2.2-0.8-4.4-1.1-6.5-1.4V13.6z"/>
			
				<linearGradient id="SVGID_28_" gradientUnits="userSpaceOnUse" x1="4.2465" y1="296.0312" x2="4.6122" y2="296.2373" gradientTransform="matrix(12.0482 0 0 -12.0482 0 3614.458)">
				<stop  offset="0" style="stop-color:#D4006A"/>
				<stop  offset="1" style="stop-color:#FE6442"/>
			</linearGradient>
			<path fill="url(#SVGID_28_)" d="M52.1,43.4c-0.8,1.4-1.6,2.7-2.7,3.8l3.5,3.5c1.4-1.6,2.7-3.5,3.8-5.5L52.1,43.4z"/>
			
				<linearGradient id="SVGID_29_" gradientUnits="userSpaceOnUse" x1="1.138" y1="296.0439" x2="1.4042" y2="296.1939" gradientTransform="matrix(12.0482 0 0 -12.0482 0 3614.458)">
				<stop  offset="0" style="stop-color:#D4006A"/>
				<stop  offset="1" style="stop-color:#FE6442"/>
			</linearGradient>
			<path fill="url(#SVGID_29_)" d="M18.5,47.2c-1.1-1.1-1.9-2.5-2.7-3.8l-4.6,1.9c1.1,1.9,2.2,3.8,3.8,5.5L18.5,47.2z"/>
			
				<linearGradient id="SVGID_30_" gradientUnits="userSpaceOnUse" x1="3.7176" y1="295.5284" x2="4.0516" y2="295.7167" gradientTransform="matrix(12.0482 0 0 -12.0482 0 3614.458)">
				<stop  offset="0" style="stop-color:#D4006A"/>
				<stop  offset="1" style="stop-color:#FE6442"/>
			</linearGradient>
			<path fill="url(#SVGID_30_)" d="M47.2,49.4c-1.1,1.1-2.5,1.9-3.8,2.7l1.9,4.6c1.9-1.1,3.8-2.2,5.5-3.8L47.2,49.4z"/>
			
				<linearGradient id="SVGID_31_" gradientUnits="userSpaceOnUse" x1="4.5396" y1="297.4215" x2="4.8597" y2="297.6019" gradientTransform="matrix(12.0482 0 0 -12.0482 0 3614.458)">
				<stop  offset="0" style="stop-color:#D4006A"/>
				<stop  offset="1" style="stop-color:#FE6442"/>
			</linearGradient>
			<path fill="url(#SVGID_31_)" d="M53.5,27.8c0.5,1.4,0.8,3,0.8,4.6h4.9c-0.3-2.2-0.5-4.4-1.4-6.5L53.5,27.8z"/>
			
				<linearGradient id="SVGID_32_" gradientUnits="userSpaceOnUse" x1="4.5256" y1="296.6841" x2="4.8966" y2="296.8932" gradientTransform="matrix(12.0482 0 0 -12.0482 0 3614.458)">
				<stop  offset="0" style="stop-color:#D4006A"/>
				<stop  offset="1" style="stop-color:#FE6442"/>
			</linearGradient>
			<path fill="url(#SVGID_32_)" d="M54.3,35.7c0,1.6-0.5,3.3-0.8,4.6l4.6,1.9c0.8-2.2,1.1-4.4,1.4-6.5H54.3z"/>
			
				<linearGradient id="SVGID_33_" gradientUnits="userSpaceOnUse" x1="1.6153" y1="295.4793" x2="1.9611" y2="295.6742" gradientTransform="matrix(12.0482 0 0 -12.0482 0 3614.458)">
				<stop  offset="0" style="stop-color:#D4006A"/>
				<stop  offset="1" style="stop-color:#FE6442"/>
			</linearGradient>
			<path fill="url(#SVGID_33_)" d="M24.8,52.1c-1.4-0.8-2.7-1.6-3.8-2.7l-3.5,3.5c1.6,1.4,3.5,2.7,5.5,3.8L24.8,52.1z"/>
			
				<linearGradient id="SVGID_34_" gradientUnits="userSpaceOnUse" x1="2.2677" y1="295.1812" x2="2.6437" y2="295.3931" gradientTransform="matrix(12.0482 0 0 -12.0482 0 3614.458)">
				<stop  offset="0" style="stop-color:#D4006A"/>
				<stop  offset="1" style="stop-color:#FE6442"/>
			</linearGradient>
			<path fill="url(#SVGID_34_)" d="M32.5,54.3c-1.6,0-3.3-0.5-4.6-0.8l-1.9,4.6c2.2,0.8,4.4,1.1,6.5,1.4V54.3z"/>
			
				<linearGradient id="SVGID_35_" gradientUnits="userSpaceOnUse" x1="2.9932" y1="295.2094" x2="3.3416" y2="295.4056" gradientTransform="matrix(12.0482 0 0 -12.0482 0 3614.458)">
				<stop  offset="0" style="stop-color:#D4006A"/>
				<stop  offset="1" style="stop-color:#FE6442"/>
			</linearGradient>
			<path fill="url(#SVGID_35_)" d="M40.4,53.5c-1.4,0.5-3,0.8-4.6,0.8v4.9c2.2-0.3,4.4-0.5,6.5-1.4L40.4,53.5z"/>
		</g>
		
			<linearGradient id="SVGID_36_" gradientUnits="userSpaceOnUse" x1="2.0866" y1="296.7684" x2="3.5879" y2="297.6145" gradientTransform="matrix(12.0482 0 0 -12.0482 0 3614.458)">
			<stop  offset="0" style="stop-color:#D4006A"/>
			<stop  offset="1" style="stop-color:#FE6442"/>
		</linearGradient>
		<path fill="url(#SVGID_36_)" d="M46.4,29.7c-1.6,0-3,0.5-3.8,1.9h-4.1c-1.4,0-2.2-1.1-2.2-2.2v-4.4c1.4-0.5,2.2-1.9,1.9-3.5
			c0-2.2-1.9-3.8-4.1-4.1c-2.5,0-4.4,1.9-4.4,4.4c0,1.4,0.8,2.7,1.9,3.5v3.8c0,1.4-1.1,2.5-2.5,2.5h-3.8c-0.8-1.1-2.2-1.9-3.8-1.9
			c-2.2,0-3.8,1.9-4.1,4.1c0,2.5,1.9,4.4,4.4,4.4c1.4,0,2.7-0.8,3.5-1.9h4.1c1.1,0,2.2,1.1,2.2,2.2v4.1c-1.1,0.8-1.9,2.2-1.9,3.8
			c0,2.2,1.9,3.8,4.1,4.1c2.5,0,4.4-1.9,4.4-4.4c0-1.4-0.8-2.7-1.9-3.5v-4.1c0-1.1,1.1-2.2,2.2-2.2h4.1c0.8,1.1,1.9,1.9,3.5,1.9
			c2.5,0,4.4-1.9,4.4-4.4C50.5,31.6,48.6,29.7,46.4,29.7z M34.1,36.8c-1.6,0-2.7-1.1-2.7-2.7s1.1-2.7,2.7-2.7s2.7,1.1,2.7,2.7
			C36.8,35.5,35.5,36.8,34.1,36.8z"/>
	</g>
</g>
</svg>
