<?xml version="1.0" encoding="utf-8"?>
<!-- Generator: Adobe Illustrator 18.1.0, SVG Export Plug-In . SVG Version: 6.00 Build 0)  -->
<svg version="1.1" id="Слой_1" xmlns="http://www.w3.org/2000/svg" xmlns:xlink="http://www.w3.org/1999/xlink" x="0px" y="0px"
	 viewBox="0 80.6 100.3 46.4" enable-background="new 0 80.6 100.3 46.4" xml:space="preserve">
<path fill="#FFFFFF" d="M0,127h100.3l-6.2-28.2C91.5,88,82.4,80.6,71.7,80.6H28.6C17.9,80.6,8.8,88,6.2,98.8L0,127z M7.1,120.2
	l4.5-20.1c1.9-8.1,8.8-14,16.9-14h43.2c8.1,0,14.9,5.8,16.9,14l4.5,20.1l0.3,1.3h-1.3H8.1H6.8L7.1,120.2z"/>
<g>
	<g>
		<rect x="27.3" y="94.2" fill="#FFFFFF" width="9.1" height="9.4"/>
	</g>
	<g>
		<rect x="18.2" y="103.6" fill="#FFFFFF" width="9.1" height="9.4"/>
	</g>
	<g>
		<rect x="36.4" y="104" fill="#FFFFFF" width="9.1" height="9.4"/>
	</g>
	<g>
		<rect x="45.8" y="94.2" fill="#FFFFFF" width="9.1" height="9.4"/>
	</g>
	<g>
		<rect x="54.9" y="104" fill="#FFFFFF" width="9.1" height="9.4"/>
	</g>
	<g>
		<rect x="63.9" y="94.2" fill="#FFFFFF" width="9.1" height="9.4"/>
	</g>
	<g>
		<rect x="73" y="104" fill="#FFFFFF" width="9.1" height="9.4"/>
	</g>
</g>
</svg>
