<svg version="1.1" id="Слой_1" xmlns="http://www.w3.org/2000/svg" xmlns:xlink="http://www.w3.org/1999/xlink" x="0px" y="0px"
	 viewBox="0 25.5 49.2 40.7" enable-background="new 0 25.5 49.2 40.7" xml:space="preserve">
<g>
	<path fill="#4F5567" d="M25.9,66.2c-0.2,0-0.5,0-0.5-0.2l-25-14.8C0.2,50.9,0,50.6,0,50.1V26.6c0-0.5,0.2-0.7,0.5-0.9
		c0.2-0.2,0.7-0.2,1.2,0l25,15.5c0.2,0.2,0.5,0.5,0.5,0.9v23.1c0,0.5-0.2,0.7-0.5,0.9C26.4,66.2,26.1,66.2,25.9,66.2z M2.1,49.7
		L25,63.3V42.8L2.1,28.7C2.1,28.7,2.1,49.7,2.1,49.7z"/>
</g>
<g>
	<path fill="#4F5567" d="M32.3,54.6c-0.2,0-0.5,0-0.5-0.2L28.3,52c-0.5-0.2-0.7-0.9-0.2-1.4c0.2-0.5,0.9-0.7,1.4-0.2l2.8,1.9
		l13.9-8.9L25.9,30.6l-6.4,4c-0.5,0.2-1.2,0.2-1.4-0.2c-0.5-0.7-0.2-1.2,0.2-1.6l7.1-4.5c0.2-0.2,0.7-0.2,1.2,0l22.1,13.9
		c0.2,0.2,0.5,0.5,0.5,0.9S49,43.8,48.7,44L33,54.1C32.7,54.6,32.5,54.6,32.3,54.6z"/>
</g>
<g>
	<path fill="#4F5567" d="M32.3,59.6c-0.2,0-0.5,0-0.5-0.2L28.3,57c-0.5-0.2-0.7-0.9-0.2-1.4c0.2-0.5,0.9-0.7,1.4-0.2l2.8,1.9
		l15.3-9.9c0.5-0.2,1.2-0.2,1.4,0.2c0.2,0.5,0.2,1.2-0.2,1.4L33,59.1C32.7,59.6,32.5,59.6,32.3,59.6z"/>
</g>
<g>
	<path fill="#4F5567" d="M32.3,64.7c-0.2,0-0.5,0-0.5-0.2l-3.5-2.4c-0.5-0.2-0.7-0.9-0.2-1.4c0.2-0.5,0.9-0.7,1.4-0.2l2.8,1.9
		l15.3-9.9c0.5-0.2,1.2-0.2,1.4,0.2c0.2,0.5,0.2,1.2-0.2,1.4L33,64.3C32.7,64.7,32.5,64.7,32.3,64.7z"/>
</g>
<g>
	<path fill="#4F5567" d="M10.8,49.2c-1.6,0-3.3-1.6-4.2-4.2c-0.5-1.2-0.7-2.6-0.7-3.8c0.2-1.4,0.7-2.4,1.6-2.6
		c0.2,0,0.5-0.2,0.7-0.2c1.6,0,3.3,1.6,4.2,4.2c1.2,3.1,0.7,5.7-1.2,6.4C11.3,49.2,11.1,49.2,10.8,49.2z M8.5,40.5
		c-0.2,0-0.2,0.2-0.5,0.9c0,0.7,0,1.9,0.5,2.8c0.7,1.9,1.9,2.8,2.4,2.8l0,0c0.2,0,0.7-1.6,0-3.8C9.9,41.4,8.9,40.5,8.5,40.5z"/>
</g>
<g>
	<path fill="#4F5567" d="M20,49c-0.2,0-0.5,0-0.5-0.2l-4.2-2.4c-0.5-0.5-0.5-0.9-0.2-1.4c0.2-0.7,0.9-0.7,1.4-0.5l4.2,2.6
		c0.5,0.2,0.5,0.9,0.2,1.4C20.7,48.7,20.5,49,20,49z"/>
</g>
<g>
	<path fill="#4F5567" d="M20,53.7c-0.2,0-0.5,0-0.5-0.2l-4.2-2.6c-0.5-0.2-0.7-0.9-0.5-1.4c0.5-0.2,1.2-0.5,1.6-0.2l4.2,2.6
		c0.5,0.2,0.5,0.9,0.2,1.4C20.7,53.7,20.5,53.7,20,53.7z"/>
</g>
</svg>
