<?xml version="1.0" encoding="utf-8"?>
<!-- Generator: Adobe Illustrator 18.1.0, SVG Export Plug-In . SVG Version: 6.00 Build 0)  -->
<svg version="1.1" id="Слой_1__x28_копия_x29_"
	 xmlns="http://www.w3.org/2000/svg" xmlns:xlink="http://www.w3.org/1999/xlink" x="0px" y="0px" viewBox="0 0 42.7 31.2"
	 enable-background="new 0 0 42.7 31.2" xml:space="preserve">
<g>
	<g>
		<path fill="#FFFFFF" d="M36.7,15.5l-9.3-9.8l6-5.7l9.3,9.8L36.7,15.5z M29.6,5.8l7.2,7.6l3.8-3.7l-7.2-7.6L29.6,5.8z"/>
	</g>
	<g>
		<path fill-rule="evenodd" clip-rule="evenodd" fill="#FFFFFF" d="M36.8,9.5L36.8,9.5c0.6,0,1.2,0.5,1.2,1.2v0
			c0,0.6-0.5,1.2-1.2,1.2l0,0c-0.6,0-1.2-0.5-1.2-1.2v0C35.6,10.1,36.2,9.5,36.8,9.5z"/>
	</g>
	<g>
		<path fill="#FFFFFF" d="M6,15.7L0,10l9.3-9.8l6,5.7L6,15.7z M2.1,10l3.8,3.7L13.2,6L9.3,2.3L2.1,10z"/>
	</g>
	<g>
		<path fill-rule="evenodd" clip-rule="evenodd" fill="#FFFFFF" d="M5.9,9.7L5.9,9.7c-0.6,0-1.2,0.5-1.2,1.2v0
			c0,0.6,0.5,1.2,1.2,1.2h0c0.6,0,1.2-0.5,1.2-1.2v0C7.1,10.3,6.6,9.7,5.9,9.7z"/>
	</g>
	<g>
		<path fill="#FFFFFF" d="M32,20.5L32,20.5c-0.6,0-1.2-0.2-1.8-0.7l-10.4-7.9c-0.4,0.3-1.1,1-1.4,1.8c-0.4,1-1.4,1.6-2.7,1.6
			c-0.5,0-0.9-0.1-1-0.1L14.2,15V9.2c0-1.2,0.8-2.2,2-2.4L20.5,6l8.9-0.3l5.6,5.9l0,0.2c0,0.2,0.4,4-0.6,6.3c-0.2,0.5-0.5,1-0.8,1.5
			C33.2,20.3,32.5,20.5,32,20.5z M20,10l11.2,8.5c0.5,0.4,0.8,0.4,0.9,0.4c0,0,0,0,0,0c0.1,0,0.2,0,0.4-0.3c0.2-0.4,0.5-0.8,0.7-1.2
			c0.7-1.5,0.6-4.1,0.5-5.2l-4.8-5.1l-8.2,0.3l-4.1,0.8c-0.5,0.1-0.8,0.5-0.8,0.9v4.6c0,0,0,0,0,0c1,0,1.2-0.5,1.3-0.7
			c0.7-1.8,2.4-2.8,2.5-2.8L20,10z"/>
	</g>
	<g>
		<path fill="#FFFFFF" d="M10.7,24.1c-0.7,0-1.3-0.3-1.7-0.8c-0.8-0.9-0.7-2.4,0.2-3.2l4.2-3.6c0.4-0.4,0.9-0.6,1.5-0.6
			c0.7,0,1.3,0.3,1.7,0.8c0.8,0.9,0.7,2.4-0.2,3.2l-4.2,3.6C11.8,23.9,11.2,24.1,10.7,24.1z M14.8,17.4c-0.2,0-0.4,0.1-0.5,0.2
			l-4.2,3.6c-0.3,0.3-0.4,0.8-0.1,1.1c0.1,0.2,0.4,0.3,0.6,0.3c0.2,0,0.4-0.1,0.5-0.2l4.2-3.6c0.2-0.1,0.2-0.3,0.3-0.5
			c0-0.2-0.1-0.4-0.2-0.6C15.3,17.5,15.1,17.4,14.8,17.4z"/>
	</g>
	<g>
		<path fill="#FFFFFF" d="M13,26.4c-0.7,0-1.3-0.3-1.7-0.8c-0.8-0.9-0.7-2.4,0.2-3.2l4.2-3.6c0.4-0.4,0.9-0.6,1.5-0.6
			c0.7,0,1.3,0.3,1.7,0.8c0.8,0.9,0.7,2.4-0.2,3.2l-4.2,3.6C14.1,26.2,13.5,26.4,13,26.4z M17.1,19.7c-0.2,0-0.4,0.1-0.5,0.2
			l-4.2,3.6c-0.3,0.3-0.4,0.8-0.1,1.1c0.1,0.2,0.4,0.3,0.6,0.3c0.2,0,0.4-0.1,0.5-0.2l4.2-3.6c0.3-0.3,0.4-0.8,0.1-1.1
			C17.6,19.8,17.4,19.7,17.1,19.7z"/>
	</g>
	<g>
		<path fill="#FFFFFF" d="M15.1,28.5c-0.7,0-1.3-0.3-1.7-0.8c-0.4-0.5-0.6-1-0.5-1.6c0-0.6,0.3-1.2,0.8-1.6l4.2-3.6
			c0.4-0.4,0.9-0.6,1.5-0.6c0.7,0,1.3,0.3,1.7,0.8c0.4,0.5,0.6,1,0.5,1.6c0,0.6-0.3,1.2-0.8,1.6L16.6,28
			C16.2,28.3,15.6,28.5,15.1,28.5z M19.2,21.9c-0.2,0-0.4,0.1-0.5,0.2l-4.2,3.6c-0.2,0.1-0.2,0.3-0.3,0.5c0,0.2,0.1,0.4,0.2,0.6
			c0.1,0.2,0.4,0.3,0.6,0.3c0.2,0,0.4-0.1,0.5-0.2l4.2-3.6c0.2-0.1,0.2-0.3,0.3-0.5c0-0.2-0.1-0.4-0.2-0.6
			C19.7,22,19.5,21.9,19.2,21.9z"/>
	</g>
	<g>
		<path fill="#FFFFFF" d="M17.9,31.1c-0.6,0-1.2-0.3-1.6-0.7L16,30.2c-0.4-0.4-0.5-1-0.5-1.5s0.3-1.1,0.7-1.4l2.9-2.5
			c0.4-0.3,0.9-0.5,1.4-0.5c0.6,0,1.2,0.3,1.6,0.7l0.2,0.3c0.8,0.9,0.7,2.2-0.2,3l-2.9,2.5C18.9,31,18.4,31.1,17.9,31.1z M20.5,25.7
			c-0.1,0-0.3,0.1-0.4,0.1l-2.9,2.5c-0.1,0.1-0.2,0.2-0.2,0.4c0,0.2,0,0.3,0.1,0.4l0.2,0.3c0.2,0.2,0.6,0.3,0.8,0.1l2.9-2.5
			c0.1-0.1,0.2-0.2,0.2-0.4c0-0.2,0-0.3-0.1-0.4L21,25.9C20.9,25.7,20.7,25.7,20.5,25.7z"/>
	</g>
	<g>
		<path fill="#FFFFFF" d="M9.8,20.1c-1.8-1.2-3-5.9-3.2-6.5l1.5-0.4c0.5,1.8,1.6,4.9,2.6,5.6L9.8,20.1z"/>
	</g>
	<g>
		<path fill="#FFFFFF" d="M23,31.2c-1.2,0-2.7-1-3.2-1.4l0.9-1.2c1.1,0.8,2.4,1.2,2.5,1c0.6-0.6,0.5-1.8,0.5-1.8
			c0-0.3,0.1-0.6,0.4-0.8c0.3-0.1,0.6-0.1,0.9,0.2c0,0,1,1,2,0.5c0.8-0.5,0-2.2,0-2.2c-0.1-0.3-0.1-0.6,0.1-0.9
			c0.2-0.2,0.6-0.3,0.9-0.1c0.9,0.5,1.9,0.7,2.1,0.6c0.2-0.2,0.1-1.3-0.2-2c-0.1-0.2-0.1-0.5,0.1-0.7c0.1-0.2,0.4-0.3,0.6-0.3h1.2
			c0.2,0,0.3-0.1,0.4-0.2c0-0.1,0.1-0.2,0.1-0.3l-0.5-1.1l1.4-0.6l0.5,1.2c0,0,0,0.1,0,0.1c0.1,0.6-0.1,1.2-0.4,1.6
			c-0.4,0.5-0.9,0.7-1.5,0.7h-0.2c0.2,0.8,0.2,1.9-0.5,2.6c-0.6,0.6-1.5,0.5-2.4,0.3c0.1,1-0.1,2-1.1,2.5c-0.9,0.5-1.9,0.4-2.6,0.1
			c-0.1,0.5-0.4,1.1-0.8,1.6C23.8,31.1,23.4,31.2,23,31.2z"/>
	</g>
	<g>
		<rect x="13.9" y="6.2" transform="matrix(0.8712 0.491 -0.491 0.8712 5.3302 -6.4607)" fill="#FFFFFF" width="2.1" height="1.5"/>
	</g>
	<g>
		<path fill="#FFFFFF" d="M30.6,23.7c-0.2,0-0.3,0-0.5-0.2l-2.8-2.1c-0.3-0.2-0.4-0.7-0.1-1c0.2-0.3,0.7-0.4,1-0.1l2.8,2.1
			c0.3,0.2,0.4,0.7,0.1,1C31,23.6,30.8,23.7,30.6,23.7z"/>
	</g>
	<g>
		<path fill="#FFFFFF" d="M28,26.4c-0.2,0-0.3,0-0.4-0.1l-2.8-2c-0.3-0.2-0.4-0.7-0.2-1c0.2-0.3,0.7-0.4,1-0.2l2.8,2
			c0.3,0.2,0.4,0.7,0.2,1C28.4,26.3,28.2,26.4,28,26.4z"/>
	</g>
	<g>
		<path fill="#FFFFFF" d="M24.4,28.5c-0.2,0-0.5-0.1-0.6-0.3l-1.3-1.8c-0.3-0.3-0.2-0.8,0.1-1.1c0.3-0.3,0.8-0.2,1.1,0.1l1.3,1.8
			c0.3,0.3,0.2,0.8-0.1,1.1C24.7,28.5,24.5,28.5,24.4,28.5z"/>
	</g>
</g>
</svg>
