<svg version="1.1" id="Слой_1" xmlns="http://www.w3.org/2000/svg" xmlns:xlink="http://www.w3.org/1999/xlink" x="0px" y="0px"
	 viewBox="-0.4 0.9 42.6 42.3" enable-background="new -0.4 0.9 42.6 42.3" xml:space="preserve">
<g>
	<g>
		<path fill="#FFFFFF" d="M28.9,0.9L28.9,0.9c5.1,0.2,5.9,1.5,6.1,2c0.7,1,0.7,2,0.7,2.7c0.7,0.5,1.5,1,2,1.7c1,1.2,1,2.7,0.7,3.7
			c0.7,0.5,1.5,1.5,2.2,2.9c0.5,1.5,0.5,2.7,0.2,3.7c0.2,0.7,1,1.7,1.2,2.9c0.2,1,0,2-0.7,2.9c-1,1.5-3.2,2.4-5.9,2.9
			c-5.1,0.7-6.1,2-6.3,2.7c-0.5,1,0,2.7,0.2,4.1c0.2,0.7,0.2,1.5,0.2,2.2c0.2,3.2-0.7,5.6-3.7,7.3c-0.7,0.5-1.5,0.7-2.4,0.5
			c-1,0-2.7-0.7-2.7-2c0-0.2-0.5-4.6-2-8.3c-1-2.4-5.1-7.6-5.9-8c-0.5-0.5-2-1-2.9-1.2H9.9H9.6c-1.2-0.5-2.2-1.2-2.4-3.9
			c-0.2-2.4,0.2-7.8,0.7-10c0.2-2.4,2.4-4.1,4.4-4.4c0.5,0,1-0.2,1.5-0.2c0.5,0,1.2,0,2-0.2c0.5,0,1.5-0.7,2-1.2
			c1.2-1,2.4-2,3.9-2.2C23.3,0.9,26.5,0.9,28.9,0.9z M32.8,4.5c-0.2-0.2-1.5-0.5-4.1-0.7s-5.4,0-6.3,0.2c-0.7,0.2-1.7,1-2.7,1.7
			c-1.2,0.7-2.2,1.5-3.4,1.7c-0.7,0.2-1.5,0.2-2.2,0.2c-0.5,0-1,0-1.5,0.2c-0.5,0.2-1.7,0.7-2,2.2c-0.2,2.2-0.7,7.3-0.7,9.5
			c0,1,0.2,1.2,0.7,1.2h0.2c0.7,0.2,2.7,0.5,3.9,1.5c1.2,1,5.9,6.6,6.8,9.5c1.2,3.2,1.7,6.8,2,8.3c0.2,0,0.7,0,1-0.2
			c2-1,2.4-2.4,2.2-4.4c0-0.7-0.2-1.5-0.2-2.2c-0.2-2-0.7-4.1,0-5.9c1-2.2,3.7-3.7,8.5-4.4c2.9-0.5,3.9-1.2,4.1-1.7
			c0.2-0.2,0.2-0.5,0.2-0.7c-0.2-1.2-1.2-2.2-1.2-2.2c-0.5-0.5-0.7-1.5-0.2-2c0,0,0.5-0.7,0-2.2c-0.5-1.5-1.5-2-1.5-2
			c-0.7-0.2-1-1-0.7-1.7c0.2-0.7,0.2-1.7,0-2.2c-1-0.5-2-1-2-1c-0.5-0.2-0.7-0.5-1-1c-0.2-0.5,0-0.7,0.2-1.2C33,5.5,33,5,32.8,4.5z
			 M23.5,41.1v-0.2V41.1z"/>
	</g>
</g>
<g>
	<path fill="#FFFFFF" d="M4.8,4.5L4.8,4.5L4.8,4.5L10.4,5c0.7,0,1.5,0.7,1.2,1.5c0,0.7-0.7,1.5-1.5,1.2L4.5,7.4
		c-0.2,0-0.7,0.5-1.2,2c-1,2.9-1,8.5-0.5,9.5c0,0.7,1,1.5,2.2,1.5c1.2,0.2,2.7,0.2,2.7,0.2c0.7,0,1.5,0.7,1.5,1.5s-0.7,1.5-1.5,1.5
		c0,0-1.7,0-3.2-0.2c-1.7-0.2-3.9-1.5-4.6-3.7c-0.5-1.7-0.5-7.8,0.7-11.2C1.6,4.8,3.8,4.5,4.8,4.5z"/>
</g>
</svg>
