<?xml version="1.0" encoding="utf-8"?>
<!-- Generator: Adobe Illustrator 18.1.0, SVG Export Plug-In . SVG Version: 6.00 Build 0)  -->
<svg version="1.1" id="Слой_1" xmlns="http://www.w3.org/2000/svg" xmlns:xlink="http://www.w3.org/1999/xlink" x="0px" y="0px"
	 viewBox="0 31.9 52.3 41" enable-background="new 0 31.9 52.3 41" xml:space="preserve">
<g>
	<g>
		<g>
			<path fill="#FFFFFF" d="M37.2,60c-0.4,0-0.5-0.2-0.7-0.4l-7.6-11.1c-0.2-0.4-0.2-0.7,0-0.9c0.2-0.4,0.5-0.5,0.9-0.5h13.4
				c0.4,0,0.5,0.2,0.7,0.4l8.2,10c0.2,0.4,0.4,0.7,0.2,0.9c-0.2,0.4-0.4,0.5-0.7,0.5L37.2,60L37.2,60z M31.4,48.9l6.4,9.3l11.4-0.9
				l-6.7-8.2H31.4V48.9z"/>
		</g>
		<g>
			<path fill="#FFFFFF" d="M31,72.9c-0.4,0-0.5-0.2-0.7-0.4c-0.2-0.4-0.2-0.7-0.2-0.9l6.2-12.7c0.2-0.4,0.4-0.5,0.7-0.5l13.8-1.1
				c0.4,0,0.7,0.2,0.9,0.4c0.2,0.4,0.2,0.7,0,0.9L45.4,70c-0.2,0.2-0.4,0.4-0.7,0.5L31,72.9C31.2,72.9,31,72.9,31,72.9z M37.9,60
				l-5.3,10.5l11.2-2l5.4-9.6L37.9,60z"/>
		</g>
		<g>
			<path fill="#FFFFFF" d="M31,72.9c-0.4,0-0.7-0.2-0.9-0.5l-6.4-11.4c-0.2-0.2-0.2-0.5,0-0.7l4.9-12.5c0.2-0.4,0.4-0.5,0.7-0.5
				c0.4,0,0.7,0.2,0.9,0.4l7.6,11.1c0.2,0.4,0.2,0.7,0,0.9l-6.2,12.7C31.8,72.5,31.4,72.9,31,72.9L31,72.9z M25.8,60.4l5.3,9.4
				l5.1-10.5L29.8,50L25.8,60.4z"/>
		</g>
		<g>
			
				<ellipse transform="matrix(0.8446 0.5354 -0.5354 0.8446 34.5942 -13.2709)" fill="#FFFFFF" cx="40.2" cy="53" rx="1.5" ry="0.9"/>
		</g>
		<g>
			
				<ellipse transform="matrix(-0.6727 0.7399 -0.7399 -0.6727 121.7018 69.6946)" fill="#FFFFFF" cx="45.4" cy="61.8" rx="1.5" ry="0.9"/>
		</g>
		<g>
			
				<ellipse transform="matrix(-0.1186 0.9929 -0.9929 -0.1186 87.6045 30.8942)" fill="#FFFFFF" cx="30.1" cy="54.3" rx="1.5" ry="0.9"/>
		</g>
		<g>
			
				<ellipse transform="matrix(-0.1186 0.9929 -0.9929 -0.1186 99.0902 41.8056)" fill="#FFFFFF" cx="31" cy="64.9" rx="1.5" ry="0.9"/>
		</g>
		<g>
			
				<ellipse transform="matrix(-0.1186 0.9929 -0.9929 -0.1186 92.9928 36.2568)" fill="#FFFFFF" cx="30.4" cy="59.4" rx="1.5" ry="0.9"/>
		</g>
		<g>
			
				<ellipse transform="matrix(-0.7022 0.712 -0.712 -0.7022 111.1667 88.2402)" fill="#FFFFFF" cx="37.1" cy="67.4" rx="1.5" ry="0.9"/>
		</g>
	</g>
	<g>
		<g>
			<path fill="#FFFFFF" d="M13.8,46c-0.2,0-0.2,0-0.4,0L0.7,41.7C0.4,41.7,0,41.3,0,41c0-0.4,0-0.7,0.4-0.9l10.7-8
				c0.2-0.2,0.5-0.2,0.7-0.2L24.3,35c0.4,0,0.5,0.4,0.7,0.7c0,0.4,0,0.7-0.4,0.9l-10.2,9.3C14.3,46,14,46,13.8,46z M2.9,40.6
				L13.4,44l8.7-7.6l-10.3-2.5L2.9,40.6z"/>
		</g>
		<g>
			<path fill="#FFFFFF" d="M16.5,60h-0.2c-0.4-0.2-0.5-0.4-0.7-0.7l-2.7-14c0-0.4,0-0.7,0.4-0.9l10.3-9.3c0.2-0.2,0.5-0.4,0.9-0.2
				c0.4,0.2,0.5,0.4,0.5,0.7l1.6,13.1c0,0.4,0,0.5-0.2,0.7l-9.4,10C17.1,59.8,16.7,60,16.5,60z M14.9,45.5l2.2,11.6l7.8-8.3
				l-1.5-10.9L14.9,45.5z"/>
		</g>
		<g>
			<path fill="#FFFFFF" d="M16.5,60c-0.2,0-0.2,0-0.4,0l-12-5.3C4,54.6,3.6,54.4,3.6,54L0,41.1c0-0.4,0-0.7,0.4-0.9
				C0.5,40,0.9,39.9,1.3,40l12.9,4.4c0.2,0,0.5,0.2,0.5,0.5l2.7,13.8v0.2C17.4,59.6,17.1,60,16.5,60L16.5,60z M5.3,53.1l9.8,4.4
				l-2.2-11.6L2.4,42.4L5.3,53.1z"/>
		</g>
		<g>
			
				<ellipse transform="matrix(0.9969 -7.866583e-002 7.866583e-002 0.9969 -3.1004 0.7297)" fill="#FFFFFF" cx="7.7" cy="39.7" rx="1.5" ry="0.9"/>
		</g>
		<g>
			
				<ellipse transform="matrix(0.9969 -7.866583e-002 7.866583e-002 0.9969 -2.8877 1.5108)" fill="#FFFFFF" cx="17.7" cy="37.4" rx="1.5" ry="0.9"/>
		</g>
		<g>
			
				<ellipse transform="matrix(-9.396515e-002 0.9956 -0.9956 -9.396515e-002 66.448 24.4239)" fill="#FFFFFF" cx="22.1" cy="42.4" rx="1.5" ry="0.9"/>
		</g>
		<g>
			
				<ellipse transform="matrix(-9.396515e-002 0.9956 -0.9956 -9.396515e-002 65.2076 33.5448)" fill="#FFFFFF" cx="17.3" cy="46.4" rx="1.5" ry="0.9"/>
		</g>
		<g>
			
				<ellipse transform="matrix(0.5011 0.8654 -0.8654 0.5011 41.9718 18.2221)" fill="#FFFFFF" cx="5.2" cy="45.5" rx="1.5" ry="0.9"/>
		</g>
		<g>
			
				<ellipse transform="matrix(0.5011 0.8654 -0.8654 0.5011 52.2862 16.1242)" fill="#FFFFFF" cx="12.2" cy="53.4" rx="1.5" ry="0.9"/>
		</g>
		<g>
			<ellipse transform="matrix(0.5011 0.8654 -0.8654 0.5011 46.8782 16.7224)" fill="#FFFFFF" cx="8.9" cy="49" rx="1.5" ry="0.9"/>
		</g>
		<g>
			
				<ellipse transform="matrix(0.5011 0.8654 -0.8654 0.5011 46.7339 13.9144)" fill="#FFFFFF" cx="11.3" cy="47.5" rx="1.5" ry="0.9"/>
		</g>
		<g>
			<ellipse transform="matrix(0.5011 0.8654 -0.8654 0.5011 48.1737 19.6536)" fill="#FFFFFF" cx="7" cy="51.6" rx="1.5" ry="0.9"/>
		</g>
		<g>
			
				<ellipse transform="matrix(-0.1343 0.9909 -0.9909 -0.1343 72.3475 40.0825)" fill="#FFFFFF" cx="18.7" cy="51.6" rx="1.5" ry="0.9"/>
		</g>
		<g>
			
				<ellipse transform="matrix(-0.1343 0.9909 -0.9909 -0.1343 72.7648 31.0044)" fill="#FFFFFF" cx="22.8" cy="47.3" rx="1.5" ry="0.9"/>
		</g>
	</g>
</g>
</svg>
