<svg xmlns="http://www.w3.org/2000/svg" viewBox="55.8 22.3 64.9 89.5"><path fill="#767C8F" d="M59.8 32.3h55.3v75.1H59.8z"/><path fill="#767C8F" d="M112.4 35.2v69.7H64V35.2h48.4m.4-6.9H63.6c-4.2 0-7.7 3.5-7.7 7.7v68c0 4.2 3.5 7.7 7.7 7.7H113c4.2 0 7.7-3.5 7.7-7.7V36.2c0-4.3-3.5-7.9-7.9-7.9z"/><path fill="#767C8F" d="M102.8 42.3H74.4c-.6 0-1.3-.6-1.3-1.3V29.8c0-.6.6-1.3 1.3-1.3h28.4c.6 0 1.3.6 1.3 1.3V41c-.1.7-.7 1.3-1.3 1.3z"/><circle fill="#767C8F" cx="88.6" cy="29.8" r="7.5"/><circle fill="#767C8F" cx="88.6" cy="29.8" r="2.5"/><path fill="#767C8F" d="M80.9 45.4v3.3c2.1.2 4 1 5.4 2.7l-2.3 3c-.4-.6-1.7-1.9-3.8-1.9s-3.1 1.3-3.1 2.5c0 1.7 2.1 2.3 3.8 3.1 1 .4 2.9 1.3 4.2 2.3 1 .8 1.9 2.3 1.9 4.4 0 3.5-2.3 6.7-6.3 7.3v3.5h-2.1v-3.5c-2.5-.2-4.4-1-5.4-2.1-1-.8-1.7-1.5-2.1-2.1l2.7-2.7c.8 1.5 2.7 3.1 5.2 3.1 2.1 0 3.5-1 3.5-3.1 0-1.3-.4-2.1-3.3-3.3-1.9-.8-3.5-1.5-5-2.9-.4-.6-1.5-1.9-1.5-4.2 0-.8.2-4 3.5-5.4.6-.4 1.5-.6 2.3-.6v-3.3c.1-.1 2.4-.1 2.4-.1zm10.8 6.5h13.8V55H91.7zm.6 6h7.7V61h-7.7zm-.6 6.1h13.8v3.1H91.7zm0 5.8h7.7v3.1h-7.7zM76.5 85.5h3.1v9.4h-3.1zm5.8 1.6h3.1v7.7h-3.1zm6.5-4.8h3.1v12.5h-3.1zm5.8-1.6h3.1v14.2h-3.1zm5.9-1.5h3.1v15.6h-3.1z"/><path fill="#FFF" d="M59.8 32.3h55.3v75.1H59.8z"/><path fill="#767C8F" d="M112.4 35.2v69.7H64V35.2h48.4m.4-6.9H63.6c-4.2 0-7.7 3.5-7.7 7.7v68c0 4.2 3.5 7.7 7.7 7.7H113c4.2 0 7.7-3.5 7.7-7.7V36.2c0-4.3-3.5-7.9-7.9-7.9z"/><path fill="#9198AA" d="M102.8 42.3H74.4c-.6 0-1.3-.6-1.3-1.3V29.8c0-.6.6-1.3 1.3-1.3h28.4c.6 0 1.3.6 1.3 1.3V41c-.1.7-.7 1.3-1.3 1.3z"/><circle fill="#9198AA" cx="88.6" cy="29.8" r="7.5"/><circle fill="#FFF" cx="88.6" cy="29.8" r="2.5"/><path fill="#767C8F" d="M80.9 45.4v3.3c2.1.2 4 1 5.4 2.7l-2.3 3c-.4-.6-1.7-1.9-3.8-1.9s-3.1 1.3-3.1 2.5c0 1.7 2.1 2.3 3.8 3.1 1 .4 2.9 1.3 4.2 2.3 1 .8 1.9 2.3 1.9 4.4 0 3.5-2.3 6.7-6.3 7.3v3.5h-2.1v-3.5c-2.5-.2-4.4-1-5.4-2.1-1-.8-1.7-1.5-2.1-2.1l2.7-2.7c.8 1.5 2.7 3.1 5.2 3.1 2.1 0 3.5-1 3.5-3.1 0-1.3-.4-2.1-3.3-3.3-1.9-.8-3.5-1.5-5-2.9-.4-.6-1.5-1.9-1.5-4.2 0-.8.2-4 3.5-5.4.6-.4 1.5-.6 2.3-.6v-3.3c.1-.1 2.4-.1 2.4-.1z"/><path fill="#9198AA" d="M91.7 51.9h13.8V55H91.7zm.6 6h7.7V61h-7.7zm-.6 6.1h13.8v3.1H91.7zm0 5.8h7.7v3.1h-7.7zM76.5 85.5h3.1v9.4h-3.1zm5.8 1.6h3.1v7.7h-3.1zm6.5-4.8h3.1v12.5h-3.1zm5.8-1.6h3.1v14.2h-3.1zm5.9-1.5h3.1v15.6h-3.1z"/></svg>