<svg xmlns="http://www.w3.org/2000/svg" viewBox="32.1 24.5 81.3 88.2"><path fill="#9198AA" d="M53.9 73.4h-9.6l.9-35.5h7.9zm19.4 11.9h-9.8l1-35.6h7.9z"/><path fill="#767C8F" d="M43.3 35.4h11.9v3.5H43.3z"/><path fill="#7C9299" d="M62.4 47.2h11.9v3.5H62.4z"/><path fill="#767C8F" d="M62.4 47.2h11.9v3.5H62.4zM36 92.8V61l12.9 9.5V61L62 70.7V61l11.3 8.9 14.1.2v22.7z"/><path fill="#9198AA" d="M32.1 92.8h59.5v3.3H32.1z"/><path fill="#D7E0E9" d="M39.4 75.9h7.3v3.5h-7.3zm0 5.8h7.3v3.5h-7.3zm12.4-5.8h7.3v3.5h-7.3zm0 5.8h7.3v3.5h-7.3zm12.9-5.8H72v3.5h-7.3zm0 5.8H72v3.5h-7.3zM48.3 32.5s3.1-7.3 10.8-7.9 12.7 4.6 16.8 4.6 9.8-.6 9.8-.6-2.5 4-8.3 4c-8.3 0-12.7-3.5-16.8-3.3-5.6 0-11.1 1.9-12.3 3.2zm18.5 11.6s3.1-7.3 10.8-7.9c7.7-.6 12.7 4.6 16.8 4.6 4.2 0 9.8-.6 9.8-.6s-2.5 4-8.3 4c-8.3 0-12.7-3.5-16.8-3.3-5.6.1-11 2.2-12.3 3.2zm8.5 48.7h8.9v20h-8.9z"/><path fill="#767C8F" d="M61.8 99.2h8.9v13.5h-8.9z"/><path fill="#D7E0E9" d="M88.9 82.8h8.9v29.9h-8.9zm13.5-5h8.9v34.9h-8.9zm-43.5 20l-5.8-6.9L104 57.4l6.1 6.9z"/><path fill="#D7E0E9" d="M110.3 73.2c-2.1 0-3.1-1.7-3.1-3.5v-8.9H96.5c-2.1 0-3.5-1-3.5-3.1s1.7-3.1 3.5-3.1h16.8v15.2c.1 1.8-.9 3.4-3 3.4z"/></svg>