<svg xmlns="http://www.w3.org/2000/svg" viewBox="52.3 24.7 69 87.8"><path fill="none" d="M98.7 29.2v16.5"/><path fill="#D7E0E9" d="M98.7 46.5c-.4 0-.8-.4-.8-.6V29.2c0-.4.4-.6.8-.6s.8.4.8.6v16.4c0 .5-.4.9-.8.9z"/><path fill="#D7E0E9" d="M98.7 36.5l-6.2-5c-.4-.2-.4-.6 0-1 .2-.2.8-.4 1 0l5.4 4.2 5.6-4.2c.4-.2.8-.2 1 .2s.2.8-.2 1l-6.6 4.8z"/><path fill="#D7E0E9" d="M98.7 41.5l-6.2-5c-.4-.2-.4-.6 0-1 .2-.2.8-.4 1 0l5.4 4.2 5.6-4.2c.4-.2.8-.2 1 .2s.2.8-.2 1l-6.6 4.8z"/><path fill="none" d="M98.7 29.2v16.5"/><path fill="#D7E0E9" d="M98.7 46.5c-.4 0-.8-.4-.8-.6V29.2c0-.4.4-.6.8-.6s.8.4.8.6v16.4c0 .5-.4.9-.8.9z"/><path fill="#D7E0E9" d="M98.7 36.5l-6.2-5c-.4-.2-.4-.6 0-1 .2-.2.8-.4 1 0l5.4 4.2 5.6-4.2c.4-.2.8-.2 1 .2s.2.8-.2 1l-6.6 4.8z"/><path fill="#D7E0E9" d="M98.7 41.5l-6.2-5c-.4-.2-.4-.6 0-1 .2-.2.8-.4 1 0l5.4 4.2 5.6-4.2c.4-.2.8-.2 1 .2s.2.8-.2 1l-6.6 4.8z"/><path fill="none" d="M98.7 62.7V46.5"/><path fill="#D7E0E9" d="M98.7 63.5c-.4 0-.8-.4-.8-.6V46.5c0-.4.4-.6.8-.6s.8.4.8.6v16.4c0 .2-.4.6-.8.6z"/><path fill="#D7E0E9" d="M104.7 61.7c-.2 0-.4 0-.4-.2l-5.6-4.2-5.4 4.2c-.4.2-.8.2-1 0-.2-.2-.2-.8 0-1l6.2-5 6.7 5c.4.2.4.6.2 1-.1.2-.5.2-.7.2z"/><path fill="#D7E0E9" d="M104.7 56.9c-.2 0-.4 0-.4-.2l-5.6-4.2-5.4 4.2c-.4.2-.8.2-1 0-.2-.2-.2-.8 0-1l6.2-5 6.7 5c.4.2.4.6.2 1-.1 0-.5.2-.7.2z"/><path fill="none" d="M98.7 62.7V46.5"/><path fill="#D7E0E9" d="M98.7 63.5c-.4 0-.8-.4-.8-.6V46.5c0-.4.4-.6.8-.6s.8.4.8.6v16.4c0 .2-.4.6-.8.6z"/><path fill="#D7E0E9" d="M104.7 61.7c-.2 0-.4 0-.4-.2l-5.6-4.2-5.4 4.2c-.4.2-.8.2-1 0-.2-.2-.2-.8 0-1l6.2-5 6.7 5c.4.2.4.6.2 1-.1.2-.5.2-.7.2z"/><path fill="#D7E0E9" d="M104.7 56.9c-.2 0-.4 0-.4-.2l-5.6-4.2-5.4 4.2c-.4.2-.8.2-1 0-.2-.2-.2-.8 0-1l6.2-5 6.7 5c.4.2.4.6.2 1-.1 0-.5.2-.7.2z"/><path fill="none" d="M83.3 38.2l15.1 7.9"/><path fill="#D7E0E9" d="M98.4 46.7H98l-15-7.9c-.4-.2-.4-.6-.2-1s.6-.4 1-.2l15 7.9c.4.2.4.6.2 1-.1 0-.3.2-.6.2z"/><path fill="none" d="M83.3 38.2l15.1 7.9"/><path fill="#D7E0E9" d="M98.4 46.7H98l-15-7.9c-.4-.2-.4-.6-.2-1s.6-.4 1-.2l15 7.9c.4.2.4.6.2 1-.1 0-.3.2-.6.2z"/><path fill="#D7E0E9" d="M82.2 44.6c-.2 0-.6-.2-.6-.4-.2-.4 0-.8.4-1l6.4-2.5-1.2-6.7c0-.4.2-.8.6-.8s.8.2.8.6l1.5 7.9-7.5 2.9h-.4z"/><g fill="#D7E0E9"><path d="M86.8 46.9c-.2 0-.6-.2-.6-.4-.2-.4 0-.8.4-1L93 43l-1.2-6.7c0-.4.2-.8.6-.8s.8.2.8.6l1.5 7.9-7.5 2.9h-.4z"/><path d="M86.8 46.9c-.2 0-.6-.2-.6-.4-.2-.4 0-.8.4-1L93 43l-1.2-6.7c0-.4.2-.8.6-.8s.8.2.8.6l1.5 7.9-7.5 2.9h-.4z"/></g><path fill="none" d="M114.2 54.2l-15.1-7.9"/><path fill="#D7E0E9" d="M114.2 55h-.4l-15-7.9c-.4-.4-.6-.8-.4-1 .2-.4.6-.4 1-.2l15 7.9c.4.2.4.6.2 1 .1 0-.1.2-.4.2z"/><path fill="#D7E0E9" d="M109.7 59c-.4 0-.6-.2-.8-.6l-1.5-7.7 7.7-3.1c.4-.2.8 0 1 .4.2.4 0 .8-.4 1l-6.7 2.7 1.2 6.4c.3.2.1.7-.5.9.2 0 0 0 0 0z"/><path fill="#D7E0E9" d="M105.3 56.5c-.4 0-.6-.2-.8-.6l-1.5-7.7 7.7-3.1c.4-.2.8 0 1 .4.2.4 0 .8-.4 1l-6.7 2.7 1.2 6.4c.3.5-.1.9-.5.9z"/><path fill="none" d="M114.2 54.2l-15.1-7.9"/><path fill="#D7E0E9" d="M114.2 55h-.4l-15-7.9c-.4-.4-.6-.8-.4-1 .2-.4.6-.4 1-.2l15 7.9c.4.2.4.6.2 1 .1 0-.1.2-.4.2z"/><path fill="#D7E0E9" d="M109.7 59c-.4 0-.6-.2-.8-.6l-1.5-7.7 7.7-3.1c.4-.2.8 0 1 .4.2.4 0 .8-.4 1l-6.7 2.7 1.2 6.4c.3.2.1.7-.5.9.2 0 0 0 0 0z"/><path fill="#D7E0E9" d="M105.3 56.5c-.4 0-.6-.2-.8-.6l-1.5-7.7 7.7-3.1c.4-.2.8 0 1 .4.2.4 0 .8-.4 1l-6.7 2.7 1.2 6.4c.3.5-.1.9-.5.9z"/><path fill="none" d="M83.3 54l15.1-7.9"/><path fill="#D7E0E9" d="M83.3 54.6c-.2 0-.6-.2-.6-.4-.2-.4 0-.8.2-1l15-7.9c.4-.2.8 0 1 .2.2.4 0 .8-.2 1l-15 7.9c0 .2-.2.2-.4.2z"/><path fill="none" d="M83.3 54l15.1-7.9"/><path fill="#D7E0E9" d="M83.3 54.6c-.2 0-.6-.2-.6-.4-.2-.4 0-.8.2-1l15-7.9c.4-.2.8 0 1 .2.2.4 0 .8-.2 1l-15 7.9c0 .2-.2.2-.4.2z"/><path fill="#D7E0E9" d="M88 59c-.2 0-.2 0 0 0-.6 0-.8-.4-.8-.8l1.2-6.7L82 49c-.4-.2-.6-.6-.4-1 .2-.4.6-.6 1-.4l7.5 2.9-1.5 7.9c.1.4-.3.6-.6.6z"/><g fill="#D7E0E9"><path d="M92.4 56.5c-.6 0-.8-.4-.8-.8l1.2-6.7-6.4-2.3c-.4-.2-.4-.6-.4-1 .2-.4.6-.6 1-.4l7.5 2.9-1.5 7.9c0 .2-.2.4-.6.4z"/><path d="M92.4 56.5c-.6 0-.8-.4-.8-.8l1.2-6.7-6.4-2.3c-.4-.2-.4-.6-.4-1 .2-.4.6-.6 1-.4l7.5 2.9-1.5 7.9c0 .2-.2.4-.6.4z"/></g><path fill="none" d="M114.2 38l-15.1 7.7"/><path fill="#D7E0E9" d="M99.1 46.5c-.2 0-.6-.2-.6-.4-.2-.4 0-.8.2-1l15-7.9c.4-.2.8 0 1 .2.2.4 0 .8-.2 1l-15 7.9c-.2.2-.2.2-.4.2z"/><path fill="#D7E0E9" d="M115.5 44.6h-.2l-7.7-3.1 1.5-7.7c0-.4.4-.6.8-.6s.6.4.6.8l-1.2 6.4 6.7 2.7c.4.2.6.6.4 1-.5.3-.7.5-.9.5z"/><path fill="#D7E0E9" d="M110.9 46.9h-.2l-7.7-3.1 1.5-7.7c0-.4.4-.6.8-.6s.6.4.6.8l-1.2 6.4 6.7 2.7c.4.2.6.6.4 1-.3.3-.7.5-.9.5z"/><path fill="none" d="M114.2 38l-15.1 7.7"/><path fill="#D7E0E9" d="M99.1 46.5c-.2 0-.6-.2-.6-.4-.2-.4 0-.8.2-1l15-7.9c.4-.2.8 0 1 .2.2.4 0 .8-.2 1l-15 7.9c-.2.2-.2.2-.4.2z"/><path fill="#D7E0E9" d="M115.5 44.6h-.2l-7.7-3.1 1.5-7.7c0-.4.4-.6.8-.6s.6.4.6.8l-1.2 6.4 6.7 2.7c.4.2.6.6.4 1-.5.3-.7.5-.9.5z"/><path fill="#D7E0E9" d="M110.9 46.9h-.2l-7.7-3.1 1.5-7.7c0-.4.4-.6.8-.6s.6.4.6.8l-1.2 6.4 6.7 2.7c.4.2.6.6.4 1-.3.3-.7.5-.9.5z"/><path fill="#A7ABB5" d="M72.4 67.3c-3.1 0-5.8-2.5-5.8-5.4 0-1.5.6-2.9 1.9-4l.4-.2v-4.2h7.3v4.2l.4.2c1.2 1 1.9 2.5 1.9 4-.4 2.9-2.9 5.4-6.1 5.4z"/><path fill="#D7E0E9" d="M72.4 26.5c1.5 0 2.5 1 2.5 2.5v28.9l.6.6c1 .8 1.5 2.1 1.5 3.3 0 2.5-2.1 4.6-4.8 4.6-2.7 0-4.8-2.1-4.8-4.6 0-1.2.6-2.5 1.5-3.3l.6-.6V29c.2-1.4 1.5-2.5 2.9-2.5m0-1.8c-2.5 0-4.6 2.1-4.6 4.4v28.1c-1.2 1.2-2.1 2.9-2.1 4.6 0 3.5 3.1 6.4 6.7 6.4 3.7 0 6.7-2.9 6.7-6.4 0-1.9-.8-3.5-2.1-4.6V29c0-2.5-2.1-4.3-4.6-4.3zM54.1 91l9-23.3 56.6 19.8-9 23.2z"/><path fill="#9198AA" d="M118 88.3l-8.1 20.8-54.1-18.9 8.1-21L118 88.3m3.3-1.7L62.3 66l-10 25.8 59.1 20.6 9.9-25.8z"/><path fill="#A7ABB5" d="M103.6 104.3L63.7 90.4c-2.5-.8-3.7-3.5-2.7-5.8l2.9-7.9c.8-2.3 3.5-3.5 6-2.7l39.7 13.9c2.5.8 3.7 3.5 2.7 5.8l-2.9 7.9c-.6 2.3-3.3 3.5-5.8 2.7z"/><path fill="#DCE7EA" d="M84.1 94.1l.4-1.2c-1-.4-1.9-1-2.3-1.5l1-1.5c.4.6 1.2 1 2.1 1.5.8.2 1.5.2 1.7-.4.2-.4-.2-1-1-1.7-1.2-1-2.1-2.1-1.7-3.3.4-1.2 1.7-1.9 3.3-1.7l.4-1.2 1.5.4-.4 1.2c1 .4 1.5.8 1.9 1.2l-1 1.5c-.4-.2-.8-.8-1.9-1.2-.8-.4-1.5 0-1.5.4-.2.4.2.8 1.2 1.7 1.5 1.2 1.9 2.1 1.5 3.3s-1.7 1.9-3.5 1.7l-.2 1.2-1.5-.4z"/><path fill="#D7E0E9" d="M56.734 101.537l.059-24.7 60.3.144-.06 24.7z"/><path fill="#9198AA" d="M115.7 78.1v22.3l-57.6-.2V77.9l57.6.2m2.7-2.5l-63-.2v27.4l63 .2V75.6z"/><path fill="#A7ABB5" d="M108 97.9H65.6c-2.5 0-4.8-2.1-4.8-4.6V85c0-2.5 2.1-4.6 4.8-4.6H108c2.5 0 4.8 2.1 4.8 4.6v8.3c0 2.7-2.1 4.6-4.8 4.6z"/><path fill="#DCE7EA" d="M86 94.7v-1.5c-1 0-2.1-.2-2.5-.6l.4-1.7c.6.4 1.5.6 2.5.6.8 0 1.5-.4 1.5-.8 0-.6-.4-.8-1.7-1.2-1.7-.6-2.7-1.2-2.7-2.7 0-1.2 1-2.3 2.5-2.5v-1.5h1.5V84c1 0 1.7.2 2.3.4l-.4 1.7c-.4-.2-1-.4-2.3-.4-1 0-1.2.4-1.2.8s.6.8 1.9 1.2c1.9.6 2.5 1.5 2.5 2.7 0 1.2-1 2.3-2.7 2.7v1.5H86z"/><path fill="#D7E0E9" d="M62.9 110.7l-8.8-23.5 56.6-19.5 9 23.5z"/><path fill="#9198AA" d="M109.9 69.4l8.1 21-54.3 18.7-7.9-21 54.1-18.7m1.6-3.4L52.3 86.6l9.8 25.8 59.3-20.6-9.9-25.8z"/><path fill="#A7ABB5" d="M109.9 90.6L70 104.3c-2.5.8-5.2-.4-6-2.7l-3-7.9c-.8-2.3.4-5 2.9-5.8l39.9-13.7c2.5-.8 5.2.4 6 2.7l2.9 7.9c.9 2.2-.3 4.9-2.8 5.8z"/><path fill="#FCFCFC" d="M88 94.7l-.4-1.2c-1 .2-2.1.4-2.7.2l-.2-1.7c.6.2 1.7 0 2.5-.2s1.2-.8 1-1.2c-.2-.4-.8-.6-1.9-.6-1.7 0-2.9-.2-3.5-1.7-.4-1.2 0-2.5 1.5-3.3l-.4-1.5 1.5-.4.4 1.2c1-.2 1.7-.4 2.3-.2l.2 1.7c-.4 0-1.2-.2-2.3.2-.8.4-1 .8-1 1.2.2.4.8.6 2.1.6 1.9 0 2.9.4 3.3 1.7.4 1.2 0 2.5-1.7 3.3l.6 1.5-1.3.4z"/></svg>