<svg xmlns="http://www.w3.org/2000/svg" viewBox="0 0 83.8 83.9"><path fill="#D7E0E9" d="M69.6 10.9l-4.8-6.6s-2.9 1.5-2.9 3.8.8 8.8 2.8 18.5c1.1 5.3 1.5 18.4-6.1 26s-16.8 7-16.8 7-9.2.6-16.8-7-7.2-20.6-6-25.9c2-9.7 2.8-16.2 2.8-18.5s-2.9-3.8-2.9-3.8l-4.6 7.3-2.6 16.5 7 28.2 23.1 9 23.2-9 7-28.2-2.4-17.3z"/><path fill="#A7ABB5" d="M78.5 10.5S67.2 13 66.4 14.7s.8 5.7.8 5.7 2.9 8.7 1.5 18.1C66.4 55.4 54.5 59.2 50.5 61c-2.3 1-7.5 1.4-8.4 1.4h-.2c-1 .1-5.4 0-8.4-1.4-4-1.8-16.3-5.6-18.3-22.5-1.3-10.6 1.5-18.1 1.5-18.1s1.5-4 .8-5.7c-.9-1.7-12.2-4.2-12.2-4.2S-1.2 24.6.2 44s20.1 31.8 20.1 31.8 10.2 4.7 21.5 4.8h.2c11.2-.1 21.5-4.8 21.5-4.8S82.2 63.4 83.6 44s-5.1-33.5-5.1-33.5z"/><path fill="#9198AA" d="M55.9 72.2c-4.4 2.3-14.2 2.7-14.2 2.7s-9.8-.3-14.2-2.7c-7.1-3.8-8.8 1.6-6.6 4.5 5.3 6.8 20.8 7.3 20.8 7.3s15.5-.5 20.8-7.3c2.2-2.9.6-8.3-6.6-4.5z"/><path fill="#767C8F" d="M71.1 25.4c-.9-4.2 4.8-5.6 6.3-1.5s3.7 13.4 2 19.8c-1.3 4.7-3.2 12-7.6 16.5s-10.4 1.5-7.2-4.4C67.6 49.9 70 51 72 41c1.5-6.6 0-11.4-.9-15.6z"/><circle fill="#D7E0E9" cx="74.7" cy="26.9" r="2"/><circle fill="#D7E0E9" cx="76.4" cy="38.6" r="2"/><circle fill="#D7E0E9" cx="73.8" cy="49.1" r="2"/><circle fill="#D7E0E9" cx="67.6" cy="58.6" r="2"/><path fill="#767C8F" d="M12 25.4c.9-4.2-4.8-5.6-6.3-1.5S2 37.3 3.8 43.7c1.3 4.7 3.2 12 7.6 16.5s10.4 1.5 7.2-4.4S13.1 51 11.1 41c-1.5-6.6 0-11.4.9-15.6z"/><circle fill="#D7E0E9" cx="8.4" cy="26.9" r="2"/><circle fill="#D7E0E9" cx="6.7" cy="38.6" r="2"/><circle fill="#D7E0E9" cx="9.3" cy="49.1" r="2"/><circle fill="#D7E0E9" cx="15.5" cy="58.6" r="2"/><path fill="#9198AA" d="M79.4 10.5l-10.4 3c-1.1.3-2.2-.3-2.5-1.4L64.7 6c-.3-1 .3-2.1 1.3-2.4L76.4.5c1.1-.3 2.2.3 2.5 1.4L80.7 8c.3 1-.3 2.2-1.3 2.5zM4.2 10l10.4 3.1c1.1.3 2.2-.3 2.5-1.4l1.8-6.1c.3-1.1-.3-2.2-1.4-2.5L7.1.1C6-.2 4.9.4 4.6 1.4L2.8 7.5c-.3 1.1.3 2.2 1.4 2.5z"/></svg>