<svg xmlns="http://www.w3.org/2000/svg" viewBox="0 0 82.9 85.4"><path fill="#767C8F" d="M0 24.7S2.3 11.9 26.7 6.8s37.7 5.4 39.4 5.2c1.7-.2-7.8 7-9.1 5.8-1.4-1.2-39.4-8.3-57 6.9z"/><path fill="#9198AA" d="M8.2 38s1.5-9.8 17.9-13.6 25.6 4.5 26.7 4.4c1.1-.1-5.2 5.3-6.1 4.4-.9-.8-26.7-6.7-38.5 4.8z"/><path fill="#767C8F" d="M15.2 48.5s1.2-7.9 14.3-10.8c13.1-3 20.5 3.6 21.4 3.5.9-.1-4.2 3.6-4.9 3.5-.9-.1-21.3-5.4-30.8 3.8z"/><path fill="#A6ACBA" d="M24 62.5s-.2-7.7 9.4-11.7 16.1 1.6 16.8 1.5c.7-.2-2.7 3.9-3.2 3.8-.8-.1-17.1-3.3-23 6.4z"/><path fill="#9198AA" d="M35 70.7c-.5.6-2.3-2.9 3.7-8.2 4.6-4.2 10.3-3.6 12.9-2.6.5.2 2.5 1.7 1.4 3.5-.3.6-13.6.5-18 7.3z"/><path fill="#A6ACBA" d="M44 74.2c-.3.3-1.3-1.7 2.2-4.8 2.7-2.5 6.1-2.1 7.6-1.5.3.1 1.4 1 .8 2.1-.1.2-8 .2-10.6 4.2z"/><path fill="#9DACB2" d="M44 84.2c-.2.3-1.4-1.3 1.1-4.6 2-2.6 4.9-2.9 6.4-2.7.3.1 1.4.6 1.1 1.7-.1.3-7 1.6-8.6 5.6z"/><path fill="#A6ACBA" d="M55.3 25s-3.6-9-23.1-9S3.8 25.9 2.5 26c-1.3.1 7 3.9 7.8 2.8 1-1 29.3-12.2 45-3.8zm-8.7 12.8s-2.4-6-15.5-6S10.6 36.9 9.7 38c-.3.4 1.3 5 4.2 5s15.3-11.6 32.7-5.2z"/><path fill="#9198AA" d="M48.1 48.9s-2-5.1-13.1-5.1-17.4 4.4-18.2 5.3c-.2.3-2.2 6.8 5 6.8 2.4 0 11.6-11.1 26.3-7z"/><path fill="#767C8F" d="M50.2 58.4s-3.8-3.2-11.9-1.8c-8.1 1.4-11.4 4-11.9 4.7-.2.2-.1 5.8 5.2 4.9 1.7-.3 7.4-8.7 18.6-7.8zm3 6.8s-3.1-1.8-8.5.3c-5.3 2.1-7.2 4.5-7.4 5.1-.1.2.9 4.3 4.3 2.9 1.2-.4 3.8-7.4 11.6-8.3z"/><path fill="#9198AA" d="M52.4 73.1s-2.4-1.2-6.3.5-5.2 3.6-5.4 4.1c0 .2.8 3.1 3.3 2 1-.4 2.7-5.7 8.4-6.6zm-31.9-70S54.8-6.4 69.2 8c3.2 3.8-2.9 2.2-2.9 2.2S53.4.4 20.5 3.1z"/><path fill="#D7E0E9" d="M53.2 74.5l9.6-10.9L70.3 74l-1.5 11.2-16.9.2z"/><path fill="#767C8F" d="M51.9 85.4H30.2l1.1-10.9H53z"/><path fill="#D7E0E9" d="M41.6 63.6l6.7 10.9h-17z"/><path fill="#9198AA" d="M61.7 69.4h2l-.5 3.7h-2.5l.6-3.7zm-4.1 6.1h3.1l-.9 8.1h-3.1z"/><path fill="#FFF" d="M47.1 75.8h3.2l-1 8.1h-3zm-6.5 0h3.2l-1 8.1h-3zm-6.7 0h3.2l-1 8.1h-3z"/><path fill="#9198AA" d="M63.6 75.5h3.2l-1 8.1h-3z"/><path fill="#767C8F" d="M76.8 52.5l2.4 1.7 2.6 12.1-15-6.9z"/><path fill="#D7E0E9" d="M46.3 51l12.4-7.4 20.8 8.9-13.2 7.6z"/><path fill="#9198AA" d="M81.8 66.3h1.1l-3.4-13.8-13.2 7.6-20-9.1v1.5l20.1 9.2 12.4-7.3z"/></svg>