<svg xmlns="http://www.w3.org/2000/svg" viewBox="51.7 24.5 67.7 83.8"><path fill="#B0BAC1" d="M83.8 29.7s-1.2 1.6-1.2 2.5c0 1.4.8 1.8 1.8 1.8s-1.2 1.8-1.2 1.8l.2 2 4.5-.6.4-1.6-.8-1-.5-1.8v-2.9l-3.2-.2z"/><path fill="#767C8F" d="M87.8 33s1.8-.8 2.4-2.4c.6-1.6 1.2-3.1 0-3.7-1.2-.8-4.1-3.1-6.1-2.2-2 1-2.4 2.4-2.2 3.7.2.6.2 1.2 1.6 1.2 1.4 0 3.5.2 3.5.2v2.9c0 .1.4.7.8.3zm5.9 29s3.5 17.1 3.5 19c0 2 1 19 1 22.6h-3.3L84 68.5l-2.9 35.3h-3.3s-3.3-23.9-3.3-25.9V60.4s3.1 6.3 19.2 1.6z"/><path fill="#9198AA" d="M93.7 62s3.5 18.8 3.5 20.8c0 0-1.6 1-2.2 1.6l-4.7 4.7L84 68.7l-1.6 18.2-2-1.4c-1.6-1.2-2.9-2.7-3.3-4.7-.2-.8-.4-1.4-.4-2 0-2 2.2-15.1 2.2-15.1S82.7 65 93.7 62z"/><path fill="#D7E0E9" d="M88.2 35.2c3.1 0 11.4 7.5 12.7 18.4 2 14.5 1.2 18 1.2 18l-3.3 1.2-4.9-16.1V62s-6.5 7.1-19.2.8c-.2-1.4-.4-9.4-.4-9.4l-1.8 5.7-2.9 12.7-3.6-.5V63c0-4.5.6-9 1.8-13.3 1.6-5.7 7.6-13.1 10.4-13.5 4.5-.8 5.1-1 5.1-1s1.9 3.1 4.9 0z"/><path fill="#A7ABB5" d="M80.1 62.6c3.1 1.8 9.2 1.4 11.8-1.2.8-.8-.4-4.7 1.6-9.8l5.3 21.2-4.9-16.1V62s-6.5 7.1-19.2.8c-.2-1.4-.4-9.4-.4-9.4l-1.8 5.7-1.2 5.3c0-4.5-2.2-10.4 5.1-19.4-2.2 7.4-1.2 14.7 3.7 17.6z"/><path fill="#767C8F" d="M96 41.2c.2.2.4.6.6.8.2.2.4.6.4.8 12.6 1.2 20.8 3.9 20.8 6.7 0 3.3-13.3 7.1-32.2 7.1s-32.4-3.7-32.4-7.1c0-2.4 6.9-5.1 18-6.3 0-.2.2-.4.4-.4.2-.2.2-.4.4-.6 0-.2.2-.4.2-.4-11.4 1.2-20.6 3.9-20.6 7.8 0 5.5 17.5 8.6 33.7 8.6s33.7-2.9 33.7-8.6c.1-4.4-10.4-7.4-23-8.4z"/><path fill="#9198AA" d="M101.9 72.2l.8 2.7v.6l-.6 1.8c-.2.4-.6.4-.8.2l-.4-2.7s-.6-.2-.8 1.6c-.4.8-.6-1.6-.6-1.6l.2-1.4c0-.4.4-.8.8-1l.8-.2c.4-.4.6-.2.6 0z"/><path fill="#B0BAC1" d="M66.4 71.6l-.6 2.7v.6l.8 1.8c.2.4.6.4 1 .2l.2-2.9s.6-.2 1 1.4c.6.8.4-1.6.4-1.6l-.4-1.4c-.2-.4-.6-.8-1-1l-.8-.1c-.2 0-.6.1-.6.3z"/><path fill="#FDFFFF" d="M83.7 32.4s.2.4.6.4 1-.2 1-.2-.3.4-.7.6c-.4.2-.8 0-1-.2.1-.4.1-.6.1-.6z"/><path fill="#9198AA" d="M95.4 105.6l1.2.4c.4.2.6 0 1 0 .4-.2 1-.6 1.2-.6.2 0 5.7 1 5.9 1 .4.8-.2 1.4-.2 1.4h-10c-.4 0-.6-.4-.4-.6l.8-1.6h.5zm-14.5 0c.2-.2.6-.2.8 0 .6.4 1 1.6 1 2 0 .4-1.6.8-2.4.8s-5.5-.2-5.9-.6c-.4-.4 2.9-2 3.1-1.8.2.2.2.4.4.4.6.2 1.8.4 2.2 0l.8-.8z"/><path fill="#767C8F" d="M100.9 53.6v.4c.2.2.2.6.2.8v.4c10.2 1.4 16.7 3.9 16.7 6.3 0 3.3-13.3 7.1-32.2 7.1s-32.4-3.9-32.4-7.3c0-2.2 5.1-4.3 13.5-5.7V54c-8.6 1.4-15.1 3.9-15.1 7.3 0 5.5 17.5 8.6 33.7 8.6S119 67 119 61.3c.1-3.8-7.9-6.5-18.1-7.7z"/><path fill="#767C8F" d="M100.9 53.6v.4c.2.2.2.6.2.8v.4c10.2 1.4 16.7 3.9 16.7 6.3 0 3.3-13.3 7.1-32.2 7.1s-32.4-3.9-32.4-7.3c0-2.2 5.1-4.3 13.5-5.7V54c-8.6 1.4-15.1 3.9-15.1 7.3 0 5.5 17.5 8.6 33.7 8.6S119 67 119 61.3c.1-3.8-7.9-6.5-18.1-7.7z"/><g fill="#767C8F"><path d="M74.6 65.8c0-.2-.2-.6 0-1-1.4.2-2.5.2-3.7.4 0 .2-.2.4-.2.6v.4c0 .2 0 .4-.2.6 1.4-.2 2.7-.4 4.1-.4v-.6zm22 .4c0-.2 0-.2-.2-.4s-.4-.6-.4-1c-.8 0-1.4-.2-2.2-.2v.4c.2.2.2.6 0 1v.2c.8 0 1.6.2 2.4.2.6-.1.4-.2.4-.2z"/><path d="M102.1 65.6v1.6c9.6 1.4 15.5 3.7 15.5 6.1 0 3.3-13.3 7.1-32.2 7.1S53.3 76.3 53.3 73c0-2 4.9-4.1 12.7-5.7v-.2c-.2-.4-.2-.8-.2-1.2-8.2 1.4-14.1 3.7-14.1 7.1 0 5.5 17.5 8.6 33.7 8.6s33.7-2.9 33.7-8.6c0-3.5-7.2-6.1-17-7.4z"/></g><path fill="#767C8F" d="M96.4 76.7v.8c.2.2.2.6.2.8 12.7 1.2 21 3.9 21 6.7 0 3.3-13.3 7.1-32.2 7.1s-32.2-3.9-32.2-7.3c0-2.7 8.4-5.7 21.4-6.7v-1.6c-12.4 1-22.7 3.7-22.7 8.2 0 5.5 17.5 8.6 33.7 8.6s33.7-2.9 33.7-8.6c-.2-4.2-10.5-7-22.9-8z"/></svg>