<svg xmlns="http://www.w3.org/2000/svg" viewBox="0 56.7 103.4 60.9"><path fill="#D7E0E9" d="M102.1 92.7V81l-4.2 2.1-2.1-6.1-5.1 3.8-2.2-5.5-4.5 4.9-3.9-5.3-4.7 5.5-4.7-5.7-5.3 10 21.6.2z"/><path fill="#767C8F" d="M62.5 87.4h21.4c8.7 0 15.3 2.9 19.4 11.8v-7.1s.4-9.6-18.6-10.2c-19-.6-21.4.2-21.4.2l-.8 5.3z"/><path fill="#D7E0E9" d="M42.3 105.8l4.7-4.7 6.7 7.1 6.6-6.7 6.9 5.7 5.7-6.1 7 5.5 4.7-7.4 6.7 5.3 1.9-6.9 5.1 1.6 2-7.1 1.8 1.8v9.6l-7.1 5.9-17.6 3.9-32.9-.6-5.7-.4z"/><path fill="#9198AA" d="M36.6 111.9h47.2c3.1 0 15.3-4.5 19.4-13.5v7.1s-6.9 10.4-19.2 10.4H37l-.4-4z"/><path fill="#D7E0E9" d="M.6 75.1l2.3-11.8 6.3.8 2-5.7 4.9 3.4 3.3-5.1 4.3 5.3 4.7-5.3 2.4 6 5.8-3.7 2.2 6.1 6.1-2.4.7 7.3 7.7-1.2 3.1 9.2L46 76.8l-15.2-6-12.2-1.4-9 3.7z"/><path fill="#767C8F" d="M57 77.6S35.8 65.8 33.7 65.1c-2.7-1.4-16.1-4.5-27.6 2.5C.2 71.2 0 78 0 78s6.5 8 5.5 3.7 2.5-9.8 7.8-11c3.1-1.4 11.8-2 16.5.4 6.5 3.1 23.5 12.7 23.5 12.7l3.7-6.2z"/><path fill="#D7E0E9" d="M35.1 103.3c-.4-.4-1.8-5.7-1.8-5.7l-8 2.9v-7.8l-7.6.6-.2-5.9-6.9.2 1.4-6.3H5.7l-1.4-9.8-4.1 4.1v11l21.4 19.8 7.6 3.3 5.9-6.4z"/><path fill="#9198AA" d="M1 78v10.6c0 7.8 28.8 25.7 28.8 25.7l2.5-6.1C32.1 108.2 1 88.2 1 78z"/><circle fill="#9198AA" cx="59.9" cy="82.9" r="6.5"/><circle fill="#A7ABB5" cx="58.2" cy="84.3" r="6.5"/><path fill="#767C8F" d="M55.2 84.3c0-1.6 1.4-3.1 3.1-3.1s3.1 1.4 3.1 3.1c0 .4 0 .8-.2 1.2-.4 1-1.4 1.8-2.9 1.8-1.7.1-3.1-1.4-3.1-3z"/><path fill="#767C8F" d="M41.5 105.6l-4.5-2.5 19.4-21.2 4.7 3.6-18.8 20.3z"/><circle fill="#9198AA" cx="37" cy="109.4" r="6.5"/><circle fill="#A7ABB5" cx="35.3" cy="111.1" r="6.5"/></svg>