<svg xmlns="http://www.w3.org/2000/svg" xmlns:xlink="http://www.w3.org/1999/xlink" viewBox="0 0 282 410"><image overflow="visible" width="282" height="410" xlink:href="../Подсказка.png"/><path fill="#FFF" d="M14.4 408c5.4-3.8 9.6-10 9.6-17.2V19.7c0-9.5 7.7-17.2 17.2-17.2h221.7c9.5 0 17.2 7.7 17.2 17.2v371.2c0 9.5-7.7 17.2-17.2 17.2H14.4z"/><path fill="#D7E0E9" d="M262.8 4.5c8.4 0 15.2 6.8 15.2 15.2v371.2c0 8.4-6.8 15.2-15.2 15.2H19.7c3.8-4 6.3-9.3 6.3-15.2V19.7c0-8.4 6.8-15.2 15.2-15.2h221.6m0-4H41.2C30.6.5 22 9.1 22 19.7v371.2c0 10-9.6 18.7-18.5 19.2h259.3c10.6 0 19.2-8.6 19.2-19.2V19.7C282 9.1 273.4.5 262.8.5zM3.5 410H2h1.5z"/></svg>