<svg xmlns="http://www.w3.org/2000/svg" width="260" height="433"><defs><clipPath id="a"><path fill="#fff" d="M20 23h221c12.492.38 19 8.954 19 20v370c0 11.046-8.954 20-20 20H20c-11.046 0-20-8.954-20-20V0c.183 13.174 8.954 23 20 23z"/></clipPath></defs><path fill="#fff" d="M20 23h221c12.492.38 19 8.954 19 20v370c0 11.046-8.954 20-20 20H20c-11.046 0-20-8.954-20-20V0c.183 13.174 8.954 23 20 23z"/><path fill="none" stroke="#d7e0e9" stroke-linecap="round" stroke-linejoin="round" stroke-miterlimit="20" stroke-width="8" d="M20 23h221c12.492.38 19 8.954 19 20v370c0 11.046-8.954 20-20 20H20c-11.046 0-20-8.954-20-20V0c.183 13.174 8.954 23 20 23z" clip-path="url(&quot;#a&quot;)"/></svg>