<svg xmlns="http://www.w3.org/2000/svg" width="138" height="156"><path fill="#d7e0e9" d="M137.4 87.6c0 37.776-30.624 68.4-68.4 68.4C31.224 156 .6 125.376.6 87.6c0-20.902 9.375-39.614 24.15-52.16l-3.45-4.856-.978.696a4.8 4.8 0 1 1-5.56-7.826l7.825-5.56a4.8 4.8 0 1 1 5.56 7.825l-.978.695 3.31 4.657a68.02 68.02 0 0 1 33.72-11.705V12H61a4 4 0 0 1-4-4V4a4 4 0 0 1 4-4h16a4 4 0 0 1 4 4v4a4 4 0 0 1-4 4h-3.2v7.366c35.537 2.463 63.6 32.071 63.6 68.234z"/><path fill="#fff" d="M69 27.6c33.137 0 60 26.863 60 60s-26.863 60-60 60-60-26.863-60-60 26.863-60 60-60z"/><path fill="#88cf19" d="M69 27.6c33.137 0 60 26.863 60 60s-26.863 60-60 60-60-26.863-60-60a59.854 59.854 0 0 1 4-21.584c.022.496 56.923 21.584 56.923 21.584s-.632-59.633-.923-60z"/><path fill="#edf2f7" d="M69 50.4c20.545 0 37.2 16.655 37.2 37.2S89.545 124.8 69 124.8s-37.2-16.655-37.2-37.2S48.455 50.4 69 50.4z"/></svg>