<svg xmlns="http://www.w3.org/2000/svg" viewBox="0 0 56.5 57.2"><path fill-rule="evenodd" clip-rule="evenodd" fill="#ACB9CC" d="M-28.3-28.6h113V85.8h-113z"/><path fill-rule="evenodd" clip-rule="evenodd" fill="#C4CBD6" d="M12.6-8.6h35.2l1.6 20.9s1.9.6 1.9 2.4c0 1.3.3 1.8-.1 5.2-.3 2.8.3 4.8-1.9 5.3l-2.3.4s-1.5 7.6-5.7 10.8c0 .6.1 8.6.1 8.6l9.1 1.2 2.4 11.5-32.5 10.1S3.1 57.5 3.1 56.4s4.6-8 4.6-8l9.6-4v-8.1s-3.8-3.4-5.2-10.7c-2.3 0-3.9-1.5-4.6-5.4-.4-2.5-1.3-8.4 1.4-8.4s3.7-20.4 3.7-20.4z"/><path fill="#676A77" d="M-11.6 59.3C-8.9 49.9 15.5 45 15.5 45s-6.4 2.3-4.9 4.9 2.9 9.7 18.4 9.7 19-7.6 19-8.9c0-1.3-.1-4.8-5.5-5.7s13-1.8 25.7 12.2c4.9 5.4 7 28.5 7 28.5H-17c0 .1 4.5-23.3 5.4-26.4z"/><path fill-rule="evenodd" clip-rule="evenodd" fill="#E4EAEF" d="M12.3 7.2s-.4-10.1 1.6-10.7S23.7.4 29-.5 40.3-2 42-.2s4.9 9.5 3 22.9c-2 13.4-8.4 16.6-13.8 19.1-.8.4-4.1 1-6.2 0-4.4-2.4-9.5-8.5-10.6-11.1S8.6 19 9.2 13.1c.5-5.9.9-4.7.9-4.7l2.2-1.2"/><path fill="#797E89" d="M6.6-10.8c-.6-2.7 5.1-3.9 7.2-6s-.4-7.7 8.9-7.7S38.4-19.7 42.3-14c2.8 1.8 4.7-3.1 7.4 1.9s2.9 10.4 2.9 13.7-1.8 8-4.8 13.3c-2.5 0-.9-9.6-2.1-12.7s-1.9-6.3-6.7-7-6.7 1.4-10 1.4-7.4-3-10.8-1.8C10.5-4 12.9 15 11.4 15s-2-4.4-2-4.4C8.2 9.4 6.6 7.4 6.6 3.4s2.6-3.2 0-14.2z"/><path fill="#676A77" d="M9.4-10c-.6-4.1 5.9-3.4 8-5.4S20.2-22 25-22c9.3 0 13.5 2.4 17.3 8.1 2.8 1.8 4.7-3.1 7.4 1.9s2.9 10.4 2.9 13.7-1.8 8-4.8 13.3c-2.5 0-.9-9.6-2.1-12.7S43.8-4 39-4.7s-6.7 1.3-10 1.3-7.4-3-10.8-1.8C10.5-4 12.9 15 11.4 15s-2-4.4-2-4.4C8.2 9.4 7.8 7.4 7.8 3.4S11.2 1.2 9.4-10z"/></svg>