<?xml version="1.0" encoding="utf-8"?>
<!-- Generator: Adobe Illustrator 18.1.0, SVG Export Plug-In . SVG Version: 6.00 Build 0)  -->
<svg version="1.1" id="Слой_1" xmlns="http://www.w3.org/2000/svg" xmlns:xlink="http://www.w3.org/1999/xlink" x="0px" y="0px"
	 viewBox="0 0 282 410" enable-background="new 0 0 282 410" xml:space="preserve">
<image overflow="visible"  width="282" height="410" xlink:href="../Подсказка.png" >
</image>
<g>
	<path fill="#FFFFFF" d="M14.4,408c5.4-3.8,9.6-10,9.6-17.2V19.7c0-9.5,7.7-17.2,17.2-17.2h221.7c9.5,0,17.2,7.7,17.2,17.2v371.2
		c0,9.5-7.7,17.2-17.2,17.2H14.4z"/>
	<path fill="#D7E0E9" d="M262.8,4.5c8.4,0,15.2,6.8,15.2,15.2v371.2c0,8.4-6.8,15.2-15.2,15.2H19.7c3.8-4,6.3-9.3,6.3-15.2V19.7
		c0-8.4,6.8-15.2,15.2-15.2H262.8 M262.8,0.5H41.2C30.6,0.5,22,9.1,22,19.7v371.2c0,10-9.6,18.7-18.5,19.2h259.3
		c10.6,0,19.2-8.6,19.2-19.2V19.7C282,9.1,273.4,0.5,262.8,0.5L262.8,0.5z M3.5,410H2c0.2,0,0.5,0,0.7,0C3,410,3.2,410,3.5,410
		L3.5,410z"/>
</g>
</svg>
