<svg xmlns="http://www.w3.org/2000/svg" width="139" height="139" viewBox="0 0 139 139"><defs><mask id="7redb" width="2" height="2" x="-1" y="-1"><path fill="#fff" d="M8 8h125v125H8z"/><path d="M28 8h90c5.535 0 10.046 2.825 14.165 5.881-.262-.195-117.498 118.869-118.217 118.35C9.551 129.065 8 123.569 8 118V28C8 16.954 16.954 8 28 8z"/></mask><filter id="7reda" width="165" height="165" x="-12" y="-12" filterUnits="userSpaceOnUse"><feOffset in="SourceGraphic" result="FeOffset1069Out"/><feGaussianBlur in="FeOffset1069Out" result="FeGaussianBlur1070Out" stdDeviation="4 4"/></filter><linearGradient id="7redc" x1="132" x2="8" y1="53" y2="87.23" gradientUnits="userSpaceOnUse"><stop offset="0" stop-color="#fe6542"/><stop offset="1" stop-color="#e53b63"/></linearGradient></defs><g><g><g filter="url(#7reda)"><path fill="none" d="M28 8h90c5.535 0 10.046 2.825 14.165 5.881-.262-.195-117.498 118.869-118.217 118.35C9.551 129.065 8 123.569 8 118V28C8 16.954 16.954 8 28 8z" mask="url(&quot;#7redb&quot;)"/><path fill="#aac4df" fill-opacity=".21" d="M28 8h90c5.535 0 10.046 2.825 14.165 5.881-.262-.195-117.498 118.869-118.217 118.35C9.551 129.065 8 123.569 8 118V28C8 16.954 16.954 8 28 8z"/></g><path fill="#c2d2e1" d="M28 8h90c5.535 0 10.046 2.825 14.165 5.881-.262-.195-117.498 118.869-118.217 118.35C9.551 129.065 8 123.569 8 118V28C8 16.954 16.954 8 28 8z"/><path fill="url(#7redc)" d="M28 8h90c5.535 0 10.046 2.825 14.165 5.881-.262-.195-117.498 118.869-118.217 118.35C9.551 129.065 8 123.569 8 118V28C8 16.954 16.954 8 28 8z"/></g></g></svg>