<?xml version="1.0" encoding="utf-8"?>
<!-- Generator: Adobe Illustrator 18.1.0, SVG Export Plug-In . SVG Version: 6.00 Build 0)  -->
<svg version="1.1" id="Слой_1" xmlns="http://www.w3.org/2000/svg" xmlns:xlink="http://www.w3.org/1999/xlink" x="0px" y="0px"
	 viewBox="0 0 56.5 57.2" enable-background="new 0 0 56.5 57.2" xml:space="preserve">
<rect x="-28.3" y="-28.6" fill-rule="evenodd" clip-rule="evenodd" fill="#ACB9CC" width="113" height="114.4"/>
<path fill-rule="evenodd" clip-rule="evenodd" fill="#C4CBD6" d="M12.6-8.6h35.2l1.6,20.9c0,0,1.9,0.6,1.9,2.4
	c0,1.3,0.3,1.8-0.1,5.2c-0.3,2.8,0.3,4.8-1.9,5.3C47,25.6,47,25.6,47,25.6s-1.5,7.6-5.7,10.8c0,0.6,0.1,8.6,0.1,8.6l9.1,1.2
	l2.4,11.5L20.4,67.8c0,0-17.3-10.3-17.3-11.4s4.6-8,4.6-8l9.6-4v-8.1c0,0-3.8-3.4-5.2-10.7c-2.3,0-3.9-1.5-4.6-5.4
	c-0.4-2.5-1.3-8.4,1.4-8.4S12.6-8.6,12.6-8.6z"/>
<path fill="#676A77" d="M-11.6,59.3C-8.9,49.9,15.5,45,15.5,45s-6.4,2.3-4.9,4.9s2.9,9.7,18.4,9.7s19-7.6,19-8.9
	c0-1.3-0.1-4.8-5.5-5.7s13-1.8,25.7,12.2c4.9,5.4,7,28.5,7,28.5H-17C-17,85.8-12.5,62.4-11.6,59.3z"/>
<path fill-rule="evenodd" clip-rule="evenodd" fill="#E4EAEF" d="M12.3,7.2c0,0-0.4-10.1,1.6-10.7s9.8,3.9,15.1,3s11.3-1.5,13,0.3
	s4.9,9.5,3,22.9c-2,13.4-8.4,16.6-13.8,19.1c-0.8,0.4-4.1,1-6.2,0c-4.4-2.4-9.5-8.5-10.6-11.1S8.6,19,9.2,13.1
	c0.5-5.9,0.9-4.7,0.9-4.7L12.3,7.2L12.3,7.2L12.3,7.2"/>
<path fill="#797E89" d="M6.6-10.8c-0.6-2.7,5.1-3.9,7.2-6s-0.4-7.7,8.9-7.7S38.4-19.7,42.3-14c2.8,1.8,4.7-3.1,7.4,1.9
	c2.7,5,2.9,10.4,2.9,13.7s-1.8,8-4.8,13.3c-2.5,0-0.9-9.6-2.1-12.7s-1.9-6.3-6.7-7S32.3-3.4,29-3.4s-7.4-3-10.8-1.8
	C10.5-4,12.9,15,11.4,15s-2-4.4-2-4.4C8.2,9.4,6.6,7.4,6.6,3.4S9.2,0.2,6.6-10.8z"/>
<path fill="#676A77" d="M9.4-10c-0.6-4.1,5.9-3.4,8-5.4s2.8-6.6,7.6-6.6c9.3,0,13.5,2.4,17.3,8.1c2.8,1.8,4.7-3.1,7.4,1.9
	c2.7,5,2.9,10.4,2.9,13.7s-1.8,8-4.8,13.3c-2.5,0-0.9-9.6-2.1-12.7s-1.9-6.3-6.7-7S32.3-3.4,29-3.4s-7.4-3-10.8-1.8
	C10.5-4,12.9,15,11.4,15s-2-4.4-2-4.4C8.2,9.4,7.8,7.4,7.8,3.4S11.2,1.2,9.4-10z"/>
<image display="none" overflow="visible" width="61" height="922" xlink:href="7FDBB237.jpg"  transform="matrix(0.48 0 0 0.48 130.241 -2.1603)">
</image>
</svg>
